<svg height="41" viewBox="0 0 41 41" width="41" xmlns="http://www.w3.org/2000/svg"><rect fill="#009345" height="41" rx="5" width="41"/><g fill="#fff" transform="translate(11 11)"><path d="m10 20a10 10 0 0 1 -7.071-17.071 10 10 0 0 1 14.142 14.142 9.934 9.934 0 0 1 -7.071 2.929zm0-18.75a8.75 8.75 0 1 0 8.75 8.75 8.76 8.76 0 0 0 -8.75-8.75z"/><path d="m179.225 106.964a.645.645 0 0 1 -.645-.645 6.055 6.055 0 0 1 1.785-4.31 3.789 3.789 0 0 0 1.117-2.7 2.025 2.025 0 0 0 -2.023-2.023h-.147a2.025 2.025 0 0 0 -2.023 2.023v.235a.645.645 0 0 1 -1.29 0v-.235a3.316 3.316 0 0 1 3.313-3.309h.147a3.316 3.316 0 0 1 3.312 3.312 5.071 5.071 0 0 1 -1.495 3.609 4.773 4.773 0 0 0 -1.407 3.4.645.645 0 0 1 -.644.643z" transform="translate(-169.232 -92.386)"/><path d="m240.66 401.29a.645.645 0 0 1 0-1.29.645.645 0 0 1 0 1.29z" transform="translate(-230.659 -384.408)"/></g></svg>