<svg height="41" viewBox="0 0 41 41" width="41" xmlns="http://www.w3.org/2000/svg"><rect fill="#009345" height="41" rx="5" width="41"/><path d="m17.422 1.563h-1.8v-.938a.625.625 0 0 0 -1.25 0v.938h-8.747v-.938a.625.625 0 0 0 -1.25 0v.938h-1.8a2.581 2.581 0 0 0 -2.575 2.578v13.281a2.581 2.581 0 0 0 2.578 2.578h14.844a2.581 2.581 0 0 0 2.578-2.578v-13.281a2.581 2.581 0 0 0 -2.578-2.578zm-14.844 1.25h1.8v.625a.625.625 0 0 0 1.25 0v-.625h8.75v.625a.625.625 0 0 0 1.25 0v-.625h1.8a1.33 1.33 0 0 1 1.322 1.328v1.484h-17.5v-1.484a1.33 1.33 0 0 1 1.328-1.328zm14.844 15.937h-14.844a1.33 1.33 0 0 1 -1.328-1.328v-10.547h17.5v10.547a1.33 1.33 0 0 1 -1.328 1.328z" fill="#fff" transform="translate(11 11)"/></svg>