<svg height="20" viewBox="0 0 20 20" width="20" xmlns="http://www.w3.org/2000/svg"><g fill="#009345"><path d="m10 20a10 10 0 0 1 -7.071-17.071 10 10 0 0 1 14.142 14.142 9.934 9.934 0 0 1 -7.071 2.929zm0-18.75a8.75 8.75 0 1 0 8.75 8.75 8.76 8.76 0 0 0 -8.75-8.75z"/><path d="m179.129 106.637a.626.626 0 0 1 -.626-.626 5.874 5.874 0 0 1 1.732-4.181 3.677 3.677 0 0 0 1.084-2.617 1.965 1.965 0 0 0 -1.962-1.962h-.143a1.965 1.965 0 0 0 -1.962 1.962v.228a.626.626 0 0 1 -1.251 0v-.228a3.217 3.217 0 0 1 3.213-3.213h.143a3.217 3.217 0 0 1 3.214 3.214 4.92 4.92 0 0 1 -1.45 3.5 4.631 4.631 0 0 0 -1.365 3.3.626.626 0 0 1 -.627.623z" transform="translate(-169.129 -92.255)"/><path d="m240.641 401.251a.626.626 0 1 1 0-1.251.626.626 0 0 1 0 1.251z" transform="translate(-230.64 -384.376)"/></g></svg>