<svg height="18" viewBox="0 0 19 18" width="19" xmlns="http://www.w3.org/2000/svg"><g fill="#009345"><path d="m18.193 12.813h-13.271a.808.808 0 0 0 -.808.806v3.651l-.607-.908a.94.94 0 0 0 -1.267-.284l-1.249.749a1.828 1.828 0 0 0 -.837 1.083c-.454 1.652-.117 4.502 4.077 8.69 3.335 3.323 5.822 4.218 7.536 4.218a4.436 4.436 0 0 0 1.175-.153 1.834 1.834 0 0 0 1.086-.834l.75-1.247a.934.934 0 0 0 -.285-1.262l-2.993-1.992a.945.945 0 0 0 -1.263.2l-.87 1.116a.3.3 0 0 1 -.388.082l-.166-.091a9.955 9.955 0 0 1 -2.591-2.027c-.148-.148-.283-.286-.409-.419h12.38a.806.806 0 0 0 .808-.8v-9.772a.808.808 0 0 0 -.808-.806zm-9.68 14.387.161.088a.935.935 0 0 0 1.2-.246l.87-1.116a.308.308 0 0 1 .412-.067l2.99 1.988a.3.3 0 0 1 .093.411l-.75 1.247a1.2 1.2 0 0 1 -.71.55c-1.5.411-4.118.063-8.095-3.9s-4.328-6.588-3.917-8.08a1.2 1.2 0 0 1 .551-.708l1.25-.748a.307.307 0 0 1 .412.093l1.994 2.982a.306.306 0 0 1 -.067.411l-1.119.868a.929.929 0 0 0 -.246 1.192l.089.16a10.475 10.475 0 0 0 2.146 2.731 10.519 10.519 0 0 0 2.736 2.144zm9.855-3.807a.173.173 0 0 1 -.174.171h-12.952a7.966 7.966 0 0 1 -1.057-1.536l-.091-.166a.3.3 0 0 1 .082-.386l1.124-.876a.939.939 0 0 0 .2-1.26l-.753-1.126v-4.6a.172.172 0 0 1 .174-.174h13.272a.172.172 0 0 1 .174.174v9.776z" transform="translate(-.001 -12.813)"/><path d="m161.21 50.659-5.887 4.465a.475.475 0 0 1 -.559 0l-5.885-4.465a.352.352 0 0 0 -.426.561l5.886 4.464a1.186 1.186 0 0 0 1.409 0l5.887-4.464a.352.352 0 0 0 -.426-.561z" transform="translate(-144.321 -49.028)"/><path d="m152.513 172.509-3.608 3.864a.352.352 0 0 0 .515.48l3.608-3.866a.352.352 0 0 0 -.515-.479z" transform="translate(-143.444 -166.703)"/><path d="m370.561 172.191a.352.352 0 0 0 -.515.48l3.607 3.864a.352.352 0 0 0 .515-.481z" transform="translate(-356.81 -166.383)"/></g></svg>