<svg height="20" viewBox="0 0 20 20" width="20" xmlns="http://www.w3.org/2000/svg"><path d="m17.072 2.929a10 10 0 1 0 -14.142 14.142 10.006 10.006 0 0 0 11.819 1.729.6.6 0 0 0 -.572-1.059 8.8 8.8 0 1 1 4.623-7.741 8.678 8.678 0 0 1 -.529 3.022 1.973 1.973 0 0 1 -1.554 1.085 1.652 1.652 0 0 1 -1.651-1.651v-6.343a.6.6 0 0 0 -1.2 0v.615a5.063 5.063 0 1 0 .089 6.437 2.859 2.859 0 0 0 2.765 2.145 3.161 3.161 0 0 0 2.633-1.756 9.642 9.642 0 0 0 .647-3.554 9.934 9.934 0 0 0 -2.928-7.071zm-7.072 10.931a3.86 3.86 0 1 1 3.861-3.86 3.864 3.864 0 0 1 -3.861 3.86z" fill="#009345" transform="translate(-.001)"/></svg>