<svg height="38" viewBox="0 0 38 38" width="38" xmlns="http://www.w3.org/2000/svg"><rect fill="#8bc53f" height="38" rx="19" width="38"/><g fill="#fff"><path d="m15.63 48.122a.422.422 0 0 0 -.422.423v3.755a1.268 1.268 0 0 1 -1.265 1.268h-11.834a1.268 1.268 0 0 1 -1.266-1.268v-11.015a1.268 1.268 0 0 1 1.265-1.268h3.745a.423.423 0 0 0 0-.845h-3.744a2.113 2.113 0 0 0 -2.109 2.113v11.015a2.113 2.113 0 0 0 2.109 2.113h11.834a2.113 2.113 0 0 0 2.108-2.113v-3.756a.422.422 0 0 0 -.422-.423zm0 0" transform="translate(11 -26.409)"/><path d="m120.355.858a2.039 2.039 0 0 0 -2.884 0l-8.085 8.085a.453.453 0 0 0 -.116.2l-1.063 3.838a.453.453 0 0 0 .558.558l3.838-1.063a.453.453 0 0 0 .2-.116l8.085-8.085a2.042 2.042 0 0 0 0-2.884zm-9.982 8.38 6.617-6.617 2.134 2.134-6.617 6.617zm-.426.855 1.7 1.705-2.358.653zm10.3-6.46-.481.481-2.135-2.134.481-.481a1.133 1.133 0 0 1 1.6 0l.532.532a1.135 1.135 0 0 1 .002 1.602zm0 0" transform="translate(-93.484 10.739)"/></g></svg>