<svg height="18.995" viewBox="0 0 20 18.995" width="20" xmlns="http://www.w3.org/2000/svg"><g fill="#009345"><path d="m17.1 22.068h-3.886a.407.407 0 0 0 0 .814h3.886a2.159 2.159 0 0 1 2.114 2.2v6.836a2.159 2.159 0 0 1 -2.114 2.2h-2.3a.384.384 0 0 0 -.276.118l-1.578 1.63v-1.347a.4.4 0 0 0 -.391-.407h-6.101a2.159 2.159 0 0 1 -2.114-2.2v-6.833a2.159 2.159 0 0 1 2.114-2.2h3.732a.407.407 0 0 0 0-.814h-3.732a2.959 2.959 0 0 0 -2.9 3.011v.4h-.654a2.959 2.959 0 0 0 -2.9 3.015v7.242a2.959 2.959 0 0 0 2.9 3.011h2.131l2.131 2.2a.384.384 0 0 0 .276.118.378.378 0 0 0 .15-.031.407.407 0 0 0 .241-.376v-1.911h5.716a2.959 2.959 0 0 0 2.9-3.011v-.807h.66a2.959 2.959 0 0 0 2.895-3.011v-6.836a2.959 2.959 0 0 0 -2.9-3.011zm-1.44 13.665a2.159 2.159 0 0 1 -2.114 2.2h-6.108a.4.4 0 0 0 -.391.407v1.341l-1.578-1.63a.384.384 0 0 0 -.276-.118h-2.293a2.04 2.04 0 0 1 -.235-.014v-2.424a.392.392 0 1 0 -.783 0v2.163a2.213 2.213 0 0 1 -1.1-1.925v-7.242a2.159 2.159 0 0 1 2.114-2.2h.66v5.622a2.959 2.959 0 0 0 2.9 3.011h5.714v1.912a.407.407 0 0 0 .241.376.378.378 0 0 0 .15.031.384.384 0 0 0 .276-.118l2.131-2.2h.691v.807z" transform="translate(0 -22.068)"/><path d="m236.828 118.761-1.706-4.557a.407.407 0 0 0 -.762 0l-1.706 4.557a.407.407 0 1 0 .762.285l.6-1.608h1.447l.6 1.608a.407.407 0 1 0 .762-.285zm-2.506-2.136.419-1.118.419 1.118z" transform="translate(-223.631 -110.21)"/><path d="m360.062 118.617-.191-.191a1.629 1.629 0 0 0 .184-.753v-2.094a1.639 1.639 0 1 0 -3.277 0v2.094a1.638 1.638 0 0 0 2.55 1.361l.158.158a.407.407 0 1 0 .576-.575zm-.82-.944a.825.825 0 0 1 -.009.114l-.277-.277a.407.407 0 0 0 -.576.575l.351.351a.824.824 0 0 1 -1.139-.762v-2.094a.825.825 0 1 1 1.65 0v2.094z" transform="translate(-343.08 -110.21)"/><path d="m156.677 116.624h-1.4v-1.688a.183.183 0 0 1 .182-.183h1.221a.407.407 0 1 0 0-.814h-1.221a1 1 0 0 0 -1 1v3.961a.407.407 0 1 0 .814 0v-1.465h1.4a.407.407 0 0 0 0-.814z" transform="translate(-148.461 -110.209)"/></g></svg>