<svg height="20" viewBox="0 0 20 20" width="20" xmlns="http://www.w3.org/2000/svg"><g fill="#009345"><path d="m13.138 7.826a.43.43 0 0 0 .424-.435v-5.217a2.149 2.149 0 0 0 -2.119-2.174h-9.324a2.149 2.149 0 0 0 -2.119 2.174v15.652a2.149 2.149 0 0 0 2.119 2.174h9.324a2.149 2.149 0 0 0 2.119-2.174v-5.217a.424.424 0 1 0 -.848 0v5.217a1.29 1.29 0 0 1 -1.271 1.3h-9.324a1.29 1.29 0 0 1 -1.271-1.3v-15.652a1.29 1.29 0 0 1 1.271-1.304h9.324a1.29 1.29 0 0 1 1.271 1.3v5.221a.43.43 0 0 0 .424.435z"/><path d="m143.175 234.667h-14.715a.46.46 0 1 0 0 .92h14.715a.46.46 0 1 0 0-.92z" transform="translate(-123.635 -225.127)"/><path d="m408.872 173.6-2.759-2.759a.46.46 0 0 0 -.65.65l2.434 2.434-2.434 2.434a.46.46 0 0 0 .65.651l2.759-2.759a.46.46 0 0 0 0-.651z" transform="translate(-389.007 -163.921)"/></g></svg>