<svg height="41" viewBox="0 0 41 41" width="41" xmlns="http://www.w3.org/2000/svg"><rect fill="#009345" height="41" rx="5" width="41"/><g fill="#fff" transform="translate(11 11)"><path d="m10.628 20h-1.256a1.843 1.843 0 0 1 -1.841-1.841v-.425a8.074 8.074 0 0 1 -1.254-.52l-.3.3a1.841 1.841 0 0 1 -2.6 0l-.887-.887a1.841 1.841 0 0 1 0-2.6l.3-.3a8.075 8.075 0 0 1 -.52-1.254h-.429a1.843 1.843 0 0 1 -1.841-1.845v-1.256a1.843 1.843 0 0 1 1.841-1.841h.425a8.076 8.076 0 0 1 .52-1.254l-.3-.3a1.841 1.841 0 0 1 0-2.6l.887-.887a1.841 1.841 0 0 1 2.6 0l.3.3a8.082 8.082 0 0 1 1.254-.52v-.429a1.843 1.843 0 0 1 1.845-1.841h1.255a1.843 1.843 0 0 1 1.841 1.841v.425a8.074 8.074 0 0 1 1.254.52l.3-.3a1.841 1.841 0 0 1 2.6 0l.887.887a1.841 1.841 0 0 1 0 2.6l-.3.3a8.075 8.075 0 0 1 .52 1.254h.425a1.843 1.843 0 0 1 1.846 1.845v1.255a1.843 1.843 0 0 1 -1.841 1.841h-.425a8.076 8.076 0 0 1 -.52 1.254l.3.3a1.841 1.841 0 0 1 0 2.6l-.887.887a1.841 1.841 0 0 1 -2.6 0l-.3-.3a8.082 8.082 0 0 1 -1.254.52v.425a1.843 1.843 0 0 1 -1.845 1.846zm-4.155-4.017a6.907 6.907 0 0 0 1.79.743.586.586 0 0 1 .44.567v.865a.67.67 0 0 0 .669.669h1.255a.67.67 0 0 0 .669-.669v-.865a.586.586 0 0 1 .44-.567 6.907 6.907 0 0 0 1.79-.743.586.586 0 0 1 .713.09l.613.613a.669.669 0 0 0 .946 0l.888-.888a.669.669 0 0 0 0-.946l-.613-.613a.586.586 0 0 1 -.09-.713 6.906 6.906 0 0 0 .743-1.79.586.586 0 0 1 .567-.439h.865a.67.67 0 0 0 .669-.669v-1.256a.67.67 0 0 0 -.669-.669h-.865a.586.586 0 0 1 -.567-.439 6.907 6.907 0 0 0 -.743-1.79.586.586 0 0 1 .09-.713l.613-.613a.669.669 0 0 0 0-.946l-.886-.888a.669.669 0 0 0 -.946 0l-.613.613a.586.586 0 0 1 -.713.09 6.907 6.907 0 0 0 -1.79-.743.586.586 0 0 1 -.44-.567v-.866a.67.67 0 0 0 -.669-.669h-1.257a.67.67 0 0 0 -.669.669v.865a.586.586 0 0 1 -.44.567 6.907 6.907 0 0 0 -1.79.743.586.586 0 0 1 -.713-.09l-.613-.613a.669.669 0 0 0 -.946 0l-.887.887a.669.669 0 0 0 0 .946l.613.613a.586.586 0 0 1 .09.713 6.906 6.906 0 0 0 -.743 1.79.586.586 0 0 1 -.567.439h-.866a.67.67 0 0 0 -.669.669v1.255a.67.67 0 0 0 .669.669h.865a.586.586 0 0 1 .567.439 6.907 6.907 0 0 0 .743 1.79.586.586 0 0 1 -.09.713l-.613.613a.669.669 0 0 0 0 .946l.888.888a.669.669 0 0 0 .946 0l.613-.613a.589.589 0 0 1 .713-.09z"/><path d="m149.145 153.69a4.545 4.545 0 1 1 4.545-4.545 4.55 4.55 0 0 1 -4.545 4.545zm0-7.866a3.321 3.321 0 1 0 3.321 3.321 3.325 3.325 0 0 0 -3.321-3.321z" transform="translate(-139.145 -139.145)"/></g></svg>