<svg height="20" viewBox="0 0 18 20" width="18" xmlns="http://www.w3.org/2000/svg"><g fill="#009345"><path d="m66.023 464h-1.686a.337.337 0 0 0 0 .674h1.686a.337.337 0 1 0 0-.674z" transform="translate(-62.989 -445.686)"/><path d="m128.674 464h-.337a.337.337 0 0 0 0 .674h.337a.337.337 0 1 0 0-.674z" transform="translate(-124.406 -445.686)"/><path d="m80.337 106.023h10.789a.337.337 0 0 0 .337-.337v-1.349a.337.337 0 0 0 -.337-.337h-10.789a.337.337 0 0 0 -.337.337v1.349a.337.337 0 0 0 .337.337zm.337-1.349h10.115v.674h-10.115z" transform="translate(-78.314 -100.148)"/><path d="m80.337 170.023h10.789a.337.337 0 0 0 .337-.337v-1.349a.337.337 0 0 0 -.337-.337h-10.789a.337.337 0 0 0 -.337.337v1.349a.337.337 0 0 0 .337.337zm.337-1.349h10.115v.674h-10.115z" transform="translate(-78.314 -161.58)"/><path d="m80.337 234.023h10.789a.337.337 0 0 0 .337-.337v-1.349a.337.337 0 0 0 -.337-.337h-10.789a.337.337 0 0 0 -.337.337v1.349a.337.337 0 0 0 .337.337zm.337-1.349h10.115v.674h-10.115z" transform="translate(-78.314 -223.011)"/><path d="m86.743 296h-6.406a.337.337 0 0 0 0 .674h6.406a.337.337 0 0 0 0-.674z" transform="translate(-78.314 -284.405)"/><path d="m84.72 320h-4.383a.337.337 0 0 0 0 .674h4.383a.337.337 0 0 0 0-.674z" transform="translate(-78.314 -307.438)"/><path d="m81.011 344.674a.337.337 0 1 0 0-.674h-.674a.337.337 0 0 0 0 .674z" transform="translate(-78.314 -330.472)"/><path d="m120.674 344.674a.337.337 0 1 0 0-.674h-.337a.337.337 0 1 0 0 .674z" transform="translate(-116.733 -330.472)"/><path d="m58 23.161a3.9 3.9 0 0 0 -3.6-3.861v-8.4a.32.32 0 0 0 -.1-.228l-2.614-2.578a.33.33 0 0 0 -.231-.094h-11.128a.325.325 0 0 0 -.327.323v19.354a.325.325 0 0 0 .327.323h13.746a.325.325 0 0 0 .327-.323v-.659a3.9 3.9 0 0 0 3.6-3.857zm-6.218-14.061 1.5 1.479h-1.5zm-11.127 18.255v-18.71h10.472v2.255a.325.325 0 0 0 .327.323h2.291v8.077a3.867 3.867 0 0 0 0 7.715v.336zm13.418-.968a3.226 3.226 0 1 1 3.273-3.226 3.25 3.25 0 0 1 -3.273 3.226z" transform="translate(-40 -8)"/><path d="m340.62 352.1a.337.337 0 0 0 -.477 0l-2.174 2.174-1.46-.876a.337.337 0 1 0 -.347.578l1.686 1.011a.337.337 0 0 0 .412-.051l2.36-2.36a.337.337 0 0 0 0-.476z" transform="translate(-324.068 -338.235)"/></g></svg>