<svg height="21" viewBox="0 0 17.001 21" width="17.001" xmlns="http://www.w3.org/2000/svg"><g fill="#009345"><path d="m60.876 220.526a6.508 6.508 0 0 1 -.993 1.01 7.127 7.127 0 0 1 3.589 6.182c0 1.428-3.128 2.546-7.122 2.546s-7.122-1.118-7.122-2.546a7.127 7.127 0 0 1 3.589-6.182 6.51 6.51 0 0 1 -.993-1.01 8.5 8.5 0 0 0 -3.975 7.192c0 .916.5 2.193 2.892 3.073a16.845 16.845 0 0 0 5.608.851 16.845 16.845 0 0 0 5.608-.851c2.39-.88 2.892-2.157 2.892-3.073a8.5 8.5 0 0 0 -3.973-7.192z" transform="translate(-47.85 -210.643)"/><path d="m132.327 11.3c2.679 0 4.742-2.59 4.742-5.652s-2.069-5.648-4.742-5.648-4.742 2.59-4.742 5.652 2.064 5.648 4.742 5.648zm0-9.925c1.855 0 3.363 1.917 3.363 4.273s-1.509 4.273-3.363 4.273-3.363-1.917-3.363-4.273 1.508-4.27 3.363-4.27z" transform="translate(-123.827)"/></g></svg>