<svg height="91" viewBox="0 0 94 91" width="94" xmlns="http://www.w3.org/2000/svg"><g fill="#fff" opacity=".26"><path d="m48.5 90.5h-3c-6.07517624 0-11.96837616-1.18972778-17.51587486-3.53610992-5.35851288-2.26646424-10.17105103-5.51119996-14.30392552-9.64408112-4.13288688-4.13288116-7.37762451-8.94541931-9.64408731-14.30393219-2.34638727-5.54750061-3.53611231-11.44068909-3.53611231-17.51587677s1.18972504-11.96837616 3.53611231-17.51587486c2.2664628-5.35851288 5.51120043-10.17105103 9.64408731-14.30393791 4.13287449-4.13287449 8.94541264-7.37761212 14.30392552-9.64407492 5.5474987-2.34638727 11.44069862-3.53611231 17.51587486-3.53611231h3c6.07518768 0 11.96837616 1.18972504 17.51587677 3.53611231 5.35851288 2.2664628 10.17105103 5.51120043 14.30393219 9.64407492 4.13288116 4.13288688 7.37761688 8.94542503 9.64408112 14.30393791 2.34638214 5.5474987 3.53610992 11.44068718 3.53610992 17.51587486s-1.18972778 11.96837616-3.53610992 17.51587677c-2.26646424 5.35851288-5.51119996 10.17105103-9.64408112 14.30393219s-8.94541931 7.37761688-14.30393219 9.64408112c-5.54750061 2.34638214-11.44068909 3.53610992-17.51587677 3.53610992z"/><path d="m45.5 1c-6.00790024 0-11.83556366 1.17643738-17.32109833 3.49662781-5.29891205 2.24123382-10.05802917 5.44999695-14.14514923 9.53712463-4.08712768 4.08712006-7.29589081 8.84623718-9.53712463 14.14514923-2.32019043 5.48553467-3.49662781 11.31319809-3.49662781 17.32109833s1.17643738 11.83556366 3.49662781 17.32109833c2.24123382 5.29891205 5.44999695 10.05802917 9.53712463 14.14514923 4.08712006 4.08712768 8.84623718 7.29589081 14.14514923 9.53712463 5.48553467 2.32019043 11.31319809 3.49662781 17.32109833 3.49662781h3c6.00790024 0 11.83556366-1.17643738 17.32109833-3.49662781 5.29891205-2.24123382 10.05802917-5.44999695 14.14514923-9.53712463 4.08712768-4.08712006 7.29589081-8.84623718 9.53712463-14.14514923 2.32019043-5.48553467 3.49662781-11.31319809 3.49662781-17.32109833s-1.17643738-11.83556366-3.49662781-17.32109833c-2.24123382-5.29891205-5.44999695-10.05802917-9.53712463-14.14514923-4.08712006-4.08712768-8.84623718-7.29589081-14.14514923-9.53712463-5.48553467-2.32019043-11.31319809-3.49662781-17.32109833-3.49662781zm0-1h3c25.12895966 0 45.5 20.37104034 45.5 45.5s-20.37104034 45.5-45.5 45.5h-3c-25.12895966 0-45.5-20.37104034-45.5-45.5s20.37104034-45.5 45.5-45.5z" fill="#747474"/></g><g fill="#009345"><path d="m189.335 199.492a3.616 3.616 0 1 1 -5.113 0 3.616 3.616 0 0 1 5.113 0" transform="translate(-139.845 -155.65)"/><path d="m25.309 34.138h-2.5l-1.809-3.616h-13.079l-1.807 3.618h-2.495a3.622 3.622 0 0 0 -3.609 3.618l-.01 14.458a3.62 3.62 0 0 0 3.616 3.617h21.693a3.619 3.619 0 0 0 3.616-3.616v-14.464a3.619 3.619 0 0 0 -3.616-3.615zm-10.847 17.175a7.232 7.232 0 1 1 7.232-7.232 7.24 7.24 0 0 1 -7.232 7.232z" transform="translate(32.471 2.318)"/></g></svg>