<svg height="171" viewBox="0 0 171 171" width="171" xmlns="http://www.w3.org/2000/svg"><circle cx="85.5" cy="85.5" fill="#f9f9f9" r="85.5"/><path d="m76.79 40.955 9.66-5.922a4.954 4.954 0 0 0 -.3-.623 5.758 5.758 0 0 0 -1.506-1.738l-7.85-5.953-20.394-15.485-7.965-6.04a5.821 5.821 0 0 0 -7.01 0l-7.965 6.04-20.394 15.484-7.85 5.953a5.758 5.758 0 0 0 -1.506 1.739 4.8 4.8 0 0 0 -.55 1.318l41.04 24.9z" fill="#84be39" opacity=".65" transform="translate(41.072 40.98)"/><path d="m73.72 24.485v-12.585a2.9 2.9 0 0 0 -2.9-2.9h-57.92a2.9 2.9 0 0 0 -2.9 2.9v27.6l31.127 18.89 32.593-19.669z" fill="#c6e0a5" transform="translate(44.14 43.214)"/><path d="m44.2 50.807-41.04-24.897 9.906 6.01 71.718 43.515z" fill="none" transform="translate(41.072 50.261)"/><g fill="#8bc53f"><path d="m31.494 43.1 40.6 24.628z" transform="translate(53.766 57.971)"/><path d="m54 31.352 9.662-5.922z" transform="translate(63.861 50.046)"/><path d="m64.095 31.352-32.6 19.674 40.595 24.624a5.733 5.733 0 0 0 2.144-4.49v-43.47a5.454 5.454 0 0 0 -.478-2.26z" transform="translate(53.766 50.046)"/><path d="m13.138 31.921-9.906-6.011a5.116 5.116 0 0 0 -.232 1.564v43.47a5.794 5.794 0 0 0 5.793 5.794h72.413a5.792 5.792 0 0 0 3.65-1.3l-71.718-43.518z" transform="translate(41 50.261)"/></g><path d="m32.753 43.862 38.773 23.521z" fill="none" transform="translate(54.33 58.313)"/><path d="m51.213 55.06 12.033 7.3z" fill="none" transform="translate(62.61 63.336)"/><path d="m64.912 25.43-9.662 5.922v28.22a11.552 11.552 0 0 1 -4.037 8.778l12.033 7.3a5.733 5.733 0 0 0 2.144-4.49v-43.47a5.454 5.454 0 0 0 -.478-2.26z" fill="#84be39" transform="translate(62.61 50.046)"/><path d="m65.275 57.87h-62.275a5.794 5.794 0 0 0 5.793 5.794h72.413a5.792 5.792 0 0 0 3.65-1.3l-12.031-7.3a11.531 11.531 0 0 1 -7.55 2.81z" fill="#84be39" transform="translate(41 63.336)"/></svg>