<svg height="23" viewBox="0 0 23 23" width="23" xmlns="http://www.w3.org/2000/svg"><g fill="#009345"><path d="m415.928 376.909a.923.923 0 0 0 -1.291.19c-.167.225-.346.446-.532.656a.923.923 0 1 0 1.383 1.223c.22-.249.432-.51.63-.777a.923.923 0 0 0 -.19-1.292z" transform="translate(-395.402 -359.86)"/><path d="m463.869 286.446a.923.923 0 0 0 -1.1.706c-.06.274-.132.548-.214.816a.923.923 0 1 0 1.764.545c.1-.317.184-.643.254-.968a.923.923 0 0 0 -.704-1.099z" transform="translate(-441.799 -273.604)"/><path d="m335.323 442.311c-.245.137-.5.265-.754.38a.923.923 0 1 0 .76 1.682c.3-.137.6-.288.894-.451a.923.923 0 1 0 -.9-1.612z" transform="translate(-319.073 -422.415)"/><path d="m160.458 76.923v7l-3.384 3.384a.923.923 0 0 0 1.305 1.305l3.655-3.655a.923.923 0 0 0 .27-.653v-7.381a.923.923 0 1 0 -1.846 0z" transform="translate(-149.818 -72.493)"/><path d="m22.1 1.932a.9.9 0 0 0 -.9.9v2.493a11.5 11.5 0 1 0 -9.7 17.675h.045c.324 0 .651-.014.972-.041a.9.9 0 1 0 -.15-1.791c-.272.023-.548.034-.822.034h-.045a9.7 9.7 0 1 1 8.353-14.643h-2.47a.9.9 0 0 0 0 1.8h2.743a2.858 2.858 0 0 0 1.495-.42.9.9 0 0 0 .081-.052 2.874 2.874 0 0 0 1.298-2.407v-2.65a.9.9 0 0 0 -.9-.898z"/></g></svg>