<svg height="41" viewBox="0 0 41 41" width="41" xmlns="http://www.w3.org/2000/svg"><g fill="#009345"><rect height="41" rx="5" width="41"/><path d="m18.067 13.21-2.517-2.51a1.676 1.676 0 0 0 -2.787.628 1.714 1.714 0 0 1 -1.978 1.072 7.754 7.754 0 0 1 -4.675-4.662 1.625 1.625 0 0 1 1.079-1.974 1.669 1.669 0 0 0 .629-2.781l-2.518-2.512a1.8 1.8 0 0 0 -2.427 0l-1.708 1.7c-1.708 1.794.18 6.549 4.405 10.766s8.99 6.19 10.788 4.4l1.708-1.7a1.789 1.789 0 0 0 .001-2.427z" stroke="#fff" transform="translate(11.461 11)"/></g></svg>