<svg height="23" viewBox="0 0 26 23" width="26" xmlns="http://www.w3.org/2000/svg"><g fill="#009345"><path d="m23.3 22.856h-1.628v-1.284a.677.677 0 0 0 -1.355 0v1.284h-6.636v-1.284a.677.677 0 0 0 -1.355 0v1.284h-6.7v-1.284a.677.677 0 0 0 -1.355 0v1.284h-1.571a2.73 2.73 0 0 0 -2.7 2.723v15.632a2.693 2.693 0 0 0 2.7 2.689h20.6a2.691 2.691 0 0 0 2.7-2.683v-15.638a2.72 2.72 0 0 0 -2.7-2.723zm1.348 18.354a1.346 1.346 0 0 1 -1.341 1.345h-20.607a1.342 1.342 0 0 1 -1.348-1.338v-15.638a1.372 1.372 0 0 1 1.348-1.379h1.567v.975a.677.677 0 0 0 1.355 0v-.975h6.7v.975a.677.677 0 0 0 1.355 0v-.975h6.637v.975a.677.677 0 0 0 1.355 0v-.975h1.631a1.372 1.372 0 0 1 1.348 1.378z" transform="translate(0 -20.9)"/><path d="m140.1 135h-1.212a.693.693 0 1 0 0 1.385h1.212a.693.693 0 1 0 0-1.385z" transform="translate(-128.863 -127.343)"/><path d="m209.7 135h-1.212a.693.693 0 0 0 0 1.385h1.212a.693.693 0 1 0 0-1.385z" transform="translate(-193.761 -127.343)"/><path d="m279.9 135h-1.212a.693.693 0 1 0 0 1.385h1.212a.693.693 0 0 0 0-1.385z" transform="translate(-259.219 -127.343)"/><path d="m140.1 204h-1.212a.693.693 0 1 0 0 1.385h1.212a.693.693 0 1 0 0-1.385z" transform="translate(-128.863 -191.713)"/><path d="m69.912 204h-1.219a.693.693 0 1 0 0 1.385h1.207a.693.693 0 0 0 .012-1.385z" transform="translate(-63.406 -191.713)"/><path d="m209.7 204h-1.212a.693.693 0 0 0 0 1.385h1.212a.693.693 0 1 0 0-1.385z" transform="translate(-193.761 -191.713)"/><path d="m279.9 204h-1.212a.693.693 0 1 0 0 1.385h1.212a.693.693 0 0 0 0-1.385z" transform="translate(-259.219 -191.713)"/><path d="m140.1 272h-1.212a.693.693 0 1 0 0 1.385h1.212a.693.693 0 1 0 0-1.385z" transform="translate(-128.863 -255.15)"/><path d="m69.912 272h-1.219a.693.693 0 1 0 0 1.385h1.207a.693.693 0 0 0 .012-1.385z" transform="translate(-63.406 -255.15)"/><path d="m209.7 272h-1.212a.693.693 0 1 0 0 1.385h1.212a.693.693 0 1 0 0-1.385z" transform="translate(-193.761 -255.15)"/></g></svg>