<svg height="40" viewBox="0 0 40 40" width="40" xmlns="http://www.w3.org/2000/svg"><rect fill="#009345" height="40" rx="8" width="40"/><g fill="#fff" transform="translate(9 -60.537)"><path d="m20.689 73.537h-14.13a.42.42 0 1 0 0 .84h14.13a.429.429 0 0 1 .436.42v9.928a.429.429 0 0 1 -.436.42h-7.64a.443.443 0 0 0 -.343.16l-1.76 2.147-1.867-2.152a.443.443 0 0 0 -.335-.151h-7.435a.429.429 0 0 1 -.436-.42v-9.929a.429.429 0 0 1 .436-.42h1.66a.42.42 0 1 0 0-.84h-1.66a1.287 1.287 0 0 0 -1.309 1.26v9.928a1.287 1.287 0 0 0 1.309 1.26h7.231l2.08 2.4a.45.45 0 0 0 .678-.009l1.962-2.393h7.429a1.287 1.287 0 0 0 1.311-1.261v-9.925a1.287 1.287 0 0 0 -1.311-1.263z"/><path d="m54.909 159.66a.436.436 0 0 0 .079.413l.85 1.026-.084 1.329c-.066 1.041 1.5-.065 1.834-.058s1.9 1.087 1.834.058l-.084-1.329.85-1.026a.442.442 0 0 0 -.228-.7l-1.29-.33-.713-1.125a.442.442 0 0 0 -.737 0l-.713 1.125-1.29.33a.436.436 0 0 0 -.308.287zm1.981.184c.323-.083.535-.622.7-.879.16.252.378.8.7.879l.791.2-.521.629a.436.436 0 0 0 -.1.306l.052.815-.759-.3a.436.436 0 0 0 -.322 0l-.759.3.052-.815a.436.436 0 0 0 -.1-.306l-.521-.629z" transform="translate(-52.492 -80.714)"/><path d="m194.569 159.66a.436.436 0 0 0 -.307-.288l-1.29-.33-.713-1.125a.442.442 0 0 0 -.737 0l-.713 1.125-1.29.33a.436.436 0 0 0 -.228.7l.85 1.026-.084 1.329c-.066 1.041 1.5-.065 1.834-.058s1.9 1.087 1.834.058l-.084-1.329.85-1.026a.436.436 0 0 0 .078-.412zm-1.711 1.015a.436.436 0 0 0 -.1.306l.052.815a1.441 1.441 0 0 0 -1.84 0l.052-.815a.436.436 0 0 0 -.1-.306l-.521-.629.791-.2c.323-.083.535-.622.7-.879.16.252.378.8.7.879l.791.2z" transform="translate(-180.935 -80.713)"/><path d="m328.952 159.66a.436.436 0 0 0 -.307-.288l-1.29-.33-.713-1.125a.442.442 0 0 0 -.737 0l-.713 1.125-1.29.33a.442.442 0 0 0 -.228.7l.85 1.026-.084 1.329c-.066 1.041 1.5-.065 1.834-.058s1.9 1.088 1.834.058l-.084-1.329.85-1.026a.436.436 0 0 0 .078-.412zm-1.711 1.015a.436.436 0 0 0 -.1.306l.052.815-.759-.3a.436.436 0 0 0 -.322 0l-.759.3.052-.815a.436.436 0 0 0 -.1-.306l-.521-.629.791-.2c.323-.083.535-.622.7-.879.16.252.378.8.7.879l.791.2z" transform="translate(-309.458 -80.713)"/><path d="m99.62 74.34a.436.436 0 1 0 -.165-.519.439.439 0 0 0 .165.519z" transform="translate(-95.089 -.004)"/></g></svg>