<svg height="19" viewBox="0 0 19 19" width="19" xmlns="http://www.w3.org/2000/svg"><g fill="#070707"><path d="m17.426 49.127a.47.47 0 0 0 -.47.47v4.173a1.412 1.412 0 0 1 -1.411 1.41h-13.194a1.412 1.412 0 0 1 -1.411-1.41v-12.248a1.412 1.412 0 0 1 1.411-1.41h4.175a.47.47 0 1 0 0-.94h-4.175a2.353 2.353 0 0 0 -2.351 2.35v12.248a2.353 2.353 0 0 0 2.351 2.35h13.194a2.353 2.353 0 0 0 2.355-2.35v-4.17a.47.47 0 0 0 -.47-.47zm0 0" transform="translate(0 -37.12)"/><path d="m122.347.956a2.373 2.373 0 0 0 -3.356 0l-9.409 9.409a.527.527 0 0 0 -.135.232l-1.237 4.467a.527.527 0 0 0 .649.649l4.467-1.238a.527.527 0 0 0 .232-.135l9.409-9.409a2.376 2.376 0 0 0 0-3.356zm-11.616 9.752 7.7-7.7 2.483 2.483-7.7 7.7zm-.5 1 1.984 1.984-2.744.76zm11.989-7.523-.559.559-2.484-2.484.56-.559a1.318 1.318 0 0 1 1.864 0l.619.619a1.32 1.32 0 0 1 0 1.865zm0 0" transform="translate(-104.66 -.261)"/></g></svg>