<svg height="17" viewBox="0 0 17 17" width="17" xmlns="http://www.w3.org/2000/svg"><g fill="#009345"><path d="m327.3 2.729h-2.219v-2.219a.509.509 0 1 0 -1.019 0v2.219h-2.219a.51.51 0 1 0 0 1.019h2.219v2.219a.509.509 0 1 0 1.019 0v-2.219h2.219a.51.51 0 0 0 0-1.019z" transform="translate(-310.81)"/><path d="m5.967 321.334a5.974 5.974 0 0 0 -5.967 5.966.51.51 0 0 0 .51.509h10.914a.51.51 0 0 0 .51-.509 5.974 5.974 0 0 0 -5.967-5.966z" transform="translate(0 -310.81)"/><path d="m83.572 64.267a3.238 3.238 0 1 0 3.238 3.238 3.242 3.242 0 0 0 -3.238-3.238z" transform="translate(-77.703 -62.084)"/></g></svg>