<svg height="16.001" viewBox="0 0 16 16.001" width="16" xmlns="http://www.w3.org/2000/svg"><g fill="#009345"><path d="m5.64 183.62-1.885 1.885a2 2 0 1 1 -2.829-2.828l3.774-3.771a2 2 0 0 1 2.828 0 .667.667 0 0 0 .943-.943 3.333 3.333 0 0 0 -4.714 0l-3.771 3.771a3.333 3.333 0 1 0 4.714 4.714l1.885-1.885a.667.667 0 0 0 -.943-.943z" transform="translate(.993 -171.424)"/><path d="m198.993-.024a3.334 3.334 0 0 0 -4.714 0l-2.262 2.262a.667.667 0 0 0 .943.943l2.261-2.262a2 2 0 0 1 2.829 2.828l-4.15 4.148a2 2 0 0 1 -2.828 0 .667.667 0 1 0 -.943.943 3.333 3.333 0 0 0 4.714 0l4.148-4.148a3.333 3.333 0 0 0 .002-4.714z" transform="translate(-183.969 1)"/></g></svg>