<svg height="40" viewBox="0 0 40 40" width="40" xmlns="http://www.w3.org/2000/svg"><rect fill="#009345" height="40" rx="8" width="40"/><g fill="#fff" transform="translate(8 8)"><path d="m6.469 40.843v-4.843h-.734v4.843a1.1 1.1 0 1 0 .735 0zm-.367 1.4a.367.367 0 1 1 .367-.367.367.367 0 0 1 -.369.368z" transform="translate(-2.531 -22.917)"/><path d="m12.1 36a1.1 1.1 0 0 0 -.367 2.136v4.843h.735v-4.843a1.1 1.1 0 0 0 -.368-2.136zm0 1.469a.367.367 0 1 1 .367-.367.367.367 0 0 1 -.367.367z" transform="translate(-6.465 -22.917)"/><path d="m50.469 40.843v-4.843h-.735v4.843a1.1 1.1 0 1 0 .735 0zm-.367 1.4a.367.367 0 1 1 .367-.367.367.367 0 0 1 -.369.368z" transform="translate(-31.142 -22.917)"/><path d="m56.1 36a1.1 1.1 0 0 0 -.367 2.136v4.843h.735v-4.843a1.1 1.1 0 0 0 -.368-2.136zm0 1.469a.367.367 0 1 1 .367-.367.367.367 0 0 1 -.367.367z" transform="translate(-34.938 -22.917)"/><path d="m16.258 12.355a1.059 1.059 0 0 0 -.4.078 1.055 1.055 0 0 0 -1.733-.511 1.032 1.032 0 0 0 -1.065-.211v-3.054a3.916 3.916 0 0 0 2.793-3.179l1.5.825a3.483 3.483 0 1 0 .721-.414l-2.186-1.2a3.9 3.9 0 0 0 -7.784 0l-2.182 1.201a3.588 3.588 0 1 0 .721.413l1.5-.825a3.914 3.914 0 0 0 2.793 3.18v6.542a1.064 1.064 0 0 1 -.109.468l-.3-1.488a2.294 2.294 0 0 0 -2.24-1.84.9.9 0 0 0 -.748 1.4l.365.548a1.583 1.583 0 0 1 .253.679l.243 1.961a2.41 2.41 0 0 0 .3.9l1.172 2.411v.628h-.71v2.133h7.806v-2.129h-.71v-.592l.568-.757a2.5 2.5 0 0 0 .5-1.49v-4.613a1.066 1.066 0 0 0 -1.065-1.065zm3.194-.355a2.82 2.82 0 0 1 -1.7-.571 2.128 2.128 0 0 1 3.4 0 2.82 2.82 0 0 1 -1.7.571zm-1.065-3.194a1.065 1.065 0 1 1 1.065 1.065 1.066 1.066 0 0 1 -1.065-1.065zm1.065-2.484a2.836 2.836 0 0 1 2.211 4.614 2.837 2.837 0 0 0 -1.04-.808 1.774 1.774 0 1 0 -2.343 0 2.841 2.841 0 0 0 -1.04.808 2.836 2.836 0 0 1 2.211-4.614zm-14.904 5.678a2.82 2.82 0 0 1 -1.7-.571 2.128 2.128 0 0 1 3.4 0 2.82 2.82 0 0 1 -1.7.571zm-1.064-3.194a1.065 1.065 0 1 1 1.064 1.065 1.066 1.066 0 0 1 -1.064-1.065zm3.9.355a2.822 2.822 0 0 1 -.627 1.776 2.837 2.837 0 0 0 -1.04-.808 1.774 1.774 0 1 0 -2.343 0 2.841 2.841 0 0 0 -1.04.808 2.838 2.838 0 1 1 5.05-1.776zm1.422-4.261a3.194 3.194 0 1 1 5.734 1.931 2.826 2.826 0 0 0 -1.364-1.319 1.774 1.774 0 1 0 -2.352 0 2.826 2.826 0 0 0 -1.364 1.319 3.185 3.185 0 0 1 -.654-1.931zm4.258-.71a1.065 1.065 0 1 1 -1.064-1.061 1.066 1.066 0 0 1 1.065 1.065zm-3.064 3.198a2.119 2.119 0 0 1 4 0 3.166 3.166 0 0 1 -1.064.569 1.055 1.055 0 0 0 -1.873 0 3.169 3.169 0 0 1 -1.063-.569zm6.259 14.9h-6.388v-.71h6.387zm.355-4.258a1.784 1.784 0 0 1 -.355 1.065l-.71.946v.828h-4.968v-.789l-1.255-2.58a1.752 1.752 0 0 1 -.22-.66l-.246-1.962a2.292 2.292 0 0 0 -.366-.985l-.365-.548a.19.19 0 0 1 .158-.3 1.582 1.582 0 0 1 1.547 1.268l.456 2.287h.865l.3-.606a1.784 1.784 0 0 0 .187-.793v-6.749a.355.355 0 0 1 .71 0v5.677h.71v-1.419a.355.355 0 1 1 .71 0v1.419h.71v-1.419a.355.355 0 1 1 .71 0v1.419h.71v-.71a.355.355 0 1 1 .71 0z"/></g></svg>