<svg height="30" viewBox="0 0 32 30" width="32" xmlns="http://www.w3.org/2000/svg"><g fill="#8bc53f" transform="translate(0 -18.4)"><path d="m26.025 26.235a9.407 9.407 0 0 0 -2.889-5.373 9.166 9.166 0 0 0 -11.278-.962 9.3 9.3 0 0 0 -3.007 3.21 5.238 5.238 0 0 0 -.974-.093 5.117 5.117 0 0 0 -5.077 5.147 5.7 5.7 0 0 0 .105 1.068 7.193 7.193 0 0 0 -2.905 5.773 7.718 7.718 0 0 0 1.915 5.066 6.8 6.8 0 0 0 4.738 2.416h5.712a.9.9 0 0 0 0-1.8h-5.633a5.655 5.655 0 0 1 -4.955-5.687 5.364 5.364 0 0 1 2.612-4.605.915.915 0 0 0 .388-1.095 3.358 3.358 0 0 1 3.1-4.492 3.2 3.2 0 0 1 1.125.2.888.888 0 0 0 1.112-.461 7.468 7.468 0 0 1 14.233 2.5.9.9 0 0 0 .737.8 6.509 6.509 0 0 1 -.605 12.828h-4.85a.9.9 0 0 0 0 1.8h4.948a7.832 7.832 0 0 0 5.277-2.643 8.358 8.358 0 0 0 -3.83-13.6z"/><path d="m169.3 191.714a.9.9 0 0 0 0-1.275l-4.772-4.772a.912.912 0 0 0 -.634-.267.884.884 0 0 0 -.634.267l-4.772 4.772a.9.9 0 0 0 .634 1.542.879.879 0 0 0 .634-.267l3.244-3.237v14.877a.9.9 0 1 0 1.8 0v-14.877l3.237 3.237a.89.89 0 0 0 1.263 0z" transform="translate(-147.893 -155.854)"/></g></svg>