<svg height="133" viewBox="0 0 133 133" width="133" xmlns="http://www.w3.org/2000/svg" xmlns:xlink="http://www.w3.org/1999/xlink"><linearGradient id="a" gradientUnits="objectBoundingBox" x1=".5" x2=".5" y1=".003" y2="1.001"><stop offset="0" stop-color="#8bc53f"/><stop offset="1" stop-color="#006838"/></linearGradient><path d="m731.455 128.969a10.43 10.43 0 0 0 -6.92-2.721c-5.832 0-9.37 4.432-9.37 10.031 0 4.471 2.6 9.1 9.37 9.1a9.053 9.053 0 0 0 6.143-2.177v-4.821h-6.959v-4.588h11.663v11.467a13.556 13.556 0 0 1 -10.847 4.9c-10.226 0-14.386-6.727-14.386-13.88 0-7.659 4.782-14.735 14.386-14.735a14.371 14.371 0 0 1 10.108 4.16z" fill="#009345" transform="translate(-710.149 -17.159)"/><path d="m763.337 149.537h-6.1l-7.931-9.1h-4.938v9.1h-5.132v-27.255c4.316 0 8.631.039 12.947.039 6.415.039 9.8 4.315 9.8 9.02 0 3.733-1.711 7.5-6.881 8.554l8.242 9.292zm-18.973-22.437v8.709h7.815c3.265 0 4.666-2.177 4.666-4.354s-1.439-4.355-4.666-4.355z" fill="#009345" transform="translate(-710.224 -17.159)"/><path d="m785.732 149.537h-20.373v-27.216h20.373v4.979h-15.279v6.259h14.735v4.783h-14.735v6.142h15.279z" fill="#009345" transform="translate(-710.287 -17.159)"/><path d="m811.821 130.214a5.536 5.536 0 0 1 -3.538 5.249c3.189.971 4.355 4.354 4.355 6.065 0 6.064-4.549 8.009-10.187 8.009h-12.907v-27.216h12.907c5.365 0 9.37 2.411 9.37 7.893zm-17.221 3.033h7.854c3.228 0 4.277-1.362 4.277-2.916 0-1.244-1.01-3.344-4.277-3.344h-7.854zm0 11.508h7.854c2.1 0 5.094-.7 5.094-3.266 0-2.449-2.994-3.732-5.094-3.732h-7.854z" fill="#009345" transform="translate(-710.353 -17.159)"/><path d="m843.431 136.085c-.078 7.037-4.393 14.074-13.958 14.074s-14-6.882-14-14.035 4.587-14.347 14-14.347c9.371 0 14.036 7.192 13.958 14.308zm-22.9.116c.117 4.472 2.527 9.254 8.942 9.254s8.827-4.822 8.9-9.292c.078-4.588-2.488-9.721-8.9-9.721s-9.058 5.171-8.942 9.758z" fill="#009345" transform="translate(-710.432 -17.159)"/><path d="m803.057 114.308h-52.816a22.318 22.318 0 0 1 -22.285-22.351v-53.377a22.321 22.321 0 0 1 22.285-22.351h52.815a22.321 22.321 0 0 1 22.287 22.351v53.377a22.318 22.318 0 0 1 -22.286 22.351z" fill="url(#a)" transform="translate(-710.149 -16.229)"/><g fill="#fff"><ellipse cx="66.53" cy="48.781" rx="34.87" ry="35.011"/><path d="m768.835 68.329-18.29 16.62c-.21-.27-.41-.55-.62-.83l18.22-16.56z" transform="translate(-710.228 -16.229)"/><path d="m770.535 70.009-18.47 16.791c-.23-.26-.46-.52-.68-.79l18.45-16.77z" transform="translate(-710.233 -16.229)"/><path d="m772.225 71.689-18.52 16.84c-.25-.24-.49-.48-.73-.74l18.56-16.87z" transform="translate(-710.239 -16.229)"/><path d="m789.525 68.929-26.59 26c-.32-.15-.64-.3-.96-.47l26.85-26.25z" transform="translate(-710.286 -16.229)"/><path d="m791.275 70.449-26.04 25.451c-.35-.13-.69-.27-1.02-.41l26.36-25.75z" transform="translate(-710.294 -16.229)"/><path d="m793.015 71.969-25.31 24.74q-.555-.15-1.08-.33l25.69-25.12z" transform="translate(-710.303 -16.229)"/></g><path d="m809.8 65.01a32.848 32.848 0 0 1 -2.636 12.933l-11.9-11.791-.15-.143c-5.449-4.6-10.839-2.845-12.927-1.279l-5.3 4.965-4.987-4.815c-4.092-4.092-9.24-2.3-11.706-.1l-13.594 13.45a32.984 32.984 0 1 1 63.2-13.22z" fill="#009345" transform="translate(-710.291 -16.229)"/><path d="m805.978 80.436a33.041 33.041 0 0 1 -36.456 16.75l-.007-.066 21.233-20.358a4.541 4.541 0 1 0 -6.3-6.538l-24.1 23.366a32.465 32.465 0 0 1 -5.429-3.915l14.368-13.363a4.359 4.359 0 1 0 -5.938-6.382l-14.114 13.17q-.763-1.166-1.429-2.388l14.134-13.986s4.287-3.837 8.124 0l6.792 6.578 6.9-6.486s4.379-3.289 9.677 1.187z" fill="#8bc53f" transform="translate(-710.291 -16.229)"/><path d="m768.835 68.329-18.29 16.62c-.21-.27-.41-.55-.62-.83l18.22-16.56z" fill="#8bc53f" transform="translate(-710.263 -16.229)"/><path d="m770.535 70.009-18.47 16.791c-.23-.26-.46-.52-.68-.79l18.45-16.77z" fill="#8bc53f" transform="translate(-710.263 -16.229)"/><path d="m772.225 71.689-18.52 16.84c-.25-.24-.49-.48-.73-.74l18.56-16.87z" fill="#8bc53f" transform="translate(-710.263 -16.229)"/><path d="m789.525 68.929-26.59 26c-.32-.15-.64-.3-.96-.47l26.85-26.25z" fill="#8bc53f" transform="translate(-710.263 -16.229)"/><path d="m791.275 70.449-26.04 25.451c-.35-.13-.69-.27-1.02-.41l26.36-25.75z" fill="#8bc53f" transform="translate(-710.263 -16.229)"/><path d="m793.015 71.969-25.31 24.74q-.555-.15-1.08-.33l25.69-25.12z" fill="#8bc53f" transform="translate(-710.263 -16.229)"/></svg>