<svg height="48" viewBox="0 0 89 48" width="89" xmlns="http://www.w3.org/2000/svg"><rect fill="#1e1f20" height="48" rx="24" width="89"/><g fill="#fff"><path d="m51.327 133.323c-2.9-.017-5.3-6.083-5.3-9.172 0-5.046 3.7-6.151 5.124-6.151a5.786 5.786 0 0 1 1.933.487 4.245 4.245 0 0 0 1.1.324 3.379 3.379 0 0 0 .792-.263 6.229 6.229 0 0 1 2.387-.591h.006a4.849 4.849 0 0 1 4.094 2.116l.3.459-.43.332a3.713 3.713 0 0 0 -1.734 3.052 3.448 3.448 0 0 0 1.878 3.184c.269.166.547.336.547.71 0 .244-1.9 5.481-4.664 5.481a3.682 3.682 0 0 1 -1.575-.391 3.135 3.135 0 0 0 -1.4-.346 3.54 3.54 0 0 0 -1.11.307 5.334 5.334 0 0 1 -1.925.46z" transform="translate(-10.022 -99.323)"/><path d="m258.934 0c.074 2.675-1.839 4.53-3.749 4.414a4.262 4.262 0 0 1 3.749-4.414z" transform="translate(-211.261 14)"/></g></svg>