<svg height="48" viewBox="0 0 89 48" width="89" xmlns="http://www.w3.org/2000/svg"><g fill="#fff" stroke="#163404" stroke-width=".5"><rect height="48" rx="24" stroke="none" width="89"/><rect fill="none" height="47.5" rx="23.75" width="88.5" x=".25" y=".25"/></g><path d="m4.475 105.978a4.969 4.969 0 0 1 .713-2.57v-3.193h-3.218a9.413 9.413 0 0 0 0 11.525h3.219v-3.193a4.969 4.969 0 0 1 -.714-2.569z" fill="#fbbd00" transform="translate(35 -81.478)"/><path d="m198.238 373.671-2.238 2.238 2.238 2.238a9.475 9.475 0 0 0 5.81-1.97v-3.215h-3.215a5.071 5.071 0 0 1 -2.595.709z" fill="#0f9d58" transform="translate(-153.753 -344.146)"/><path d="m56.042 325.477-3.219 3.223a9.7 9.7 0 0 0 .826.941 9.485 9.485 0 0 0 6.751 2.8v-4.475a5.074 5.074 0 0 1 -4.358-2.489z" fill="#31aa52" transform="translate(-15.853 -298.433)"/><path d="m265.547 199.512a9.63 9.63 0 0 0 -.156-1.73l-.084-.459h-9.307v4.477h4.529a5.049 5.049 0 0 1 -1.935 2.075l3.215 3.215a9.7 9.7 0 0 0 .941-.826 9.485 9.485 0 0 0 2.797-6.752z" fill="#3c79e6" transform="translate(-211.547 -175.059)"/><path d="m201.824 5.961.4.4 3.164-3.164-.4-.4a9.485 9.485 0 0 0 -6.75-2.797l-2.238 2.238 2.238 2.238a5.039 5.039 0 0 1 3.586 1.485z" fill="#cf2d48" transform="translate(-153.785 15)"/><path d="m60.4 4.475v-4.475a9.485 9.485 0 0 0 -6.751 2.8 9.69 9.69 0 0 0 -.826.941l3.219 3.219a5.074 5.074 0 0 1 4.358-2.485z" fill="#eb4132" transform="translate(-15.852 15)"/></svg>