<svg height="261.512" viewBox="0 0 327.54 261.512" width="327.54" xmlns="http://www.w3.org/2000/svg"><path d="m351.5 129.742h-153.641a19.671 19.671 0 0 0 -19.649 19.649v180.409a19.671 19.671 0 0 0 19.649 19.649h153.641a19.671 19.671 0 0 0 19.652-19.649v-180.409a19.671 19.671 0 0 0 -19.652-19.649z" fill="#ecebeb" transform="translate(-178.21 -129.742)"/><path d="m359.7 143.6h-153.644a14.008 14.008 0 0 0 -13.992 13.992v180.408a14.008 14.008 0 0 0 13.992 13.992h153.644a14.008 14.008 0 0 0 13.993-13.992v-180.412a14.008 14.008 0 0 0 -13.993-13.988z" fill="#fff" transform="translate(-186.408 -137.939)"/><g fill="#ecebeb"><path d="m428.671 262.6h-77.7a3.272 3.272 0 0 1 0-6.544h77.7a3.272 3.272 0 0 1 0 6.544z" transform="translate(-278.501 -204.482)"/><path d="m442.168 289.645h-91.194a3.272 3.272 0 1 1 0-6.544h91.194a3.272 3.272 0 1 1 0 6.544z" transform="translate(-278.501 -220.486)"/><path d="m428.671 383.811h-77.7a3.272 3.272 0 0 1 0-6.544h77.7a3.272 3.272 0 1 1 0 6.544z" transform="translate(-278.501 -276.206)"/><path d="m442.168 410.859h-91.194a3.272 3.272 0 1 1 0-6.544h91.194a3.272 3.272 0 1 1 0 6.544z" transform="translate(-278.501 -292.211)"/><path d="m428.671 505.024h-77.7a3.272 3.272 0 0 1 0-6.544h77.7a3.272 3.272 0 1 1 0 6.544z" transform="translate(-278.501 -347.93)"/><path d="m442.168 532.072h-91.194a3.272 3.272 0 0 1 0-6.544h91.194a3.272 3.272 0 1 1 0 6.544z" transform="translate(-278.501 -363.934)"/><path d="m270.964 271.388h-27.5a1.571 1.571 0 0 1 -1.569-1.569v-24.476a1.571 1.571 0 0 1 1.569-1.569h27.5a1.571 1.571 0 0 1 1.569 1.569v24.476a1.571 1.571 0 0 1 -1.569 1.569z" transform="translate(-215.896 -197.216)"/><path d="m270.964 392.6h-27.5a1.571 1.571 0 0 1 -1.569-1.569v-24.474a1.571 1.571 0 0 1 1.569-1.569h27.5a1.571 1.571 0 0 1 1.569 1.569v24.475a1.571 1.571 0 0 1 -1.569 1.568z" transform="translate(-215.896 -268.941)"/><path d="m270.964 513.815h-27.5a1.571 1.571 0 0 1 -1.569-1.569v-24.476a1.571 1.571 0 0 1 1.569-1.569h27.5a1.571 1.571 0 0 1 1.569 1.569v24.476a1.571 1.571 0 0 1 -1.569 1.569z" transform="translate(-215.896 -340.664)"/></g><path d="m676.414 384.6 1.219-10.66 6.112-53.448 1.219-10.66a19.671 19.671 0 0 0 -17.289-21.754l-138.675-15.856a19.671 19.671 0 0 0 -21.754 17.289v.028l-8.546 74.712v.028a19.671 19.671 0 0 0 17.289 21.754l138.671 15.857a19.671 19.671 0 0 0 21.754-17.29z" fill="#e6e6e6" transform="translate(-367.77 -213.975)"/><path d="m678.992 392.157 1.444-12.626 5.662-49.516 1.444-12.626a14.008 14.008 0 0 0 -12.313-15.489l-138.679-15.86a14.008 14.008 0 0 0 -15.491 12.312v.028l-8.543 74.712v.028a14.008 14.008 0 0 0 12.312 15.491l138.672 15.857a14.008 14.008 0 0 0 15.492-12.311z" fill="#fff" transform="translate(-375.967 -222.172)"/><path d="m748.724 357.911-77.194-8.827a3.272 3.272 0 0 1 .743-6.5l77.194 8.827a3.272 3.272 0 1 1 -.743 6.5z" fill="#009345" transform="translate(-468.399 -255.67)"/><path d="m759.061 386.317-90.6-10.36a3.272 3.272 0 0 1 .743-6.5l90.6 10.36a3.272 3.272 0 0 1 -.743 6.5z" fill="#009345" transform="translate(-466.581 -271.571)"/><path d="m690.592 432.792-133.578-15.275a3.272 3.272 0 1 1 .743-6.5l133.579 15.273a3.272 3.272 0 1 1 -.743 6.5z" fill="#009345" transform="translate(-400.638 -296.163)"/><path d="m687.949 459.713-134.008-15.323a3.272 3.272 0 1 1 .743-6.5l134.007 15.323a3.272 3.272 0 0 1 -.743 6.5z" fill="#009345" transform="translate(-398.82 -312.064)"/><path d="m684.571 485.448-133.578-15.274a3.272 3.272 0 1 1 .743-6.5l133.578 15.275a3.272 3.272 0 1 1 -.743 6.5z" fill="#009345" transform="translate(-397.076 -327.321)"/><path d="m681.928 512.37-134.008-15.323a3.272 3.272 0 1 1 .743-6.5l134.007 15.323a3.272 3.272 0 1 1 -.743 6.5z" fill="#009345" transform="translate(-395.257 -343.222)"/><path d="m587.306 348.465-27.318-3.124a1.571 1.571 0 0 1 -1.381-1.737l2.781-24.317a1.571 1.571 0 0 1 1.737-1.381l27.318 3.124a1.571 1.571 0 0 1 1.381 1.737l-2.781 24.317a1.571 1.571 0 0 1 -1.737 1.381z" fill="#009345" transform="translate(-403.291 -241.076)"/><path d="m938.386 383.818a3.828 3.828 0 0 0 3.438 4.759l2.766 8.3 5.454-.451-4.071-11.666a3.849 3.849 0 0 0 -7.587-.942z" fill="#bf9792" transform="translate(-627.949 -278.349)"/><path d="m946.472 449.756a4.934 4.934 0 0 0 8.157-2.582l4.319-19.791a19.547 19.547 0 0 0 -.5-10.2l-5.058-15.583a1.633 1.633 0 0 0 -2.285-.956l-3.3 1.652a1.633 1.633 0 0 0 -.837 1.916l.333 1.144a55 55 0 0 1 .42 29.186l-2.687 10.342a4.934 4.934 0 0 0 1.438 4.874z" fill="#1394df" transform="translate(-631.859 -289.935)"/><path d="m718.261 603.808h-4.668l-2.22-18h6.889z" fill="#bf9792" transform="translate(-420.932 -346.629)"/><path d="m700.43 626.633h9v5.667h-14.67a5.668 5.668 0 0 1 5.67-5.667z" fill="#2f2e41" transform="translate(-411.102 -370.789)"/><path d="m779.882 603.808h-4.667l-2.22-18h6.889z" fill="#bf9792" transform="translate(-457.394 -346.629)"/><path d="m762.052 626.633h9v5.667h-14.67a5.668 5.668 0 0 1 5.668-5.668z" fill="#2f2e41" transform="translate(-447.565 -370.789)"/><circle cx="308.819" cy="119.164" fill="#bf9792" r="10.028"/><path d="m850.562 567.444a3.828 3.828 0 0 1 4.937-3.176l5.6-6.718 4.913 2.41-8.047 9.376a3.849 3.849 0 0 1 -7.407-1.892z" fill="#bf9792" transform="translate(-576.032 -382.883)"/><path d="m917.715 412.534a10.7 10.7 0 1 0 -2-21.159 12.3 12.3 0 0 0 -7.339-2.011 7.193 7.193 0 0 0 -6.072 4.149c-.961 2.394.071 5.55 2.461 6.523 1.532.624 3.262.321 4.9.07s3.418-.416 4.841.428 2.062 3.105.788 4.16a4.384 4.384 0 0 0 -1.259 4.826 4.794 4.794 0 0 0 3.68 3.014z" fill="#2f2e41" transform="translate(-606.455 -283.343)"/><path d="m921.225 579.888 1.775 67.505a1.633 1.633 0 0 1 -1.716 1.674l-5.86-.3a1.633 1.633 0 0 1 -1.53-1.375l-6.97-43.845a.817.817 0 0 0 -1.6-.05l-9.435 42.215a1.633 1.633 0 0 1 -2.141 1.183l-5.815-.355a1.633 1.633 0 0 1 -1.082-1.655l5.077-65.637z" fill="#e6e6e6" transform="translate(-597.523 -395.722)"/><path d="m928.3 472.821a18.4 18.4 0 0 0 -16.791-20.21c-4.417-.314-11.274-.426-13.534 5.363-6.809 17.439 5.111 17.016 1 32.125s-7.734 15.975-2.1 17.066 30.975 7.532 29.935-3.1c-.631-6.54.516-21.04 1.49-31.244z" fill="#0b8bd5" transform="translate(-601.748 -320.718)"/><path d="m884.806 461.092a4.934 4.934 0 0 1 6.653 5.38l-3.2 20a19.546 19.546 0 0 1 -4.191 9.312l-10.395 12.667a1.633 1.633 0 0 1 -2.476.057l-2.469-2.742a1.633 1.633 0 0 1 -.08-2.09l.727-.944a55 55 0 0 0 11.042-27.02l1.272-10.609a4.933 4.933 0 0 1 3.117-4.011z" fill="#1394df" transform="translate(-586.552 -325.61)"/></svg>