<svg height="341.55" viewBox="0 0 317.695 341.55" width="317.695" xmlns="http://www.w3.org/2000/svg"><path d="m699.728 166.49h-1.874v-51.348a29.718 29.718 0 0 0 -29.718-29.718h-108.787a29.718 29.718 0 0 0 -29.718 29.718v281.694a29.718 29.718 0 0 0 29.718 29.718h108.786a29.718 29.718 0 0 0 29.718-29.718v-193.8h1.874z" fill="#ecebeb" transform="translate(-395.184 -85.424)"/><path d="m700.823 124.113v281.28a22.2 22.2 0 0 1 -22.194 22.194h-109.308a22.2 22.2 0 0 1 -22.194-22.194v-281.28a22.2 22.2 0 0 1 22.194-22.194h13.261a10.55 10.55 0 0 0 9.764 14.526h62.322a10.55 10.55 0 0 0 9.764-14.526h14.2a22.2 22.2 0 0 1 22.194 22.194z" fill="#fff" transform="translate(-404.479 -94.188)"/><path d="m251.527 621.411a3.523 3.523 0 0 1 -2.313-.864l-5.214-4.547a3.524 3.524 0 0 1 -.342-4.961l37.9-43.457a2.784 2.784 0 0 1 .241-.251 3.513 3.513 0 0 1 4.716-.085l5.216 4.546a3.514 3.514 0 0 1 1.2 2.41 3.511 3.511 0 0 1 -.859 2.55l-37.9 43.456a3.515 3.515 0 0 1 -2.649 1.2z" fill="#bf9792" transform="translate(-242.798 -340.942)"/><path d="m402.386 542.451a3.643 3.643 0 0 1 -1.077-.165 3.5 3.5 0 0 1 -2.056-1.738l-3.169-6.15a3.5 3.5 0 0 1 .8-4.245 3.331 3.331 0 0 1 .712-.491l51.251-26.422a3.523 3.523 0 0 1 4.736 1.511l3.169 6.15a3.523 3.523 0 0 1 -1.512 4.736l-51.25 26.422a3.487 3.487 0 0 1 -1.604.392z" fill="#bf9792" transform="translate(-324.025 -307.191)"/><path d="m400.489 558.144a3.555 3.555 0 0 1 -3.153-1.943l-3.1-6.182a3.5 3.5 0 0 1 -.271-2.416c.014-.062.034-.13.054-.2l.018-.062c.055-.161.109-.392.172-.658l.036-.155a5.934 5.934 0 0 1 1.088-2.75 1.024 1.024 0 0 1 .24-.167l22.5-13.64a3.512 3.512 0 0 1 4.751 1.544l5.682 11.711a3.519 3.519 0 0 1 -1.569 4.714l-24.917 9.838a3.374 3.374 0 0 1 -1.531.366z" fill="#0b8bd5" transform="translate(-323.052 -321.393)"/><path d="m346.8 739.712h-6.918a3.519 3.519 0 0 1 -3.516-3.516v-58.596a3.519 3.519 0 0 1 3.515-3.516h6.919a3.428 3.428 0 0 1 1.272.242 3.488 3.488 0 0 1 2.233 3.111.921.921 0 0 1 .01.163v58.6a3.519 3.519 0 0 1 -3.515 3.512z" fill="#bf9792" transform="translate(-292.507 -398.163)"/><path d="m397.2 702.456q-.05-.082-.108-.159a3.268 3.268 0 0 0 -.356-.633l-11.793-16.5-9.717-13.589h-16.572l1.172 1.636 2.086 2.92 6.464 9.037 13.851 19.373-12.839 25.79c-.525 1.05.37 2.559 1.988 3.365l6.192 3.084a4.551 4.551 0 0 0 1.983.5 2.011 2.011 0 0 0 1.9-.937l15.96-32.061a1.857 1.857 0 0 0 -.211-1.826z" fill="#bf9792" transform="translate(-304.349 -396.83)"/><path d="m305.944 586.153a3.523 3.523 0 0 1 -2.452-1.01l-9.387-9a3.481 3.481 0 0 1 -1.011-2.007 3.037 3.037 0 0 1 -.04-.477 3.2 3.2 0 0 1 .041-.541 3.46 3.46 0 0 1 .974-1.953l19.962-17.257c.541-.558 1.913-.442 3.123-.34l.183.015a6.58 6.58 0 0 0 .671.038c.083.009.179 0 .268.009a3.537 3.537 0 0 1 2.232 1.005l4.926 4.856a3.52 3.52 0 0 1 .035 4.972l-16.982 20.618a3.505 3.505 0 0 1 -2.543 1.075z" fill="#0b8bd5" transform="translate(-269.497 -334.089)"/><path d="m343.992 712.231h-17.811a3.05 3.05 0 0 1 -3.047-3.047v-14.061a3.05 3.05 0 0 1 3.047-3.047h17.812a3.05 3.05 0 0 1 3.047 3.047v14.062a3.05 3.05 0 0 1 -3.048 3.046z" fill="#0b8bd5" transform="translate(-285.478 -407.721)"/><circle cx="60.587" cy="179.209" fill="#bf9792" r="25.086"/><path d="m369.9 471.5-.026-.937c1.744-.049 3.282-.158 4.437-1a2.882 2.882 0 0 0 1.116-2.123 1.647 1.647 0 0 0 -.54-1.357 2.839 2.839 0 0 0 -2.9-.026l-.776.356 1.487-10.87.929.127-1.265 9.247a3.309 3.309 0 0 1 3.13.45 2.565 2.565 0 0 1 .872 2.106 3.812 3.812 0 0 1 -1.5 2.847c-1.483 1.08-3.412 1.138-4.964 1.18z" transform="translate(-310.311 -282.057)"/><path d="m67.912 174.41h5.049v.937h-5.049z"/><path d="m51.975 174.41h5.049v.937h-5.049z"/><path d="m382.047 706.876a3.052 3.052 0 0 1 -2.859-1.985l-4.9-13.182a3.051 3.051 0 0 1 1.795-3.917l16.7-6.2a3.051 3.051 0 0 1 3.917 1.795l4.9 13.181a3.051 3.051 0 0 1 -1.795 3.917l-16.7 6.2a3.033 3.033 0 0 1 -1.058.191z" fill="#0b8bd5" transform="translate(-312.555 -402.048)"/><path d="m327.912 406.564c4.649-2.687 10.287-.626 15.089.5 5.131 1.2 10.555 1.465 15.392-.968a13.582 13.582 0 0 0 7.6-10.591c.358-4.276-2.05-8.832-6.123-10.436-4.15-1.634-9.432.5-10.945 4.762l1.285-.168c-4.974-6.529-11.1-13.267-19.659-14.538a15.946 15.946 0 0 0 -11.214 2.14 16.518 16.518 0 0 0 -6.221 8.681 47.6 47.6 0 0 0 -1.954 12.5c-.053.9 1.354.9 1.406 0 .385-6.591 1.009-14.542 6.4-19.147a13.8 13.8 0 0 1 10.139-2.934 20.677 20.677 0 0 1 10.462 4.141 47.5 47.5 0 0 1 9.427 9.87.715.715 0 0 0 1.285-.168c1.215-3.418 5.478-5.012 8.8-3.932 3.752 1.222 5.826 5.476 5.512 9.232-.36 4.3-3.652 7.918-7.458 9.64-4.585 2.074-9.608 1.567-14.352.422-5.039-1.216-10.731-3.02-15.579-.218a.7.7 0 0 0 .71 1.214z" transform="translate(-279.119 -239.22)"/><path d="m366.71 610.76h-44.529c-1.708 0-3.047-2.744-3.047-6.247v-43.907a25.326 25.326 0 0 1 17.681-24.138 4.393 4.393 0 0 1 -.1-.939c0-2.458.072-10.1 2.53-10.1h10.934c2.458 0 2 7.645 2 10.1a4.4 4.4 0 0 1 -.1.94 25.144 25.144 0 0 1 6.942 3.438c.437.3.867.63 1.279.966a25.248 25.248 0 0 1 7.98 11.193c.259.714.488 1.455.681 2.2a25.482 25.482 0 0 1 .8 6.339v43.907c0 3.416-1.292 6.14-2.949 6.235a.348.348 0 0 1 -.102.013z" fill="#1394df" transform="translate(-283.353 -322.186)"/><g fill="#8bc53f"><path d="m589.906 157.575a15 15 0 1 0 0 30 15 15 0 0 0 0-30z" transform="translate(-419.237 -123.756)"/><path d="m745.742 208.076h-78.742a3.75 3.75 0 0 1 0-7.5h78.746a3.75 3.75 0 1 1 0 7.5z" transform="translate(-466.17 -146.601)"/><path d="m691.838 174.076h-24.838a3.75 3.75 0 0 1 0-7.5h24.843a3.75 3.75 0 0 1 0 7.5z" transform="translate(-466.17 -128.538)"/><path d="m589.906 291.575a15 15 0 1 0 0 30 15 15 0 0 0 0-30z" transform="translate(-419.237 -194.946)"/><path d="m745.742 342.076h-78.742a3.75 3.75 0 1 1 0-7.5h78.746a3.75 3.75 0 1 1 0 7.5z" transform="translate(-466.17 -217.791)"/><path d="m691.838 308.076h-24.838a3.75 3.75 0 0 1 0-7.5h24.843a3.75 3.75 0 0 1 0 7.5z" transform="translate(-466.17 -199.728)"/><path d="m589.906 559.576a15 15 0 1 0 0 30 15 15 0 0 0 0-30z" transform="translate(-419.237 -337.327)"/><path d="m745.742 610.076h-78.742a3.75 3.75 0 0 1 0-7.5h78.746a3.75 3.75 0 1 1 0 7.5z" transform="translate(-466.17 -360.172)"/><path d="m691.838 576.076h-24.838a3.75 3.75 0 1 1 0-7.5h24.843a3.75 3.75 0 1 1 0 7.5z" transform="translate(-466.17 -342.109)"/><path d="m589.906 693.576a15 15 0 1 0 0 30 15 15 0 0 0 0-30z" transform="translate(-419.237 -408.518)"/><path d="m745.742 744.076h-78.742a3.75 3.75 0 0 1 0-7.5h78.746a3.75 3.75 0 1 1 0 7.5z" transform="translate(-466.17 -431.362)"/><path d="m691.838 710.076h-24.838a3.75 3.75 0 0 1 0-7.5h24.843a3.75 3.75 0 0 1 0 7.5z" transform="translate(-466.17 -413.299)"/></g><path d="m690.241 451.166h-180.93a7.743 7.743 0 0 1 -7.734-7.734v-58.122a7.743 7.743 0 0 1 7.734-7.734h180.93a7.743 7.743 0 0 1 7.734 7.734v58.122a7.743 7.743 0 0 1 -7.734 7.734z" fill="#009345" transform="translate(-380.28 -240.636)"/><path d="m589.906 424.076a15 15 0 1 0 0 30 15 15 0 0 0 0-30z" fill="#8bc53f" transform="translate(-419.238 -265.34)"/><path d="m745.742 474.576h-78.742a3.75 3.75 0 0 1 0-7.5h78.746a3.75 3.75 0 1 1 0 7.5z" fill="#8bc53f" transform="translate(-466.17 -288.185)"/><path d="m691.838 440.576h-24.838a3.75 3.75 0 0 1 0-7.5h24.843a3.75 3.75 0 0 1 0 7.5z" fill="#8bc53f" transform="translate(-466.17 -270.122)"/><path d="m597.119 454.235a1.821 1.821 0 0 1 -1.1-.364l-.02-.015-4.125-3.155a1.833 1.833 0 1 1 2.231-2.909l2.672 2.049 6.313-8.237a1.832 1.832 0 0 1 2.569-.339l-.039.054.04-.054a1.834 1.834 0 0 1 .339 2.569l-7.426 9.684a1.833 1.833 0 0 1 -1.458.715z" fill="#fff" transform="translate(-427.873 -274.271)"/></svg>