<svg height="222.04" viewBox="0 0 376.898 222.04" width="376.898" xmlns="http://www.w3.org/2000/svg" xmlns:xlink="http://www.w3.org/1999/xlink"><linearGradient id="a" gradientUnits="objectBoundingBox" x1=".5" x2=".5" y1=".999" y2="-.002"><stop offset="0" stop-color="#808080" stop-opacity=".251"/><stop offset=".54" stop-color="#808080" stop-opacity=".122"/><stop offset="1" stop-color="#808080" stop-opacity=".102"/></linearGradient><linearGradient id="b" x1=".5" x2=".5" xlink:href="#a" y1="1.002" y2=".002"/><ellipse cx="79.398" cy="216.933" fill="#2baf00" opacity=".1" rx="48.654" ry="3.459"/><path d="m404.9 243.553a59.486 59.486 0 0 1 -8.605 30.929c0 11.406-5.317 21.744-13.943 29.279a47.685 47.685 0 0 1 -6.952 5.039c-.1.063-.2.122-.3.181l-.557.329-.175.1a54.231 54.231 0 0 1 -26.719 6.866h-248.101q-2.965 0-5.877-.237a69.565 69.565 0 0 1 -20.117-4.659q-1.884-.745-3.7-1.6-.863-.405-1.71-.834c-.353-.178-.705-.362-1.054-.547a61.746 61.746 0 0 1 -11.353-7.706c-11.2-9.63-18.146-22.933-18.146-37.627a59.467 59.467 0 0 1 -9.591-32.523c0-32.662 26.106-59.143 58.313-59.143.988 0 1.977.03 2.965.082a3.011 3.011 0 0 1 .422.02 100.472 100.472 0 0 1 21.415-25.243c23.81-20.39 58.593-33.259 97.341-33.259 32.557 0 62.317 9.077 85.112 24.073a57.385 57.385 0 0 1 28.307-7.416c32.2 0 58.314 26.478 58.314 59.141a60.935 60.935 0 0 1 -.329 6.187 59.3 59.3 0 0 1 25.04 48.568z" fill="#f9f9f9" transform="translate(-28 -113)"/><path d="m468.34 220.025v157.869a6.065 6.065 0 0 1 -6.065 6.078h-242.21a5.974 5.974 0 0 1 -1.674-.237 6.055 6.055 0 0 1 -4.391-5.841v-138.711a3.013 3.013 0 0 1 .422.02 100.472 100.472 0 0 1 21.415-25.243h226.437a6.065 6.065 0 0 1 6.066 6.065z" fill="#fff" transform="translate(-152.721 -180.698)"/><g fill="none" stroke="#3f3d56" stroke-linecap="round" stroke-miterlimit="10"><path d="m85.658 79.386h214.805" opacity=".08"/><path d="m85.658 119.085h214.805" opacity=".08"/><path d="m85.658 158.784h214.805" opacity=".08"/><path d="m85.658 199.472h214.805" opacity=".08"/></g><ellipse cx="317.266" cy="218.58" fill="#2baf00" opacity=".1" rx="48.654" ry="3.459"/><rect fill="#8bc53f" height="11.847" rx="5.924" width="45.409" x="169.561" y="53.764"/><rect height="7.884" opacity=".1" rx="3.942" width="39.489" x="172.519" y="55.747"/><rect fill="#009345" height="7.021" rx="3.51" width="14.259" x="196.761" y="56.179"/><circle cx="203.781" cy="59.687" fill="#fff" r="2.194"/><rect fill="#8bc53f" height="11.847" rx="5.924" width="45.409" x="169.561" y="131.861"/><rect height="7.884" opacity=".1" rx="3.942" width="39.489" x="172.519" y="133.845"/><rect fill="#009345" height="7.021" rx="3.51" width="14.259" x="196.761" y="134.276"/><circle cx="203.781" cy="137.785" fill="#fff" r="2.194"/><rect fill="#8bc53f" height="11.847" rx="5.924" width="45.409" x="169.561" y="170.912"/><rect height="7.884" opacity=".1" rx="3.942" width="39.489" x="172.519" y="172.892"/><rect fill="#009345" height="7.021" rx="3.51" width="14.259" x="196.761" y="173.323"/><circle cx="203.781" cy="176.835" fill="#fff" r="2.194"/><rect fill="#8bc53f" height="11.847" rx="5.924" width="45.409" x="169.561" y="92.814"/><rect height="7.884" opacity=".1" rx="3.942" width="39.489" x="172.519" y="94.794"/><rect fill="#009345" height="7.021" rx="3.51" transform="matrix(-1 0 0 -1 187.766 102.25)" width="14.259"/><circle cx="180.746" cy="98.738" fill="#fff" r="2.194"/><path d="m344.469 262.474a15.484 15.484 0 0 1 -7.548 13.3l-.211.125-.4.221-.379.2-.059.03q-.237.119-.484.227a15.093 15.093 0 0 1 -1.611.626c-.359.115-.722.221-1.087.31a15.355 15.355 0 0 1 -2.283.379c-.468.043-.939.066-1.417.066a16.137 16.137 0 0 1 -1.7-.092h-.1c-.194-.02-.389-.046-.583-.076a16.01 16.01 0 0 1 -1.832-.4l-.3-.089-.264-.082-.086-.03a15.274 15.274 0 0 1 -1.581-.619 15.075 15.075 0 0 1 -2.52-1.46l-.04-.026-.026-.02-.283-.208-.214-.165a14.5 14.5 0 0 1 -1.2-1.044q-.534-.514-1.015-1.077a15.484 15.484 0 1 1 27.223-10.095z" fill="#009345" transform="translate(-219.441 -202.843)"/><path d="m343.7 294.231-.392.119a.867.867 0 0 1 -.606-.2l-.129-.122a.481.481 0 0 0 -.3-.168h-.033a.33.33 0 0 1 -.135 0 .036.036 0 0 1 -.026 0 .165.165 0 0 1 -.076-.132 6.473 6.473 0 0 1 -.175-.9 8.409 8.409 0 0 1 0-.988v-.784a7.308 7.308 0 0 0 .076-.89 3.331 3.331 0 0 0 -.089-.942 2.636 2.636 0 0 0 -.185-.494c-.053-.445-.115-.89-.178-1.318-.046-.329-.1-.659-.155-.988a1.455 1.455 0 0 0 .033-.165 1.6 1.6 0 0 0 -.567-1.443 1.734 1.734 0 0 0 -.422-.26c-.125-.053-.254-.1-.382-.138l-2.069-.659c-.194-.287-.379-.58-.557-.88a6.141 6.141 0 0 1 -.435-.84 3.416 3.416 0 0 0 .853-4.5c-.033-.053-.073-.1-.109-.152a2.213 2.213 0 0 0 -.089-.768.046.046 0 0 0 0-.02 1.091 1.091 0 0 0 -.283-.55l-.069-.076a1.051 1.051 0 0 0 -.1-.109 3.839 3.839 0 0 0 -.448-.385 7.654 7.654 0 0 0 -2.441-1.347 2.8 2.8 0 0 0 -1.259 0l-.066-.023-.122-.023.1.046a2.754 2.754 0 0 0 -1.341.023c-.544.168-.735.613-.965 1.1a4.915 4.915 0 0 1 -1.647 1.944c-.451.31-.988.58-1.206 1.094a3.133 3.133 0 0 0 -.02 1.552 4.312 4.312 0 0 1 -1.565 3.71c-.616.494-1.436.906-1.572 1.7a2.947 2.947 0 0 0 .448 1.621 4.015 4.015 0 0 1 .082 3.492c-.056.1-.115.194-.171.287.313.382.659.745.988 1.094a14.977 14.977 0 0 0 1.183 1.058l.211.168.28.208.026.023.04.026a14.844 14.844 0 0 0 2.484 1.479.161.161 0 0 1 .02-.056.223.223 0 0 0 0 .066 14.641 14.641 0 0 0 1.558.626l.082.03.26.086.3.089a15.582 15.582 0 0 0 1.805.405c.191.03.382.056.577.076h.1a15.719 15.719 0 0 0 1.68.092c.471 0 .936-.023 1.4-.066a14.6 14.6 0 0 0 2.25-.385c.089-.02.178-.046.267-.072.27-.072.537-.152.8-.241a14.749 14.749 0 0 0 1.588-.633c.161-.076.329-.152.478-.231l.059-.03.372-.2a.026.026 0 0 1 -.016-.036zm-13.2-.455a.651.651 0 0 0 0-.082 1.4 1.4 0 0 1 0-.264.409.409 0 0 1 .059-.145v.158a.893.893 0 0 1 -.059.333z" fill="url(#a)" transform="translate(-226.836 -220.999)"/><path d="m343.159 294.8-.4.119a.893.893 0 0 1 -.613-.2c-.043-.036-.089-.082-.132-.122a.481.481 0 0 0 -.306-.165h-.033a.329.329 0 0 1 -.138 0 .036.036 0 0 1 -.026 0 .178.178 0 0 1 -.079-.132 6.285 6.285 0 0 1 -.175-.886 8.2 8.2 0 0 1 0-.988v-.774a7.147 7.147 0 0 0 .076-.88 3.248 3.248 0 0 0 -.089-.929 2.919 2.919 0 0 0 -.188-.488c-.053-.438-.119-.876-.181-1.318-.046-.329-.1-.659-.158-.988a1.023 1.023 0 0 1 .036-.161 1.555 1.555 0 0 0 -.577-1.423 1.762 1.762 0 0 0 -.428-.257c-.125-.053-.257-.1-.389-.138l-2.1-.659c-.194-.283-.382-.573-.563-.866a5.724 5.724 0 0 1 -.441-.83 3.3 3.3 0 0 0 .866-4.438c-.033-.053-.072-.1-.109-.148a2.158 2.158 0 0 0 -.089-.758.047.047 0 0 0 0-.02 1.168 1.168 0 0 0 -.072-.231 1.35 1.35 0 0 0 -.214-.313l-.073-.076a1.022 1.022 0 0 0 -.1-.105 3.873 3.873 0 0 0 -.465-.359 7.587 7.587 0 0 0 -2.478-1.318 2.87 2.87 0 0 0 -1.275 0l-.066-.02-.122-.023.1.046a2.837 2.837 0 0 0 -1.361.023c-.55.165-.745.6-.988 1.084a4.893 4.893 0 0 1 -1.647 1.917 3.023 3.023 0 0 0 -1.222 1.081 2.846 2.846 0 0 0 -.02 1.532 4.217 4.217 0 0 1 -1.588 3.66c-.626.488-1.459.893-1.595 1.674a2.837 2.837 0 0 0 .455 1.6 3.893 3.893 0 0 1 .082 3.446c-.056.1-.115.191-.175.283a14.229 14.229 0 0 0 1.015 1.077 14.5 14.5 0 0 0 1.2 1.044l.214.165.283.208.026.02.04.026a15.072 15.072 0 0 0 2.52 1.46.171.171 0 0 1 .02-.053 1.614 1.614 0 0 1 .079-.171 1.918 1.918 0 0 0 .293-.659.651.651 0 0 0 0-.082 1.371 1.371 0 0 1 0-.26.418.418 0 0 1 .059-.142c.036-.066.089-.128.132-.194a.714.714 0 0 0 .063-.109c.036.049.069.1.1.152.119.181.234.362.349.547a.847.847 0 0 1 .171.422.687.687 0 0 0 0 .273c.049.115.214.211.152.329a.435.435 0 0 0 0 .389 1.828 1.828 0 0 0 .138.188l.086.03.264.082.3.089a16.017 16.017 0 0 0 1.832.4c.194.03.389.056.583.076h.1a16.137 16.137 0 0 0 1.7.092c.478 0 .949-.023 1.417-.066a15.359 15.359 0 0 0 2.283-.379c.092-.02.181-.046.273-.072.273-.072.544-.148.814-.237a15.093 15.093 0 0 0 1.611-.626q.247-.109.484-.227l.059-.03.379-.2z" fill="#a9d273" opacity=".37" transform="translate(-226.291 -221.549)"/><path d="m343.469 381.5a15.408 15.408 0 0 1 -1.9 7.433 14.621 14.621 0 0 1 -.863 1.39 14.363 14.363 0 0 1 -1.011 1.318.5.5 0 0 1 -.069.076c-.138.165-.287.329-.438.481l-.168.178c-.171.175-.346.329-.527.507a.594.594 0 0 1 -.066.063c-.082.076-.168.155-.257.227a15.081 15.081 0 0 1 -1.456 1.13c-.26.178-.524.349-.794.511l-.211.125-.4.221-.27.142-.109.056-.059.03q-.158.079-.329.148c-.056.03-.112.053-.168.079l-.329.138c-.29.125-.586.244-.886.349l-.4.135h-.046a.564.564 0 0 1 -.1.03l-.076.026-.224.066-.076.023-.1.026-.138.036a.519.519 0 0 1 -.1.026l-.234.063c-.171.043-.346.082-.521.115a14.852 14.852 0 0 1 -1.763.264c-.448.04-.9.063-1.354.066h-.105c-.435 0-.86-.02-1.285-.056l-.376-.036h-.158l-.524-.069-.418-.072-.105-.02c-.194-.036-.389-.076-.58-.125a.106.106 0 0 1 -.046 0c-.231-.049-.458-.109-.682-.171l-.3-.089-.264-.082-.086-.03a15.807 15.807 0 0 1 -1.568-.616q-.53-.244-1.038-.524l-.152-.086-.224-.128-.116-.074c-.329-.2-.659-.422-.988-.659l-.04-.026-.026-.02-.283-.208-.214-.165a14.5 14.5 0 0 1 -1.2-1.044q-.534-.514-1.015-1.077a15.484 15.484 0 1 1 27.23-10.1z" fill="#009345" transform="translate(-218.77 -282.667)"/><path d="m348.5 417.29a.573.573 0 0 0 -.082-.1.429.429 0 0 0 -.076-.059.761.761 0 0 1 -.293-.725.692.692 0 0 0 0-.086 4.484 4.484 0 0 0 -.382-.972c-.082-.175-.185-.441-.273-.692-.119-.329-.214-.629-.214-.629a.342.342 0 0 0 -.016-.086c-.04-.208-.148-.791-.244-1.338v-.1a12.972 12.972 0 0 0 -1.288-2.573.129.129 0 0 0 -.049-.063c-.26-.122-1.15-.633-1.15-.633a2.3 2.3 0 0 0 -1.716-1.048h-.161a1.033 1.033 0 0 0 -.109 0 1.292 1.292 0 0 0 -.171.043l-.063.02a.612.612 0 0 0 -.086.036l-.02.161a3.654 3.654 0 0 1 .092-1.193l.033-.112h.191a3.232 3.232 0 0 0 3.061-4.121v-.046l.1-.046c.389-.148.89.105 1.209-.165a.946.946 0 0 0 .24-.422 2.548 2.548 0 0 0 .175-.675 1.126 1.126 0 0 0 0-.211v-.026a.784.784 0 0 0 -.168-.418c-.208-.247-.557-.31-.824-.491a2.065 2.065 0 0 1 -.524-.629 2.254 2.254 0 0 0 -.511-.639.745.745 0 0 0 -.764-.125.9.9 0 0 1 -.254.122.531.531 0 0 1 -.277-.076 5.314 5.314 0 0 0 -2.965-.227 3.88 3.88 0 0 0 -1.163.283 1.41 1.41 0 0 0 -.784.873c-.082.31-.02.659-.119.952-.066.208-.2.389-.277.59a1.3 1.3 0 0 0 -.072.346v.211a9.769 9.769 0 0 0 .227 1.2 8.361 8.361 0 0 0 .329 1.944 1.144 1.144 0 0 0 .105.211c-.1.208-.194.415-.3.613a1.4 1.4 0 0 0 -.152-.033h-.115a.486.486 0 0 0 -.119 0 .37.37 0 0 0 -.082.036l-.033.03-.023.016a.135.135 0 0 0 -.026.043.053.053 0 0 0 0 .023.405.405 0 0 0 -.033.125v.033a.775.775 0 0 1 -.02.211c-.02.072 0 .082-.016.122a.946.946 0 0 1 -.016.1v.026a.538.538 0 0 1 -.026.122l-.049.148-.02.043c-.02.043-.04.086-.063.125l-.112.115a.129.129 0 0 0 -.069.125l-.049.039a.168.168 0 0 0 -.069.026c-.023-.053-.115-.053-.4.3a5.448 5.448 0 0 1 -1.318 1.021s-1.934 1.377-2.039 2.013-.728 3.383-.4 4.3c.043.119.125.3.234.527v.02s.1.366.247.906c.04.023.079.053.122.076l.224.128.152.089c.329.188.685.366 1.038.53a15.84 15.84 0 0 0 1.568.623l.086.03.264.086.3.089c.224.063.451.122.682.175a.1.1 0 0 0 .046 0c.191.049.385.089.58.125l.105.02.418.076.524.069h.158l.376.036c.425.036.85.056 1.285.056h.105c.458 0 .906-.026 1.354-.066a14.858 14.858 0 0 0 1.763-.267c.175-.033.349-.072.521-.119l.234-.063a.516.516 0 0 0 .1-.026l.138-.036.1-.026.076-.023.224-.066.076-.03a.564.564 0 0 0 .1-.03h.046l.4-.135c.3-.109.6-.227.886-.356l.329-.138c.056-.026.112-.049.168-.082a.99.99 0 0 0 -.147-.186zm-6.388-8.727h-.02v-.02z" fill="url(#b)" transform="translate(-232.866 -304.679)"/><path d="m348.538 417.933a.719.719 0 0 0 -.082-.092.429.429 0 0 0 -.076-.059.745.745 0 0 1 -.293-.715.691.691 0 0 0 0-.086 4.386 4.386 0 0 0 -.382-.959c-.082-.171-.185-.435-.273-.682-.119-.329-.214-.623-.214-.623l-.016-.082c-.04-.208-.148-.781-.244-1.318v-.1a12.771 12.771 0 0 0 -1.288-2.54.115.115 0 0 0 -.049-.059c-.26-.122-1.15-.626-1.15-.626a2.308 2.308 0 0 0 -1.716-1.034h-.161a1.025 1.025 0 0 0 -.109 0 1.3 1.3 0 0 0 -.171.043l-.063.02a.614.614 0 0 0 -.086.036l-.02.161a3.571 3.571 0 0 1 .092-1.179.458.458 0 0 1 .033-.109h.191a3.186 3.186 0 0 0 3.186-3.186 3.127 3.127 0 0 0 -.125-.883v-.043l.053-.013c.389-.145.89.105 1.209-.161a.933.933 0 0 0 .24-.418 2.451 2.451 0 0 0 .175-.659 1.092 1.092 0 0 0 0-.208v-.026a.774.774 0 0 0 -.168-.412c-.208-.247-.557-.306-.824-.488a1.977 1.977 0 0 1 -.524-.619 2.271 2.271 0 0 0 -.5-.633.741.741 0 0 0 -.764-.119.987.987 0 0 1 -.254.119.53.53 0 0 1 -.277-.076 5.343 5.343 0 0 0 -2.965-.224 3.779 3.779 0 0 0 -1.163.28 1.4 1.4 0 0 0 -.784.86c-.082.306-.02.639-.119.942-.066.2-.2.382-.277.583a1.2 1.2 0 0 0 -.072.329s0 0 0-.02v.227a9.509 9.509 0 0 0 .227 1.186 8.227 8.227 0 0 0 .329 1.921 1.228 1.228 0 0 0 .105.208c-.1.2-.194.409-.3.6a1.411 1.411 0 0 0 -.152-.033h-.117a.483.483 0 0 0 -.119 0 .4.4 0 0 0 -.079.033l-.033.03-.023.016a.135.135 0 0 0 -.026.043.053.053 0 0 0 0 .023.382.382 0 0 0 -.033.125v.033a.739.739 0 0 1 -.02.208c-.02.069 0 .082-.016.122s0 .066-.016.1 0 .016 0 .026-.016.082-.026.122l-.049.148-.02.04a1.058 1.058 0 0 1 -.063.122.35.35 0 0 1 -.063.043.128.128 0 0 0 -.069.125l-.049.04a.152.152 0 0 0 -.069.023c-.023-.049-.115-.049-.4.293a5.429 5.429 0 0 1 -1.318 1.008s-1.934 1.361-2.039 1.977-.728 3.341-.4 4.247c.043.119.125.3.234.521v.02s.1.362.247.9l.122.072.224.128.152.086q.507.283 1.038.524a15.81 15.81 0 0 0 1.568.616l.086.03.264.082.3.089c.224.063.451.122.682.171a.105.105 0 0 0 .046 0c.191.049.385.089.58.125l.105.02.418.072.524.069h.158l.376.036c.425.036.85.056 1.285.056h.105c.458 0 .906-.026 1.354-.066a14.854 14.854 0 0 0 1.763-.264c.175-.033.349-.072.521-.115l.234-.063a.516.516 0 0 0 .1-.026l.138-.036.1-.026.076-.023.224-.066.076-.026a.564.564 0 0 0 .1-.03h.046l.4-.135c.3-.105.6-.224.886-.349l.329-.138c.056-.026.112-.049.168-.079a.987.987 0 0 0 -.161-.153zm-6.388-8.612h-.02v-.02z" fill="#a9d273" opacity=".37" transform="translate(-232.899 -305.302)"/><path d="m344.469 499.363a15.409 15.409 0 0 1 -1.9 7.433 14.625 14.625 0 0 1 -.863 1.39 14.369 14.369 0 0 1 -1.006 1.314.5.5 0 0 1 -.069.076c-.138.165-.287.329-.438.481l-.168.178c-.171.175-.346.329-.527.507a.591.591 0 0 1 -.066.063c-.082.076-.168.155-.257.227a15.084 15.084 0 0 1 -1.456 1.13c-.26.178-.524.349-.794.511l-.211.125-.4.221-.194.1h-.023l-.053.03-.109.056-.059.03-.329.148-.168.079-.329.138-.468.194-.247.092-.168.063-.4.135h-.046l-.1.03-.076.026-.224.066-.076.023h-.1l-.138.036a.523.523 0 0 1 -.1.026l-.234.063c-.171.043-.346.082-.521.115-.283.059-.57.112-.857.155s-.6.082-.906.109c-.448.04-.9.063-1.354.066h-.105c-.435 0-.86-.02-1.285-.056l-.376-.036h-.158a3.107 3.107 0 0 1 -.474-.063h-.049l-.418-.072-.105-.02c-.194-.036-.389-.076-.58-.125a.107.107 0 0 1 -.046 0c-.231-.049-.458-.109-.682-.171l-.3-.089-.264-.082-.086-.03-.241-.082-.168-.059c-.122-.043-.241-.089-.359-.138l-.122-.049-.155-.063q-.257-.105-.5-.217-.53-.241-1.038-.524l-.152-.086-.224-.128-.122-.073a5.54 5.54 0 0 1 -.491-.329c-.165-.109-.329-.217-.481-.329l-.04-.026-.026-.02-.283-.208-.214-.165a14.508 14.508 0 0 1 -1.2-1.044q-.534-.514-1.015-1.077a15.484 15.484 0 1 1 27.19-10.078z" fill="#009345" transform="translate(-219.441 -361.651)"/><g fill="#a9d273" opacity=".37" transform="translate(100.961 132.492)"><path d="m345.29 463.153h.01z" transform="translate(-332.494 -443.042)"/><path d="m349.72 533.336a.191.191 0 0 1 -.1-.066.544.544 0 0 1 .287-.165c.1-.026.158-.178.145-.329a.557.557 0 0 0 -.122-.412.289.289 0 0 1 -.069-.115 2.882 2.882 0 0 1 .194-.356.112.112 0 0 0 0-.112c.092-.227-.329-.185-.329-.185v-2.164s-.033-.175-.079-.507-.112-.82-.175-1.443c-.125-1.242-.616-1.371-.616-1.371a5.573 5.573 0 0 1 -.764-.3 5.219 5.219 0 0 0 -.8-.3 4.124 4.124 0 0 1 -1.041-.145 3.18 3.18 0 0 0 -.708-.152l-.076-.04a2.744 2.744 0 0 1 -1.272-1.318 2.669 2.669 0 0 0 .283-.382v.247c.329-.593 1.318-.728 1.413-1.4v-.021a.774.774 0 0 0 0-.175.742.742 0 0 0 0-.086v-.069a5.166 5.166 0 0 0 -.086-.511v-.033a1.169 1.169 0 0 1 .026-.148.3.3 0 0 1 0-.046 1.355 1.355 0 0 1 .049-.165c.138-.372.4-.722.534-1.1a1.824 1.824 0 0 0 .069-.264v-.036a2.255 2.255 0 0 0 .026-.26v-.185a.043.043 0 0 0 0-.023.112.112 0 0 0 0-.033.862.862 0 0 0 0-.092 2 2 0 0 0 -.659-1.45c-.329-.293-.784-.478-1.018-.86-.109-.181-.161-.389-.283-.563a1.413 1.413 0 0 0 -1.025-.5 5.713 5.713 0 0 1 -1.163-.155c-.267-.086-.5-.24-.771-.329a1.476 1.476 0 0 0 -1.588.57 2.665 2.665 0 0 1 -.422.613c-.389.329-1.048.188-1.39.567a.946.946 0 0 0 -.185.721v.049.132a.159.159 0 0 1 0 .04.852.852 0 0 0 0 .128v.135a2.134 2.134 0 0 0 .033.254 3.868 3.868 0 0 1 .033.435v.066a4.511 4.511 0 0 1 -.491 1.9 5.822 5.822 0 0 0 -.88 1.914 1.585 1.585 0 0 0 0 .306v-.03a.44.44 0 0 0 0 .066v.379l.03.158a.772.772 0 0 0 0 .086l.049.2v.036c.092.329.214.685.287 1.031a3.336 3.336 0 0 1 .059.356.093.093 0 0 0 0 .03c0 .1.016.2.02.3v.026.053a3.846 3.846 0 0 1 -.494.152c-.3.043-1.166.814-1.1 1a.272.272 0 0 1 0 .082.3.3 0 0 1 0 .053 12.71 12.71 0 0 1 -.4 1.433l-.7 4.813c.161.109.329.211.491.329l.122.072.224.129.152.086q.507.28 1.038.524.247.115.5.217l.155.063.122.049a.537.537 0 0 0 .2.122h.142a.331.331 0 0 0 .1 0h.053l.168.059.241.082.086.03.264.082.3.089c.224.063.451.122.682.171a.107.107 0 0 0 .046 0c.191.049.385.089.58.125l.105.02.418.072h.049c.158.023.329.046.474.063h.158l.376.036c.425.036.85.056 1.285.056h.105c.458 0 .906-.026 1.354-.066.3-.026.606-.063.906-.109s.573-.1.857-.155c.175-.033.349-.072.521-.115l.234-.063a.514.514 0 0 0 .1-.026l.138-.036h.04c0-.224-.026-.415-.033-.563.049.066.1.122.132.165a.165.165 0 0 1 .036.072 1.353 1.353 0 0 0 -.122.329h.03l.076-.023.224-.066.076-.026.1-.03h.046l.4-.135.168-.063.247-.092.468-.194.329-.138.168-.079.329-.148.059-.03.109-.056.053-.03h.023a1.42 1.42 0 0 0 0-.231v-.036-.082c.013-.085-.155-.28-.435-.385z" transform="translate(-334.45 -515.155)"/><path d="m336.289 574.576-.059-.026a.2.2 0 0 0 .059.026z" transform="translate(-335.644 -554.982)"/></g><path d="m344.469 618.354a15.409 15.409 0 0 1 -1.9 7.432 14.613 14.613 0 0 1 -.863 1.39 14.374 14.374 0 0 1 -1.006 1.324.3.3 0 0 1 -.063.066c-.138.165-.287.329-.438.481l-.046.049-.122.128c-.171.175-.346.329-.527.507a.586.586 0 0 1 -.066.063c-.082.076-.168.155-.257.227a12.03 12.03 0 0 1 -1.074.86l-.066.046-.135.1c-.059.046-.119.086-.181.128-.26.178-.524.349-.794.511l-.119.072-.092.053-.4.221-.194.1h-.026l-.053.03-.109.056-.059.03-.329.148-.168.079-.329.138-.468.194-.247.092-.168.063-.066.023-.329.112h-.046l-.1.03-.076.026-.089.026-.135.04-.076.023h-.1l-.138.036a.514.514 0 0 1 -.1.026l-.234.063c-.171.043-.346.082-.521.115-.283.059-.57.112-.857.155q-.257.04-.514.069h-.063l-.329.033c-.448.04-.9.063-1.354.066h-.376c-.329 0-.679-.023-1.015-.053h-.1l-.277-.026h-.158l-.329-.04-.158-.023h-.049l-.418-.073-.105-.02-.277-.053-.115-.026-.188-.046a.106.106 0 0 1 -.046 0c-.231-.049-.458-.109-.682-.171l-.119-.036h-.031l-.138-.04-.128-.039-.135-.043-.086-.03-.241-.082-.168-.059-.155-.069-.2-.079-.122-.049-.155-.063q-.257-.105-.5-.217c-.26-.119-.517-.244-.768-.382-.092-.043-.181-.092-.27-.142l-.069-.039-.079-.043-.224-.129-.122-.072a5.57 5.57 0 0 1 -.491-.329c-.165-.109-.329-.217-.481-.329l-.04-.026-.026-.02-.135-.1-.148-.109-.026-.02c-.063-.049-.129-.1-.188-.145a14.5 14.5 0 0 1 -1.2-1.044q-.534-.514-1.015-1.077a15.484 15.484 0 1 1 27.183-10.081z" fill="#009345" transform="translate(-219.441 -441.437)"/><path d="m351.136 648.994a.511.511 0 0 0 -.685-.224l-4.51 2.306a.534.534 0 0 0 -.056-.175.412.412 0 0 0 -.185-.329.306.306 0 0 1 -.1-.1.966.966 0 0 1 0-.1.3.3 0 0 0 -.053-.234.58.58 0 0 0 -.247-.422h-.016v-.116a.458.458 0 0 0 -.063-.208c-.016-.214-.171-.412-.481-.705a1.1 1.1 0 0 1 -.247-.441v-.02c-.056-.214-.112-.455-.191-.7a3.925 3.925 0 0 0 -.132-.409c-.244-.629-.511-.547-.619-.659s-.817-.254-1.179-.441a3.886 3.886 0 0 0 -1.628.072v-.063a3.051 3.051 0 0 0 2.109-3.552l-.02-.076a1.232 1.232 0 0 0 .468-.092.613.613 0 0 0 .214-.4 1.977 1.977 0 0 0 .059-.883c0-.03-.026-.059-.036-.089a.511.511 0 0 0 -.023-.076.33.33 0 0 0 0-.079 1.269 1.269 0 0 0 -.1-.27.046.046 0 0 1 0 .023 9.475 9.475 0 0 0 -.758-1.018c-.264-.4-.415-.9-.814-1.16a1.647 1.647 0 0 0 -1.361-.069 3.873 3.873 0 0 1 -.639.165 6.768 6.768 0 0 1 -1.091-.066 2.349 2.349 0 0 0 -1.45.385.814.814 0 0 0 -.237.237 1.239 1.239 0 0 0 -.105.428 2.086 2.086 0 0 1 -.283.781c-.112.191-.254.359-.356.554a.85.85 0 0 0 -.1.636c.036.112.1.211.129.329a1.2 1.2 0 0 1 -.231.751 1.429 1.429 0 0 0 -.158.715.922.922 0 0 0 .2.517.728.728 0 0 0 .066.135l.016.023a.929.929 0 0 0 .066.092l.033.033.066.066a1.107 1.107 0 0 0 .642.2 1.067 1.067 0 0 0 .056.105v.059a.327.327 0 0 0 0 .056 1.639 1.639 0 0 0 -.89.366 1.281 1.281 0 0 1 -.781.329s-.642.214-.629.27-.188.132-.593.24a2.612 2.612 0 0 0 -1.071.59c0 .1-1.061 1.137-1.061 1.245a2.635 2.635 0 0 0 -.283 1.216 4.349 4.349 0 0 1 -.079 1.756c-.161.148 0 .721 0 .721a.4.4 0 0 1 0 .428 3.639 3.639 0 0 0 .026 1.245v1.044a2.415 2.415 0 0 1 .059.455l.026.02.148.109.135.1.026.02.04.026c.158.112.329.221.481.329.161.109.329.211.491.329l.122.072.224.128.079.043.069.04c.089.049.178.1.27.142.25.138.507.264.768.382q.247.115.5.217l.155.063.122.049.2.079.158.059.168.059.241.082.086.03.135.043.129.039.138.04h.043l.119.036c.224.063.451.122.682.171a.107.107 0 0 0 .046 0l.188.046.115.026.277.053.105.02.418.072h.049l.158.023.329.04h.158l.277.026h.1c.329.03.659.046 1.015.053h.376c.458 0 .906-.026 1.354-.066l.329-.033h.063q.257-.03.514-.069c.287-.043.573-.1.857-.155.175-.033.349-.072.521-.115l.234-.063a.518.518 0 0 0 .1-.026l.138-.036h.1l.076-.023.135-.039.089-.026.076-.026.1-.03h.046l.329-.112.066-.023.168-.063.247-.092.468-.194.329-.138.168-.079.329-.148.059-.03.109-.056.053-.03h.023l.194-.1.4-.221.092-.053.119-.072c.27-.161.534-.329.794-.511.063-.043.122-.082.181-.128h.066l.069-.1.066-.046c.372-.27.731-.557 1.074-.86.089-.073.175-.152.257-.227a.591.591 0 0 0 .066-.063c.181-.165.356-.329.527-.507l.122-.128.046-.049c.152-.155.3-.329.438-.481zm-7.508 5.166-.082.02a.139.139 0 0 1 .026-.069s-.5.02-1.015.059a.755.755 0 0 1 .026-.254 6.04 6.04 0 0 0 .25-1.11l.876 1.338zm.168 2.543a1.172 1.172 0 0 0 0-.132c.03-.02.049-.036.053-.049a3.354 3.354 0 0 0 -.049-.438h.079l.926-.145a1.689 1.689 0 0 0 .329-.046l.076.148a4.764 4.764 0 0 0 -1.186.53.451.451 0 0 1 -.221.132z" fill="#a9d273" opacity=".37" transform="translate(-231.613 -465.157)"/><path d="m853.362 276.758-1.318-1.318a.7.7 0 0 0 -.988 0l-8.19 8.124-3.466-3.492a.689.689 0 0 0 -.988 0l-1.318 1.318a.7.7 0 0 0 0 .988l5.271 5.3a.7.7 0 0 0 .988 0l10-9.92a.7.7 0 0 0 .013-1z" fill="#8bc53f" transform="translate(-570.396 -221.785)"/><path d="m853.4 393.9-1.318-1.318a.7.7 0 0 0 -.988 0l-8.174 8.138-3.466-3.492a.689.689 0 0 0 -.988 0l-1.318 1.318a.7.7 0 0 0 0 .988l5.271 5.3a.7.7 0 0 0 .988 0l9.986-9.946a.7.7 0 0 0 .007-.988z" fill="#8bc53f" transform="translate(-570.429 -300.333)"/><path d="m853.359 630.3-1.318-1.318a.7.7 0 0 0 -.988 0l-8.19 8.124-3.466-3.492a.7.7 0 0 0 -.988 0l-1.318 1.318a.7.7 0 0 0 0 .988l5.271 5.3a.7.7 0 0 0 .988 0l10-9.923a.689.689 0 0 0 .013-1z" fill="#8bc53f" transform="translate(-570.393 -458.852)"/><ellipse cx="4.448" cy="8.922" fill="#2baf00" rx="4.448" ry="8.922" transform="matrix(.797 -.604 .604 .797 38.585 23.285)"/><ellipse cx="4.448" cy="8.922" opacity=".1" rx="4.448" ry="8.922" transform="matrix(.797 -.604 .604 .797 38.585 23.285)"/><ellipse cx="4.089" cy="8.691" fill="#8bc53f" rx="4.089" ry="8.691" transform="matrix(.797 -.604 .604 .797 38.988 23.267)"/><path d="m156.12 176.45a40.1 40.1 0 0 0 6.345 9.2c.481.517.988 1.025 1.463 1.532l2.751 2.833" fill="#009345" opacity=".3" transform="translate(-113.91 -155.546)"/><ellipse cx="4.448" cy="8.922" fill="#2baf00" rx="4.448" ry="8.922" transform="matrix(.797 -.604 .604 .797 26.722 8.46)"/><ellipse cx="4.448" cy="8.922" opacity=".1" rx="4.448" ry="8.922" transform="matrix(.797 -.604 .604 .797 26.722 8.46)"/><ellipse cx="4.089" cy="8.691" fill="#8bc53f" rx="4.089" ry="8.691" transform="matrix(.797 -.604 .604 .797 27.129 8.442)"/><path d="m120.12 131.45a40.1 40.1 0 0 0 6.345 9.2c.481.517.988 1.025 1.463 1.532l2.751 2.833" fill="#009345" opacity=".3" transform="translate(-89.771 -125.372)"/><ellipse cx="7.617" cy="3.799" fill="#2baf00" rx="7.617" ry="3.799" transform="matrix(.797 -.604 .604 .797 39.106 17.119)"/><ellipse cx="7.617" cy="3.799" opacity=".1" rx="7.617" ry="3.799" transform="matrix(.797 -.604 .604 .797 39.106 17.119)"/><ellipse cx="7.423" cy="3.492" fill="#8bc53f" rx="7.423" ry="3.492" transform="matrix(.797 -.604 .604 .797 39.432 17.227)"/><path d="m166.127 146.38a34.264 34.264 0 0 0 -7.851 5.42c-.445.412-.88.83-1.318 1.252l-2.418 2.348" fill="#009345" opacity=".3" transform="translate(-112.851 -135.383)"/><ellipse cx="7.617" cy="3.799" fill="#2baf00" rx="7.617" ry="3.799" transform="matrix(.86689675 -.49848774 .49848774 .86689675 26.958 24.836)"/><ellipse cx="7.617" cy="3.799" opacity=".1" rx="7.617" ry="3.799" transform="matrix(.86689675 -.49848774 .49848774 .86689675 26.958 24.836)"/><ellipse cx="7.423" cy="3.492" fill="#8bc53f" rx="7.423" ry="3.492" transform="matrix(.86689675 -.49848774 .49848774 .86689675 27.267 24.986)"/><path d="m116.08 183.139a34.184 34.184 0 0 1 8.049-5.123c.55-.247 1.1-.484 1.647-.718l3.107-1.318" fill="#009345" opacity=".3" transform="translate(-87.062 -155.231)"/><ellipse cx="1.637" cy="3.281" fill="#2baf00" rx="1.637" ry="3.281" transform="matrix(.79101002 -.61180319 .61180319 .79101002 36.09 16.239)"/><ellipse cx="1.637" cy="3.281" opacity=".1" rx="1.637" ry="3.281" transform="matrix(.79101002 -.61180319 .61180319 .79101002 36.09 16.239)"/><ellipse cx="1.506" cy="3.196" fill="#009345" rx="1.506" ry="3.196" transform="matrix(.79101002 -.61180319 .61180319 .79101002 36.253 16.223)"/><path d="m141.79 159.43a14.849 14.849 0 0 1 2.655 3.136c.138.217.273.441.405.659l.741 1.249" fill="#407d3b" opacity=".3" transform="translate(-104.302 -144.133)"/><ellipse cx="1.637" cy="3.281" fill="#2baf00" rx="1.637" ry="3.281" transform="matrix(.79101002 -.61180319 .61180319 .79101002 40.178 21.509)"/><ellipse cx="1.637" cy="3.281" opacity=".1" rx="1.637" ry="3.281" transform="matrix(.79101002 -.61180319 .61180319 .79101002 40.178 21.509)"/><ellipse cx="1.506" cy="3.196" fill="#009345" rx="1.506" ry="3.196" transform="matrix(.79101002 -.61180319 .61180319 .79101002 40.345 21.488)"/><path d="m154.2 175.41a14.754 14.754 0 0 1 2.655 3.136c.142.221.273.441.405.659l.745 1.249" fill="#407d3b" opacity=".3" transform="translate(-112.623 -154.849)"/><circle cx="41.462" cy="20.493" fill="#2baf00" r=".666"/><circle cx="41.462" cy="20.493" fill="#009345" opacity=".3" r=".666"/><path d="m987.639 682.609c-.089-.458-2.151-11.323 4.052-25.7 2.428-5.624 2.227-10.47-.59-14.4a13.969 13.969 0 0 0 -4.942-4.25l.731-1.621a15.711 15.711 0 0 1 5.667 4.836c2.2 3.074 4.128 8.368.778 16.143-5.986 13.883-3.953 24.554-3.953 24.66z" fill="#8bc53f" transform="translate(-670.489 -464.124)"/><path d="m1009.752 694.4c2.5-.214 4.573-.448 4.639.329s-1.9 2.27-4.395 2.484-4.573-.244-4.639-1.021 1.901-1.581 4.395-1.792z" fill="#2baf00" transform="translate(-683.36 -502.713)"/><path d="m1009.752 694.4c2.5-.214 4.573-.448 4.639.329s-1.9 2.27-4.395 2.484-4.573-.244-4.639-1.021 1.901-1.581 4.395-1.792z" opacity=".1" transform="translate(-683.36 -502.713)"/><path d="m1009.977 694.3c2.431-.208 4.448-.53 4.5.132s-1.868 2.053-4.3 2.26-4.448-.158-4.5-.817 1.869-1.362 4.3-1.575z" fill="#8bc53f" transform="translate(-683.576 -502.612)"/><path d="m1005.79 696.689a35.114 35.114 0 0 0 5.663-.329c.356-.049.708-.105 1.061-.161.659-.1 1.318-.9 1.977-.988" fill="#407d3b" opacity=".3" transform="translate(-683.652 -503.398)"/><path d="m996.465 738.422c2.494-.211 4.573-.445 4.639.329s-1.9 2.273-4.4 2.487-4.57-.244-4.639-1.021 1.906-1.581 4.4-1.795z" fill="#2baf00" transform="translate(-674.448 -532.235)"/><path d="m996.465 738.422c2.494-.211 4.573-.445 4.639.329s-1.9 2.273-4.4 2.487-4.57-.244-4.639-1.021 1.906-1.581 4.4-1.795z" opacity=".1" transform="translate(-674.448 -532.235)"/><path d="m996.73 738.331c2.431-.208 4.448-.53 4.5.129s-1.868 2.056-4.283 2.263-4.448-.158-4.5-.817 1.853-1.367 4.283-1.575z" fill="#8bc53f" transform="translate(-674.704 -532.135)"/><path d="m992.51 740.719a35.524 35.524 0 0 0 5.663-.329c.356-.049.708-.105 1.061-.161.659-.1 1.318-.9 1.977-.988" fill="#407d3b" opacity=".3" transform="translate(-674.747 -532.922)"/><path d="m984.736 688.348c-2.336-.906-4.263-1.713-4.547-.988s1.186 2.715 3.519 3.624 4.458 1.054 4.741.329-1.381-2.056-3.713-2.965z" fill="#2baf00" transform="translate(-666.462 -497.946)"/><path d="m984.736 688.348c-2.336-.906-4.263-1.713-4.547-.988s1.186 2.715 3.519 3.624 4.458 1.054 4.741.329-1.381-2.056-3.713-2.965z" opacity=".1" transform="translate(-666.462 -497.946)"/><path d="m985.076 688.25c-2.273-.883-4.118-1.763-4.359-1.143s1.216 2.5 3.489 3.38 4.313 1.1 4.553.484-1.403-1.851-3.683-2.721z" fill="#8bc53f" transform="translate(-666.822 -497.825)"/><path d="m988.91 691.338a35.261 35.261 0 0 1 -5.34-1.917c-.329-.148-.659-.3-.988-.455-.6-.283-1.011-1.229-1.611-1.515" fill="#407d3b" opacity=".3" transform="translate(-667.009 -498.194)"/><path d="m972.916 732.484c-2.336-.909-4.263-1.716-4.546-.988s1.186 2.715 3.522 3.624 4.454 1.054 4.738.329-1.382-2.059-3.714-2.965z" fill="#2baf00" transform="translate(-658.536 -527.539)"/><path d="m972.916 732.484c-2.336-.909-4.263-1.716-4.546-.988s1.186 2.715 3.522 3.624 4.454 1.054 4.738.329-1.382-2.059-3.714-2.965z" opacity=".1" transform="translate(-658.536 -527.539)"/><path d="m973.276 732.333c-2.273-.883-4.118-1.759-4.359-1.143s1.216 2.5 3.489 3.383 4.313 1.1 4.553.481-1.41-1.835-3.683-2.721z" fill="#8bc53f" transform="translate(-658.91 -527.385)"/><path d="m977.1 735.478a35.629 35.629 0 0 1 -5.354-1.921c-.329-.148-.659-.3-.972-.455-.6-.283-1.008-1.229-1.611-1.512" fill="#407d3b" opacity=".3" transform="translate(-659.09 -527.792)"/><path d="m971.1 742.988c-2.379.781-4.382 1.38-4.138 2.125s2.636 1.341 5.021.56 4.108-2.016 3.874-2.764-2.381-.709-4.757.079z" fill="#2baf00" transform="translate(-657.6 -535.023)"/><path d="m971.1 742.988c-2.379.781-4.382 1.38-4.138 2.125s2.636 1.341 5.021.56 4.108-2.016 3.874-2.764-2.381-.709-4.757.079z" opacity=".1" transform="translate(-657.6 -535.023)"/><path d="m971.186 742.96c-2.306.761-4.283 1.255-4.092 1.888s2.524 1.156 4.843.4 4.029-1.891 3.822-2.52-2.254-.516-4.573.232z" fill="#8bc53f" transform="translate(-657.696 -534.985)"/><path d="m975.869 743.66a35.052 35.052 0 0 1 -5.344 1.911l-1.038.267c-.659.165-1.562-.306-2.207-.145" fill="#407d3b" opacity=".3" transform="translate(-657.829 -535.885)"/><ellipse cx="3.505" cy="7.034" fill="#2baf00" rx="3.505" ry="7.034" transform="matrix(.23615982 -.97171423 .97171423 .23615982 317.235 176.206)"/><ellipse cx="3.505" cy="7.034" opacity=".1" rx="3.505" ry="7.034" transform="matrix(.23615982 -.97171423 .97171423 .23615982 317.235 176.206)"/><ellipse cx="3.225" cy="6.849" fill="#8bc53f" rx="3.225" ry="6.849" transform="matrix(.23615982 -.97171423 .97171423 .23615982 317.475 175.995)"/><path d="m994 637.88a31.558 31.558 0 0 0 8.454 2.458c.554.079 1.107.145 1.647.211l3.09.362" fill="#407d3b" opacity=".3" transform="translate(-675.746 -464.955)"/><ellipse cx="7.034" cy="3.505" fill="#2baf00" rx="7.034" ry="3.505" transform="matrix(.221 -.975 .975 .221 313.027 171.464)"/><ellipse cx="7.034" cy="3.505" opacity=".1" rx="7.034" ry="3.505" transform="matrix(.221 -.975 .975 .221 313.027 171.464)"/><ellipse cx="6.849" cy="3.225" fill="#8bc53f" rx="6.849" ry="3.225" transform="matrix(.221 -.975 .975 .221 313.358 171.35)"/><path d="m988.92 608.191a31.579 31.579 0 0 0 2.333-8.5c.072-.55.128-1.107.185-1.647l.329-3.1" fill="#407d3b" opacity=".3" transform="translate(-672.34 -436.169)"/><ellipse cx="7.034" cy="3.505" fill="#2baf00" rx="7.034" ry="3.505" transform="matrix(.221 -.975 .975 .221 309.52 186.74)"/><ellipse cx="7.034" cy="3.505" opacity=".1" rx="7.034" ry="3.505" transform="matrix(.221 -.975 .975 .221 309.52 186.74)"/><ellipse cx="6.849" cy="3.225" fill="#8bc53f" rx="6.849" ry="3.225" transform="matrix(.221 -.975 .975 .221 309.85 186.626)"/><path d="m978.28 654.551a31.7 31.7 0 0 0 2.326-8.5c.069-.55.129-1.107.185-1.647l.329-3.1" fill="#407d3b" opacity=".3" transform="translate(-665.205 -467.255)"/><ellipse cx="3.505" cy="7.034" fill="#2baf00" rx="3.505" ry="7.034" transform="matrix(.23615982 -.97171423 .97171423 .23615982 300.148 172.534)"/><ellipse cx="3.505" cy="7.034" opacity=".1" rx="3.505" ry="7.034" transform="matrix(.23615982 -.97171423 .97171423 .23615982 300.148 172.534)"/><ellipse cx="3.225" cy="6.849" fill="#8bc53f" rx="3.225" ry="6.849" transform="matrix(.23615982 -.97171423 .97171423 .23615982 300.389 172.326)"/><path d="m942.11 626.74a31.553 31.553 0 0 0 8.457 2.461c.55.079 1.1.145 1.647.211l3.094.362" fill="#407d3b" opacity=".3" transform="translate(-640.952 -457.485)"/><ellipse cx="2.998" cy="6.013" fill="#2baf00" rx="2.998" ry="6.013" transform="matrix(.797 -.604 .604 .797 314.069 174.787)"/><ellipse cx="2.998" cy="6.013" opacity=".1" rx="2.998" ry="6.013" transform="matrix(.797 -.604 .604 .797 314.069 174.787)"/><ellipse cx="2.758" cy="5.858" fill="#8bc53f" rx="2.758" ry="5.858" transform="matrix(.797 -.604 .604 .797 314.34 174.774)"/><path d="m988.7 638.59a27.033 27.033 0 0 0 4.283 6.2c.329.349.659.692.988 1.034l1.855 1.908" fill="#407d3b" opacity=".3" transform="translate(-672.192 -465.431)"/><ellipse cx="2.998" cy="6.013" fill="#2baf00" rx="2.998" ry="6.013" transform="matrix(.8 -.6 .6 .8 306.255 166.817)"/><ellipse cx="2.998" cy="6.013" fill="#009345" opacity=".74" rx="2.998" ry="6.013" transform="matrix(.8 -.6 .6 .8 306.255 166.817)"/><ellipse cx="2.758" cy="5.858" fill="#8bc53f" rx="2.758" ry="5.858" transform="matrix(.797 -.604 .604 .797 306.348 164.78)"/><path d="m964.44 608.26a26.929 26.929 0 0 0 4.283 6.2c.329.353.659.692.988 1.035l1.855 1.908" fill="#407d3b" opacity=".3" transform="translate(-655.925 -445.094)"/><ellipse cx="5.133" cy="2.56" fill="#2baf00" rx="5.133" ry="2.56" transform="matrix(.797 -.604 .604 .797 314.424 170.634)"/><ellipse cx="5.133" cy="2.56" opacity=".1" rx="5.133" ry="2.56" transform="matrix(.797 -.604 .604 .797 314.424 170.634)"/><ellipse cx="5.001" cy="2.352" fill="#8bc53f" rx="5.001" ry="2.352" transform="matrix(.797 -.604 .604 .797 314.645 170.709)"/><path d="m995.421 618.33a23 23 0 0 0 -5.291 3.654c-.3.273-.59.557-.883.84l-1.647 1.585" fill="#407d3b" opacity=".3" transform="translate(-671.455 -451.846)"/><ellipse cx="5.133" cy="2.56" fill="#2baf00" rx="5.133" ry="2.56" transform="matrix(.86689675 -.49848774 .49848774 .86689675 306.231 175.837)"/><ellipse cx="5.133" cy="2.56" opacity=".1" rx="5.133" ry="2.56" transform="matrix(.86689675 -.49848774 .49848774 .86689675 306.231 175.837)"/><ellipse cx="5.001" cy="2.352" fill="#8bc53f" rx="5.001" ry="2.352" transform="matrix(.86689675 -.49848774 .49848774 .86689675 306.443 175.939)"/><path d="m961.72 643.1a23.078 23.078 0 0 1 5.426-3.453c.369-.168.745-.329 1.117-.484l2.1-.886" fill="#407d3b" opacity=".3" transform="translate(-654.101 -465.224)"/><ellipse cx="1.104" cy="2.211" fill="#2baf00" rx="1.104" ry="2.211" transform="matrix(.79101002 -.61180319 .61180319 .79101002 312.382 170.016)"/><ellipse cx="1.104" cy="2.211" opacity=".1" rx="1.104" ry="2.211" transform="matrix(.79101002 -.61180319 .61180319 .79101002 312.382 170.016)"/><ellipse cx="1.015" cy="2.155" fill="#009345" rx="1.015" ry="2.155" transform="matrix(.79101002 -.61180319 .61180319 .79101002 312.493 170.003)"/><path d="m979.05 627.12a10 10 0 0 1 1.789 2.115c.092.148.184.3.273.448l.5.84" fill="#407d3b" opacity=".3" transform="translate(-665.721 -457.74)"/><ellipse cx="1.104" cy="2.211" fill="#2baf00" rx="1.104" ry="2.211" transform="matrix(.79101002 -.61180319 .61180319 .79101002 315.142 173.567)"/><ellipse cx="1.104" cy="2.211" opacity=".1" rx="1.104" ry="2.211" transform="matrix(.79101002 -.61180319 .61180319 .79101002 315.142 173.567)"/><ellipse cx="1.015" cy="2.155" fill="#009345" rx="1.015" ry="2.155" transform="matrix(.79101002 -.61180319 .61180319 .79101002 315.248 173.553)"/><path d="m987.41 637.89a9.923 9.923 0 0 1 1.792 2.115c.092.148.181.3.27.448l.5.84" fill="#407d3b" opacity=".3" transform="translate(-671.327 -464.962)"/><circle cx="316.007" cy="172.882" fill="#2baf00" r=".448"/><circle cx="316.007" cy="172.882" fill="#8bc53f" opacity=".3" r=".448"/><g fill="#009345" opacity=".1" transform="translate(21.581 137.644)"><path d="m143.245 618.67a39.926 39.926 0 0 1 .092-7.663 3.28 3.28 0 0 1 .036-.353c.023-.211.049-.425.076-.642a.554.554 0 0 1 .026-.2c.03-.254.066-.514.105-.778a.083.083 0 0 1 0-.026 51.936 51.936 0 0 1 3.505-12.556l.125-.293c.043-.1.086-.208.132-.313s.053-.119.076-.178.043-.1.063-.148c.112-.27.217-.534.329-.794v-.033a16.845 16.845 0 0 0 .886-10.272c-.023-.092-.046-.181-.072-.27a13.524 13.524 0 0 0 -2.049-4.283l-.155-.208c-.1-.142-.211-.28-.329-.415a15.906 15.906 0 0 0 -3.321-3.09l-.2-.138c-.105-.073-.208-.138-.3-.2s-.175-.112-.254-.158c-.148-.092-.283-.171-.4-.24l-.2-.105c-.26-.145-.422-.217-.448-.231l-.04.089-.063.135v.049l-.033.066v.043l-.049.112v.02l-.04.092v.026l-.082.185-.168.369-.02.046-.04.082-.04.092-.089.194.125.063.072.039a.03.03 0 0 1 .02 0h.02l.04.02.076.04.227.128.145.082c.267.158.59.366.949.619l.329.247.158.119c.155.119.329.25.478.385l.135.122c.092.076.188.161.28.247l.043.04c.27.25.544.521.814.817a13.331 13.331 0 0 1 .988 1.212c.105.145.2.293.3.441a11.771 11.771 0 0 1 .88 1.591 11.416 11.416 0 0 1 .758 2.247 1.354 1.354 0 0 1 .033.158 15.721 15.721 0 0 1 -1.156 9.225.161.161 0 0 1 0 .036c-.072.178-.145.356-.224.537v.023c-.02.043-.04.089-.056.132l-.231.547c-.049.115-.1.231-.142.329a53.8 53.8 0 0 0 -3.466 12.519v.033c-.036.247-.072.491-.1.731v.076a.112.112 0 0 0 0 .033v.059c-.023.191-.046.382-.066.57l-.02.184a.5.5 0 0 1 -.016.155q-.04.329-.069.659-.026.237-.04.465a41.247 41.247 0 0 0 -.089 5.983z" transform="translate(-124.883 -560.49)"/><path d="m163.519 632.294c2.468-.211 4.52-.441 4.586.329s-1.881 2.247-4.349 2.458-4.523-.24-4.589-1.008 1.881-1.573 4.352-1.779z" transform="translate(-137.533 -598.717)"/><path d="m163.519 632.294c2.468-.211 4.52-.441 4.586.329s-1.881 2.247-4.349 2.458-4.523-.24-4.589-1.008 1.881-1.573 4.352-1.779z" opacity=".1" transform="translate(-137.533 -598.717)"/><path d="m163.741 632.2c2.405-.208 4.4-.527 4.458.128s-1.848 2.033-4.253 2.237-4.4-.155-4.458-.81 1.848-1.347 4.253-1.555z" transform="translate(-137.749 -598.617)"/><path d="m159.6 634.529a35.143 35.143 0 0 0 5.6-.329l1.051-.161c.659-.1 1.3-.886 1.95-.988z" opacity=".3" transform="translate(-137.825 -599.361)"/><path d="m150.358 675.854c2.468-.211 4.523-.441 4.589.329s-1.884 2.247-4.352 2.458-4.523-.24-4.6-1.011 1.892-1.565 4.363-1.776z" transform="translate(-128.701 -627.926)"/><path d="m150.358 675.854c2.468-.211 4.523-.441 4.589.329s-1.884 2.247-4.352 2.458-4.523-.24-4.6-1.011 1.892-1.565 4.363-1.776z" opacity=".1" transform="translate(-128.701 -627.926)"/><path d="m150.608 675.759c2.405-.2 4.4-.524 4.458.128s-1.848 2.033-4.253 2.24-4.4-.158-4.454-.817 1.857-1.343 4.249-1.551z" transform="translate(-128.944 -627.825)"/><path d="m146.46 678.1a34.761 34.761 0 0 0 5.6-.329c.353-.049.7-.105 1.051-.158.659-.1 1.318-.886 1.95-.988z" opacity=".3" transform="translate(-129.014 -628.577)"/><path d="m138.784 626.306c-2.306-.9-4.214-1.7-4.494-.988s1.173 2.685 3.479 3.581 4.408 1.044 4.688.329-1.367-2.023-3.673-2.922z" transform="translate(-120.83 -593.994)"/><path d="m138.784 626.306c-2.306-.9-4.214-1.7-4.494-.988s1.173 2.685 3.479 3.581 4.408 1.044 4.688.329-1.367-2.023-3.673-2.922z" opacity=".1" transform="translate(-120.83 -593.994)"/><path d="m139.171 626.168c-2.25-.876-4.075-1.743-4.313-1.133s1.2 2.471 3.449 3.347 4.266 1.087 4.5.478-1.407-1.819-3.636-2.692z" transform="translate(-121.217 -593.849)"/><path d="m142.931 629.295a34.876 34.876 0 0 1 -5.271-1.9l-.975-.441c-.593-.28-.988-1.216-1.595-1.5z" opacity=".3" transform="translate(-121.39 -594.272)"/><path d="m127.077 669.965c-2.306-.9-4.217-1.7-4.5-.988s1.173 2.685 3.482 3.581 4.408 1.044 4.688.329-1.36-2.023-3.67-2.922z" transform="translate(-112.978 -623.269)"/><path d="m127.077 669.965c-2.306-.9-4.217-1.7-4.5-.988s1.173 2.685 3.482 3.581 4.408 1.044 4.688.329-1.36-2.023-3.67-2.922z" opacity=".1" transform="translate(-112.978 -623.269)"/><path d="m127.441 669.828c-2.25-.876-4.075-1.743-4.313-1.133s1.2 2.471 3.449 3.347 4.266 1.087 4.5.478-1.389-1.82-3.636-2.692z" transform="translate(-113.352 -623.125)"/><path d="m131.268 672.935a34.876 34.876 0 0 1 -5.271-1.9l-.962-.451c-.593-.28-.988-1.216-1.595-1.5z" opacity=".3" transform="translate(-113.578 -623.527)"/><path d="m125.281 680.382c-2.352.774-4.332 1.367-4.092 2.1s2.613 1.318 4.965.557 4.065-2 3.825-2.728-2.342-.7-4.698.071z" transform="translate(-112.056 -630.698)"/><path d="m125.281 680.382c-2.352.774-4.332 1.367-4.092 2.1s2.613 1.318 4.965.557 4.065-2 3.825-2.728-2.342-.7-4.698.071z" opacity=".1" transform="translate(-112.056 -630.698)"/><path d="m125.365 680.331c-2.306.751-4.253 1.242-4.046 1.865s2.494 1.143 4.787.392 3.986-1.871 3.782-2.494-2.23-.517-4.523.237z" transform="translate(-112.145 -630.634)"/><path d="m130 681a34.453 34.453 0 0 1 -5.288 1.891c-.329.092-.685.178-1.028.264-.639.161-1.545-.3-2.184-.142z" opacity=".3" transform="translate(-112.277 -631.514)"/><ellipse cx="3.469" cy="6.958" rx="3.469" ry="6.958" transform="matrix(.23615982 -.97171423 .97171423 .23615982 16.906 18.258)"/><ellipse cx="3.469" cy="6.958" opacity=".1" rx="3.469" ry="6.958" transform="matrix(.23615982 -.97171423 .97171423 .23615982 16.906 18.258)"/><ellipse cx="3.189" cy="6.777" rx="3.189" ry="6.777" transform="matrix(.23615982 -.97171423 .97171423 .23615982 17.143 18.05)"/><path d="m147.91 576.38a31.3 31.3 0 0 0 8.368 2.435c.544.079 1.094.142 1.647.208l3.057.356z" opacity=".3" transform="translate(-129.986 -561.361)"/><ellipse cx="6.958" cy="3.469" rx="6.958" ry="3.469" transform="matrix(.221 -.975 .975 .221 12.747 13.572)"/><ellipse cx="6.958" cy="3.469" opacity=".1" rx="6.958" ry="3.469" transform="matrix(.221 -.975 .975 .221 12.747 13.572)"/><ellipse cx="6.777" cy="3.189" rx="6.777" ry="3.189" transform="matrix(.221 -.975 .975 .221 13.077 13.462)"/><path d="m142.91 546.982a31.394 31.394 0 0 0 2.306-8.4c.069-.547.125-1.1.181-1.647l.31-3.064z" opacity=".3" transform="translate(-126.633 -532.856)"/><ellipse cx="6.958" cy="3.469" rx="6.958" ry="3.469" transform="matrix(.221 -.975 .975 .221 9.279 28.681)"/><ellipse cx="6.958" cy="3.469" opacity=".1" rx="6.958" ry="3.469" transform="matrix(.221 -.975 .975 .221 9.279 28.681)"/><ellipse cx="6.777" cy="3.189" rx="6.777" ry="3.189" transform="matrix(.221 -.975 .975 .221 9.612 28.575)"/><path d="m132.38 592.846a31.206 31.206 0 0 0 2.306-8.4c.069-.547.125-1.1.181-1.647l.31-3.064z" opacity=".3" transform="translate(-119.573 -563.608)"/><ellipse cx="3.469" cy="6.958" rx="3.469" ry="6.958" transform="matrix(.23615982 -.97171423 .97171423 .23615982 0 14.63)"/><ellipse cx="3.469" cy="6.958" opacity=".1" rx="3.469" ry="6.958" transform="matrix(.23615982 -.97171423 .97171423 .23615982 0 14.63)"/><ellipse cx="3.189" cy="6.777" rx="3.189" ry="6.777" transform="matrix(.23615982 -.97171423 .97171423 .23615982 .237 14.421)"/><path d="m96.6 565.37a31.3 31.3 0 0 0 8.368 2.435c.544.079 1.094.142 1.647.2l3.057.359z" opacity=".3" transform="translate(-95.58 -553.979)"/><ellipse cx="2.965" cy="5.947" rx="2.965" ry="5.947" transform="matrix(.797 -.604 .604 .797 13.787 16.85)"/><ellipse cx="2.965" cy="5.947" opacity=".1" rx="2.965" ry="5.947" transform="matrix(.797 -.604 .604 .797 13.787 16.85)"/><ellipse cx="2.728" cy="5.795" rx="2.728" ry="5.795" transform="matrix(.797 -.604 .604 .797 14.053 16.837)"/><path d="m142.7 577.09a26.763 26.763 0 0 0 4.23 6.131c.329.329.659.685.988 1.021l1.835 1.888z" opacity=".3" transform="translate(-126.493 -561.837)"/><ellipse cx="2.965" cy="5.947" rx="2.965" ry="5.947" transform="matrix(.797 -.604 .604 .797 5.878 6.961)"/><ellipse cx="2.965" cy="5.947" opacity=".1" rx="2.965" ry="5.947" transform="matrix(.797 -.604 .604 .797 5.878 6.961)"/><ellipse cx="2.728" cy="5.795" rx="2.728" ry="5.795" transform="matrix(.797 -.604 .604 .797 6.146 6.95)"/><path d="m118.7 547.09a26.686 26.686 0 0 0 4.23 6.128c.329.349.659.685.988 1.025l1.835 1.888z" opacity=".3" transform="translate(-110.399 -541.721)"/><ellipse cx="5.08" cy="2.534" rx="5.08" ry="2.534" transform="matrix(.797 -.604 .604 .797 14.128 12.737)"/><ellipse cx="5.08" cy="2.534" opacity=".1" rx="5.08" ry="2.534" transform="matrix(.797 -.604 .604 .797 14.128 12.737)"/><ellipse cx="4.948" cy="2.329" rx="4.948" ry="2.329" transform="matrix(.797 -.604 .604 .797 14.346 12.808)"/><path d="m149.379 557a22.891 22.891 0 0 0 -5.235 3.624c-.293.273-.583.553-.873.833l-1.611 1.568z" opacity=".3" transform="translate(-125.795 -548.366)"/><ellipse cx="5.08" cy="2.534" rx="5.08" ry="2.534" transform="matrix(.86689675 -.49848774 .49848774 .86689675 6.025 17.884)"/><ellipse cx="5.08" cy="2.534" opacity=".1" rx="5.08" ry="2.534" transform="matrix(.86689675 -.49848774 .49848774 .86689675 6.025 17.884)"/><ellipse cx="4.948" cy="2.329" rx="4.948" ry="2.329" transform="matrix(.86689675 -.49848774 .49848774 .86689675 6.235 17.981)"/><path d="m116 581.56a22.731 22.731 0 0 1 5.367-3.416c.366-.165.738-.329 1.107-.481l2.072-.873z" opacity=".3" transform="translate(-108.589 -561.636)"/><ellipse cx="1.09" cy="2.188" rx="1.09" ry="2.188" transform="matrix(.79101002 -.61180319 .61180319 .79101002 12.13 12.142)"/><ellipse cx="1.09" cy="2.188" opacity=".1" rx="1.09" ry="2.188" transform="matrix(.79101002 -.61180319 .61180319 .79101002 12.13 12.142)"/><ellipse cx="1.002" cy="2.132" rx="1.002" ry="2.132" transform="matrix(.79101002 -.61180319 .61180319 .79101002 12.238 12.13)"/><path d="m133.14 565.74a9.789 9.789 0 0 1 1.772 2.092c.092.145.181.3.27.445l.494.83z" opacity=".3" transform="translate(-120.082 -554.227)"/><ellipse cx="1.09" cy="2.188" rx="1.09" ry="2.188" transform="matrix(.79101002 -.61180319 .61180319 .79101002 14.858 15.653)"/><ellipse cx="1.09" cy="2.188" opacity=".1" rx="1.09" ry="2.188" transform="matrix(.79101002 -.61180319 .61180319 .79101002 14.858 15.653)"/><ellipse cx="1.002" cy="2.132" rx="1.002" ry="2.132" transform="matrix(.79101002 -.61180319 .61180319 .79101002 14.964 15.639)"/><path d="m141.42 576.4a9.883 9.883 0 0 1 1.772 2.089c.092.148.181.3.27.445l.494.834z" opacity=".3" transform="translate(-125.634 -561.375)"/><circle cx="15.71" cy="14.979" r=".441"/><circle cx="15.71" cy="14.979" opacity=".3" r=".441"/></g><path d="m328.337 479.362a4.738 4.738 0 0 0 -4.747-2.227v3.387h2.056l1.621-.418z" fill="#4c4981" transform="translate(-226.206 -357.133)"/><path d="m328.337 479.362a4.738 4.738 0 0 0 -4.747-2.227v3.387h2.056l1.621-.418z" opacity=".1" transform="translate(-226.206 -357.133)"/><path d="m323.17 464.763 2.517 1.766s.023-.356.086-.837c.125-.913.409-2.283 1.015-2.55.926-.405 11.228-4.283 7.578-5.584s-9.258 2.965-9.258 2.965-.29.1-.751 1.054c-.244.5-.56 1.357-.8 2.052-.226.633-.387 1.134-.387 1.134z" fill="#bf9792" transform="translate(-225.925 -343.875)"/><path d="m231.844 374.865-.287-.135-.807.919.659 1.4 1.123-.448-.26-1.123z" fill="#4c4981" transform="translate(-154.728 -251.26)"/><path d="m267.458 737.607s.725-.089 1.015 1.041.721 4.253.721 4.253a7.723 7.723 0 0 0 .521 2.342c.346.432.7 3.156-1.766 3.5a3.553 3.553 0 0 1 -3.528-1.318l.086-7.577z" fill="#444053" transform="translate(-186.53 -531.825)"/><path d="m244.223 738.64a5.851 5.851 0 0 0 -1.519 3.538c.03 1.891.175 4.454.175 4.454s.142 1.041-.175 1.318 0 1.736 0 1.736 2.721 2.527 5-.214a7.144 7.144 0 0 0 .26-2.57c-.188-1.008-.692-5.548-.692-5.548z" fill="#444053" transform="translate(-171.875 -532.519)"/><path d="m236 630.415a48.856 48.856 0 0 0 2.23 5.383 11.7 11.7 0 0 1 1.127 2.833l.6 3.733a20.784 20.784 0 0 1 .2 2.52c-.03.837 1.506 13.076 1.506 13.076l2.431 3.1s1.071 2.171.9 3.067a4.554 4.554 0 0 0 .461 2.777s.059 2.837.145 3.472-.329 2.431 0 2.748 4.573.175 4.688-.329a15.748 15.748 0 0 0 -.521-3.038l-.376-2.431s-.754-1.318-.58-1.766-.329-1.446-.346-1.532-.81-1.506-.659-2.056-.9-12.21-.9-12.21l-2.965-20.92z" fill="#ae6e79" transform="translate(-167.474 -458.894)"/><path d="m236 630.415s.237.659.563 1.522a29.716 29.716 0 0 0 1.667 3.861 11.946 11.946 0 0 1 1.127 2.833l.6 3.733a20.773 20.773 0 0 1 .2 2.517c0 .329.221 2.445.507 4.879.438 3.723.988 8.2.988 8.2l2.431 3.1s.122.247.277.609a5.72 5.72 0 0 1 .619 2.458 4.554 4.554 0 0 0 .461 2.777s.059 2.837.145 3.472-.329 2.428 0 2.748 4.573.175 4.688-.329a15.747 15.747 0 0 0 -.521-3.038l-.376-2.431s-.751-1.318-.58-1.766-.329-1.446-.346-1.532-.81-1.506-.659-2.056c.109-.418-.468-7.274-.748-10.523-.089-1.021-.148-1.687-.148-1.687l-2.566-17.995-.2-1.453-.211-1.473z" fill="#bf9792" opacity=".6" transform="translate(-167.474 -458.894)"/><path d="m243.87 676.735c-.03.329 4.079.781 4.665.435s0-4.659 0-4.659l-.267-1.977c.287-.03.722-1.591.521-1.977a5.546 5.546 0 0 1 .175-1.977l.682-2.135.415-1.318a60.962 60.962 0 0 0 2.263-8.932 25.83 25.83 0 0 0 .573-3.769 35.78 35.78 0 0 1 .231-4.313 23.814 23.814 0 0 1 1.1-5.064 47.893 47.893 0 0 0 1.759-5.775c.26-.988.441-1.72.441-1.72s-4.375-.366-7.024-.494c-1.222-.059-2.079-.066-1.977.033a3.591 3.591 0 0 1 .119 1.4 35.757 35.757 0 0 1 -.58 6.414 22.3 22.3 0 0 0 -.639 5.584 17.786 17.786 0 0 1 .119 2.893 12.848 12.848 0 0 0 -.507 3.143 42.313 42.313 0 0 0 .1 5.653s-.432 7.034-.329 7.7-.926 2.751-.926 3.156-.29 3.153-.29 3.153-.582 4.226-.624 4.546z" fill="#bf9792" transform="translate(-172.75 -461.696)"/><path d="m236.93 484.248.5.534.329.349 1.894 2.036 4.876.55 2.6-.7.659-.171s0-1.318-.119-2.873c-.165-2.01-.56-4.448-1.5-5.113a3.736 3.736 0 0 1 -1.1-1.394 7.91 7.91 0 0 1 -.471-1.17c-.02-.053-.033-.1-.049-.152a13.042 13.042 0 0 1 -.461-2.145s-.626-.329-1.489-.751c-2.267-1.054-6.177-2.517-4.817.751a12.1 12.1 0 0 1 .511 1.466c.02.073.04.145.056.217a4.735 4.735 0 0 1 -.185 3.525 2.422 2.422 0 0 1 -.194.3 1.6 1.6 0 0 1 -.329.329l-.563 3.575-.046.3z" fill="#bf9792" transform="translate(-168.097 -353.724)"/><path d="m238.908 474.524c.257.619-.125-.5 0 0 1.031.735 3.463 2.823 4.827 2.823a3.728 3.728 0 0 0 1.977-.524 12.967 12.967 0 0 1 -.511-2.306s-8.174-4.507-6.293.007z" opacity=".1" transform="translate(-169.235 -354.071)"/><path d="m233.17 454.2a6.3 6.3 0 0 0 5.647 6.26 6.2 6.2 0 0 0 .659.036 6.309 6.309 0 1 0 -6.306-6.308z" fill="#bf9792" transform="translate(-165.576 -337.552)"/><path d="m230.43 520.216.9 2.342s.735.033 1.875.069c3.848.122 12.332.277 12.71-.705a2.441 2.441 0 0 0 .132-.781 15.189 15.189 0 0 0 -.659-3.822s-.405-4.612-.405-4.83.353-3.476.353-3.476l-.692-2.6-1.94-1.351s-.87 1.334-1.39 1.446a3.663 3.663 0 0 0 -1.212.754s-1.707 1.041-2.257.461-4.833-3.123-4.833-3.123l-2.257 2.487z" opacity=".1" transform="translate(-163.739 -375.585)"/><path d="m230.43 521.283.9 2.346s.735.033 1.875.066h.112c.491 0 1.054.033 1.647.046a72.255 72.255 0 0 0 9.475-.234c.827-.119 1.367-.287 1.46-.521a1.766 1.766 0 0 0 .1-.432 2.877 2.877 0 0 0 .03-.329 15.157 15.157 0 0 0 -.659-3.822s-.405-4.632-.405-4.833.346-3.443.346-3.443l-.692-2.606-1.334-.932-.606-.425a8.7 8.7 0 0 1 -.659.873 1.753 1.753 0 0 1 -.725.573 3.624 3.624 0 0 0 -1.212.751s-1.707 1.044-2.257.465a43.53 43.53 0 0 0 -4.227-2.761l-.606-.366-.3.329-1.954 2.155z" fill="#fff" transform="translate(-163.739 -376.323)"/><path d="m323.17 477.63 2.517 1.766s.023-.356.086-.837a5.094 5.094 0 0 1 -2.217-2.059c-.225.629-.386 1.13-.386 1.13z" opacity=".1" transform="translate(-225.925 -356.743)"/><path d="m293.081 484.082.55-.145a4.584 4.584 0 0 0 1.417 1.071 7.767 7.767 0 0 1 1.621.84l1.272 1.011s.955.145.659-.521.524-1.506.524-1.506a23.975 23.975 0 0 0 1.618-4.019 20.674 20.674 0 0 1 1.318-3.624s1.68 3.268 4.747 2.227c0 0-2.23 5-2.286 6.26a23.728 23.728 0 0 1 -1.535 4.718 3.259 3.259 0 0 1 -3.528 2.428s-4.108.764-5 0a7.117 7.117 0 0 0 -2.141-1.453 1.68 1.68 0 0 1 -.81-.58v-3.449z" fill="#1394df" transform="translate(-204.689 -357.206)"/><path d="m311.087 508s-.721 2.692-.26 2.982z" opacity=".1" transform="translate(-217.545 -377.865)"/><path d="m238.84 557.3c3.848.125 12.332.277 12.71-.705a2.4 2.4 0 0 0 .132-.778l-12.575.659z" opacity=".1" transform="translate(-169.378 -409.93)"/><path d="m236 630.381s.237.659.563 1.525c1.6-.1 3.713-.2 5.719-.214.712 0 1.407 0 2.062.023a15.537 15.537 0 0 1 3.374.372 8.9 8.9 0 0 0 3 .389c.26-.988.441-1.72.441-1.72s-4.375-.366-7.024-.494l-.211-1.473z" opacity=".1" transform="translate(-167.474 -458.86)"/><path d="m225.69 571.473.491 1.041s.069.31.155.8a20.873 20.873 0 0 1 .369 4.49 34.368 34.368 0 0 0 .329 5.6s10.648-.9 13.771 0 4.662 0 4.662 0-.379-3.357.547-5.09c.633-1.189 1.077-6.467 1.094-9.933a8.747 8.747 0 0 0 -.283-3.061c-.636-.781-3.354-8.6-3.354-8.6l-.623.033-1.647.089-9.416.5-1.479.076-.155.478z" fill="#e6e6e6" transform="translate(-160.56 -410.541)"/><path d="m211.286 582.562-.086.926s4.662-1.519 4.428-3.387 0-1.647 0-1.647l-3.749.329z" fill="#4c4981" transform="translate(-150.844 -425.102)"/><path d="m211.286 582.562-.086.926s4.662-1.519 4.428-3.387 0-1.647 0-1.647l-3.749.329z" opacity=".1" transform="translate(-150.844 -425.102)"/><path d="m299.137 508.785a4.145 4.145 0 0 1 -1.647.853 1.074 1.074 0 0 0 .484-.227c.329-.237.659-.494.972-.748a3.077 3.077 0 0 1 .9-.623 4.94 4.94 0 0 1 -.709.745z" opacity=".1" transform="translate(-208.705 -377.892)"/><path d="m301.3 511.647a2.105 2.105 0 0 0 -.359.57 2.334 2.334 0 0 0 -.1.741 2.306 2.306 0 0 0 .129 1.051l.758-1.8c.128-.306.26-.613.418-.906.066-.129.5-.659.448-.761-.141-.312-1.149.933-1.294 1.105z" opacity=".1" transform="translate(-210.943 -379.535)"/><path d="m236.224 543.013a2.4 2.4 0 0 1 -1.364-.633c.771.1 1.5.4 2.257.557a3.347 3.347 0 0 0 2.1-.194 5.145 5.145 0 0 1 -2.993.27z" opacity=".1" transform="translate(-166.709 -400.918)"/><path d="m245.55 523.57a.524.524 0 0 0 .392-.1q.866-.494 1.707-1.034a10.417 10.417 0 0 0 1.674-1.156 8.506 8.506 0 0 1 -3.773 2.29z" opacity=".1" transform="translate(-173.877 -386.77)"/><path d="m237.334 545.688a3.593 3.593 0 0 1 -.9-.069 1.219 1.219 0 0 1 -.741-.491.412.412 0 0 1 .313.053 5.347 5.347 0 0 0 2.906.346 4.154 4.154 0 0 1 -1.575.161z" opacity=".1" transform="translate(-167.266 -402.754)"/><path d="m257.32 587.12a9.315 9.315 0 0 0 1.848.362 10.855 10.855 0 0 0 1.463-.026l2.369-.156 1.186-.076c.138 0 .712 0 .428-.28-.142-.138-.932-.049-1.137-.056-.392 0-.787-.02-1.179-.023q-1.176 0-2.352.049c-.877.045-1.746.114-2.626.206z" opacity=".1" transform="translate(-181.77 -430.751)"/><path d="m265.64 590.741a9.889 9.889 0 0 1 1.334.273 8.609 8.609 0 0 0 1.4.056 7.831 7.831 0 0 0 2.692-.55c-1.812.092-3.621.158-5.426.221z" opacity=".1" transform="translate(-187.348 -433.198)"/><path d="m273.7 594.852a4.115 4.115 0 0 0 -.514.142 6.009 6.009 0 0 1 -3.071-.214 1.842 1.842 0 0 0 1.166.659 5.455 5.455 0 0 0 2.273.082c.237-.046.83-.132.952-.379.187-.395-.571-.342-.806-.29z" opacity=".1" transform="translate(-190.352 -436.055)"/><path d="m246.814 599.544a8.338 8.338 0 0 0 -.886.231 7.535 7.535 0 0 1 -3.42-.362 15.89 15.89 0 0 0 -4.138-.385 3.658 3.658 0 0 1 .89.293c.329.1.642.184.965.267a19.459 19.459 0 0 0 1.934.376 19.985 19.985 0 0 0 3.953.175 5.838 5.838 0 0 0 2.178-.28 2.419 2.419 0 0 0 -1.476-.313z" opacity=".1" transform="translate(-169.063 -438.894)"/><path d="m261.82 489.564a15.186 15.186 0 0 0 .376 3.881c.135.379.349 1.077.58 1.858.257.87.53 1.842.745 2.6l.356 1.275s.988 7.96 1.229 11.752v.2a4.2 4.2 0 0 0 .072.659c.56 3.766 3.812 9.577 4.9 10.042a3.3 3.3 0 0 1 .919.629 8.747 8.747 0 0 0 -.283-3.061c-.636-.781-3.354-8.6-3.354-8.6l-.623.033a2.877 2.877 0 0 0 .03-.329 15.157 15.157 0 0 0 -.659-3.822s-.405-4.632-.405-4.833.346-3.443.346-3.443l-.692-2.606-1.334-.932c-.165-2.01-.56-4.448-1.5-5.113a3.736 3.736 0 0 1 -1.1-1.394c-.184.026.155-.138.155-.138z" opacity=".1" transform="translate(-184.481 -364.602)"/><path d="m261.2 487.582a1.733 1.733 0 0 1 1.466.165 3.7 3.7 0 0 0 2.306.349 30.975 30.975 0 0 1 4.253-.435c.3.115.866-.405 1.242.29s.55 1.071.926 1.242 1.041.725.955.84.955.81.955.81l-2.112 6.856s1.361 8.681 2.026 9.436 6.566 10.5 4.454 12.239a42.438 42.438 0 0 1 -5.294 3.558c-.231.115-1.071-1.446-2.227-1.94s-4.734-7-4.968-10.7-1.245-11.949-1.245-11.949-1.242-4.514-1.677-5.729a15.185 15.185 0 0 1 -.376-3.881z" fill="#0b8bd5" transform="translate(-184.371 -364.112)"/><path d="m225.69 529.712.491 1.041s.069.31.155.8a.452.452 0 0 0 .25-.109c.725-.58 4.978-4.942 5.179-8.826.148-2.86.079-5.324.033-6.421 0-.346-.03-.554-.03-.6s-3.295-3.993-2.922-5.41 1.229-9.011 1.229-9.011l.128-.988.217-1.677.527-4.065-.544.128a1.6 1.6 0 0 1 -.329.329l-.563 3.575-1.954 2.155-.329 13.106.9 2.346s.735.033 1.875.066h.112z" opacity=".1" transform="translate(-160.56 -368.779)"/><path d="m215.525 507.7s.814-.329.87 0 .2 1.011.2 1.011-.135 1.693.461 2.352.721 3.463.721 3.463.988 2.777.511 3.647a24.193 24.193 0 0 0 -.689 3.785c-.165 1.179-.329 2.484-.474 3.67-.26 2.158-.458 3.953-.458 3.953s.521 1.911 1.245 1.318 4.978-4.942 5.179-8.826c.142-2.721.086-5.09.036-6.26-.02-.494-.036-.774-.036-.774s-3.295-3.993-2.922-5.41 1.232-8.991 1.232-8.991l.152-1.173.161-1.258.036-.277.524-4.033c-.092.023-3.337.758-3.766 1.183a13.05 13.05 0 0 1 -3.067 1.041 2.306 2.306 0 0 0 -1.647 1.687 2.584 2.584 0 0 0 -.066.254c-.346 1.68-.231 1.881-.465 2.171s2.262 7.467 2.262 7.467z" fill="#0b8bd5" transform="translate(-152.221 -368.41)"/><path d="m225 582.76c1.189-.234 2.939-.781 2.9-1.977-.036-1.13-1.4-1.539-2.425-1.684-.175 1.171-.34 2.475-.475 3.661z" opacity=".1" transform="translate(-160.098 -425.541)"/><path d="m213.815 581.623c.046.1.244.191.5.267a13.5 13.5 0 0 0 1.927.313s4.023-.329 3.953-2.141c-.04-1.318-1.858-1.647-2.879-1.736-.4-.033-.679-.026-.679-.026s-2.997 2.947-2.822 3.323z" fill="#ffb8b8" transform="translate(-152.593 -425.003)"/><path d="m213.815 581.623c.046.1.244.191.5.267 1.051-1.4 2.514-3.2 3.229-3.36 0 0-.082-.082-.217-.2-.4-.033-.679-.026-.679-.026s-3.007 2.943-2.833 3.319z" opacity=".1" transform="translate(-152.593 -425.003)"/><path d="m199.766 512.6-1.186.175a20.561 20.561 0 0 1 -1.42 2.168 2.362 2.362 0 0 0 -.521 1.39 17.632 17.632 0 0 1 -2.286 2.863c-.55.287-1.387 2.257-1.387 2.257s-1.361.9-1.361 1.911a16.8 16.8 0 0 1 -.26 2.517 7.132 7.132 0 0 0 .781 2.837 9.845 9.845 0 0 1 1.13 3.242c-.026.349 1.618 2.2 2.082 2.777a11.484 11.484 0 0 1 1.011 1.707l1.535 2.893s3.239-4.774 4.428-5.034a8.943 8.943 0 0 0 -2-1.506c-.679-.231-1.318-2.141-1.318-2.573a3.412 3.412 0 0 0 -1.216-2.141c-.606-.26-.926-.521-.659-.926s0-1.186 0-1.186a12.4 12.4 0 0 0 1.937-3.561 3.8 3.8 0 0 1 1.8-2.168l.9-2.2z" fill="#1394df" transform="translate(-137.529 -380.949)"/><path d="m199.093 543.586a3.726 3.726 0 0 0 -2.333-.886 2.856 2.856 0 0 1 1.525.6 3.373 3.373 0 0 1 .425.54c.138.194 1.255 1.618 1.433 1.394.264-.334-.826-1.447-1.05-1.648z" opacity=".1" transform="translate(-141.161 -401.133)"/><path d="m208.742 531.836a.988.988 0 0 1 -.827-.586 3.275 3.275 0 0 1 -.257-1.025 15.128 15.128 0 0 0 -.359-1.759 1.15 1.15 0 0 1 -.059-.366 1.048 1.048 0 0 1 .112-.353 2.36 2.36 0 0 1 .254-.527 3.2 3.2 0 0 1 .362 1.1c.109.4.211.787.3 1.186.053.201.445 2.33.474 2.33z" opacity=".1" transform="translate(-148.189 -390.753)"/><path d="m214.91 466.98a2.481 2.481 0 0 0 .4.412c.465.376 1.1.692 1.16 1.285a1.433 1.433 0 0 0 .069.573c.152.257.527.237.82.184a1.41 1.41 0 0 0 .692-.254c.313-.267.329-.738.577-1.071a1.456 1.456 0 0 1 1.173-.524c.441-.016.883.082 1.318.105a3.655 3.655 0 0 0 .847-.059 2.755 2.755 0 0 0 .277-.056 3.624 3.624 0 0 0 .577-.2 2.4 2.4 0 0 0 .28-.132 3.772 3.772 0 0 0 .817-.567 2.033 2.033 0 0 0 .758-1.535 9.774 9.774 0 0 0 -.247-1.054 3.307 3.307 0 0 1 1.239-2.718c.293-.29.606-.573.9-.87a4.356 4.356 0 0 0 1.058-1.509 4.593 4.593 0 0 0 .191-1.884 12.377 12.377 0 0 1 -.056-1.944c.217-2.306 2.181-4.062 4.145-5.021l.086-.046a6.306 6.306 0 1 0 -8.48 9.225c.02.072.04.145.056.217a4.735 4.735 0 0 1 -.184 3.525c-.092.023-3.337.758-3.766 1.183a13.051 13.051 0 0 1 -3.067 1.041 2.306 2.306 0 0 0 -1.64 1.694z" opacity=".1" transform="translate(-153.332 -337.58)"/><path d="m230.84 442.723c-.132-.148-.329-.224-.458-.369-.412-.445 0-1.17-.152-1.756a1.45 1.45 0 0 0 -1.628-.866c-.669.069-1.291.376-1.96.451a8.525 8.525 0 0 1 -3.047-.6 2.928 2.928 0 0 0 -2.929.5c-.7.774-.659 2.092-1.515 2.652a10.027 10.027 0 0 1 -1.334.481 2.814 2.814 0 0 0 -1.133 1.081 5.663 5.663 0 0 0 -.853 3.624c.072.685.27 1.354.349 2.039a5.953 5.953 0 0 1 -.138 2.132 2.251 2.251 0 0 1 -1.288 1.7 2.183 2.183 0 0 0 -.481.165c-.409.254-.353.857-.25 1.318l.432 1.931c-.405.31-1.034.178-1.427.5a1.193 1.193 0 0 0 -.329.521 2.846 2.846 0 0 0 .847 3.127c.461.376 1.1.692 1.16 1.285a1.361 1.361 0 0 0 .069.57c.152.26.524.241.82.188a1.433 1.433 0 0 0 .689-.257c.329-.264.329-.738.577-1.071a1.466 1.466 0 0 1 1.173-.524c.445 0 .883.086 1.318.105a3.917 3.917 0 0 0 2.8-1.008 2.03 2.03 0 0 0 .758-1.539 9.158 9.158 0 0 0 -.247-1.051 3.337 3.337 0 0 1 1.239-2.721 7.436 7.436 0 0 0 1.96-2.375c.445-1.206 0-2.55.132-3.828.217-2.306 2.181-4.062 4.148-5.024.458-.232 1.205-.804.698-1.381z" fill="#444053" transform="translate(-151.738 -331.881)"/><path d="m219.786 463.214c.329-.264.329-.738.577-1.071a1.466 1.466 0 0 1 1.173-.524c.445 0 .883.082 1.318.105a3.91 3.91 0 0 0 2.8-1.011 2.033 2.033 0 0 0 .758-1.535 9.966 9.966 0 0 0 -.247-1.054 3.307 3.307 0 0 1 1.239-2.718 7.283 7.283 0 0 0 1.957-2.379c.448-1.2 0-2.547.135-3.825.217-2.306 2.181-4.065 4.145-5.024.461-.224 1.2-.8.7-1.374-.128-.148-.329-.224-.458-.369-.409-.445 0-1.173-.152-1.756a.906.906 0 0 0 -.148-.329 1.249 1.249 0 0 1 1.067.843c.145.586-.26 1.318.152 1.756.132.145.329.221.458.369.507.58-.237 1.15-.7 1.374-1.977.959-3.93 2.721-4.148 5.024-.122 1.278.313 2.636-.132 3.825a7.274 7.274 0 0 1 -1.96 2.379 3.32 3.32 0 0 0 -1.239 2.721 9.163 9.163 0 0 1 .247 1.051 2.023 2.023 0 0 1 -.758 1.535 3.9 3.9 0 0 1 -2.8 1.011c-.445-.023-.883-.119-1.318-.105a1.466 1.466 0 0 0 -1.173.524c-.237.329-.264.807-.577 1.071a1.433 1.433 0 0 1 -.689.257c-.3.053-.659.072-.82-.188a.659.659 0 0 1 -.066-.329 1.351 1.351 0 0 0 .659-.254z" opacity=".1" transform="translate(-156.159 -332.503)"/></svg>