<svg height="232" viewBox="0 0 322 232" width="322" xmlns="http://www.w3.org/2000/svg"><path d="m416.554 595.277q-24.888-3.65-47.869-6.294l6.058-9.818c-2.042-.6-11.016 4.993-11.016 4.993l7.953-28.544c-10.272.991-15.5 30.149-15.5 30.149l-11.475-9.92 5.555 11.118c-46.892-4.847-87.389-6.752-121.452-6.971l5.185-8.4c-2.042-.6-11.016 4.993-11.016 4.993l7.953-28.544c-10.272.991-15.5 30.149-15.5 30.149l-11.475-9.92 5.883 11.776c-28.557.347-51.844 1.873-69.819 3.653 5.245-13.1 23.06-25.507 23.06-25.507-13.6 3.329-20.74 8.98-24.47 14.262a196.068 196.068 0 0 1 15.88-79.46s-28.125 51.17-24.542 85.621l.428 6.117c-23.838 2.751-35.822 5.673-35.822 5.673z" fill="#8bc53f" transform="translate(-94.554 -363.277)"/><path d="m413.05 95.65v206.773a9.288 9.288 0 0 1 -9.279 9.286h-83.822a9.269 9.269 0 0 1 -9.279-9.286v-206.773a9.285 9.285 0 0 1 9.28-9.292h12.543v1.611a7.646 7.646 0 0 0 7.639 7.653h42.631a7.57 7.57 0 0 0 4.53-1.493 7.106 7.106 0 0 0 .752-.632 7.635 7.635 0 0 0 2.357-5.528v-1.611h13.369a9.283 9.283 0 0 1 9.279 9.292z" fill="#ecebeb" transform="translate(-241.831 -86.358)"/><ellipse cx="92.191" cy="34.452" fill="#f2f2f2" rx="2.23" ry="2.233"/><path d="m551.972 108.738a7.114 7.114 0 0 1 -.752.632 39.9 39.9 0 0 0 25.756 19.2v-1a38.961 38.961 0 0 1 -25-18.837z" fill="#8bc53f" transform="translate(-405.758 -101.599)"/><path d="m491.535 115.4h-1.045a57.884 57.884 0 0 0 45.1 36.062v-.989a56.89 56.89 0 0 1 -44.055-35.073z" fill="#8bc53f" transform="translate(-364.373 -106.134)"/><path d="m431.2 115.4h-1.007a76.329 76.329 0 0 0 64.307 54.584v-.973a75.359 75.359 0 0 1 -63.3-53.611z" fill="#8bc53f" transform="translate(-323.28 -106.134)"/><path d="m263.7 158.581h-.58v-.581h-.113v.581h-.581v.114h.581v.581h.113v-.581h.58z" fill="#f2f2f2" transform="translate(-178.835 -107.599)"/><path d="m386.7 67.581h-.58v-.581h-.113v.581h-.581v.114h.581v.581h.113v-.581h.58z" fill="#f2f2f2" transform="translate(-262.656 -45.627)"/><path d="m281.7 230.581h-.58v-.581h-.113v.581h-.581v.114h.581v.581h.113v-.581h.58z" fill="#f2f2f2" transform="translate(-191.102 -156.631)"/><path d="m365.7 177.581h-.58v-.581h-.113v.581h-.581v.114h.581v.581h.113v-.581h.58z" fill="#f2f2f2" transform="translate(-248.345 -120.538)"/><path d="m485.7 210.581h-.58v-.581h-.113v.581h-.581v.114h.581v.581h.113v-.581h.58z" fill="#f2f2f2" transform="translate(-330.121 -143.011)"/><ellipse cx="148.89" cy="39.874" fill="#7e58a3" rx="1.274" ry="1.276"/><g fill="#e6e6e6"><path d="m417.134 305.158-.723.112c.226 1.448.4 2.928.535 4.393l.729-.064c-.13-1.484-.312-2.977-.541-4.441z" transform="translate(-313.889 -235.362)"/><path d="m410.971 277.818-.7.214c.424 1.4.8 2.842 1.124 4.275l.717-.163c-.328-1.444-.712-2.903-1.141-4.326z" transform="translate(-309.705 -216.743)"/><path d="m401.136 251.6-.666.306c.612 1.337 1.185 2.708 1.7 4.08l.685-.258c-.521-1.39-1.098-2.781-1.719-4.128z" transform="translate(-303.027 -198.887)"/><path d="m387.839 227.018-.618.392c.787 1.238 1.542 2.52 2.242 3.806l.643-.351c-.706-1.302-1.471-2.597-2.267-3.847z" transform="translate(-293.997 -182.148)"/><path d="m371.308 204.488-.557.475c.949 1.116 1.873 2.284 2.746 3.464l.586-.437c-.883-1.19-1.813-2.373-2.775-3.502z" transform="translate(-282.774 -166.805)"/><path d="m351.878 184.428-.487.545c1.1.979 2.169 2.01 3.192 3.059l.526-.514c-1.036-1.061-2.123-2.101-3.231-3.09z" transform="translate(-269.58 -153.144)"/><path d="m329.921 167.208-.411.606c1.217.82 2.421 1.694 3.577 2.6l.452-.577c-1.171-.916-2.388-1.8-3.618-2.629z" transform="translate(-254.67 -141.417)"/><path d="m310.671 155.248v.829c.761.4 1.516.817 2.255 1.244l.366-.635q-1.292-.746-2.621-1.438z" transform="translate(-241.831 -133.272)"/><path d="m418.161 516.54c.119-.713.228-1.442.323-2.164l.726.1c-.1.731-.207 1.467-.327 2.188z" transform="translate(-315.082 -377.84)"/><path d="m411.752 539.03.7.218c.439-1.418.837-2.87 1.181-4.316l-.713-.169c-.342 1.431-.732 2.865-1.168 4.267z" transform="translate(-310.715 -391.724)"/><path d="m401.71 565.294.665.312c.632-1.342 1.223-2.726 1.76-4.11l-.684-.267c-.53 1.371-1.115 2.737-1.741 4.065z" transform="translate(-303.872 -409.747)"/><path d="m388.2 590.113.614.4c.81-1.244 1.587-2.534 2.311-3.831l-.639-.359c-.715 1.283-1.486 2.558-2.286 3.79z" transform="translate(-294.664 -426.836)"/><path d="m371.482 613 .555.482c.974-1.126 1.919-2.3 2.815-3.48l-.587-.439c-.882 1.174-1.818 2.33-2.783 3.437z" transform="translate(-283.272 -442.666)"/><path d="m351.907 633.525.482.551c1.12-.979 2.215-2.011 3.262-3.06l-.518-.52c-1.033 1.039-2.12 2.057-3.226 3.029z" transform="translate(-269.933 -456.919)"/><path d="m329.854 651.315.4.614c1.237-.818 2.465-1.689 3.643-2.588l-.443-.586c-1.161.891-2.375 1.753-3.6 2.56z" transform="translate(-254.904 -469.353)"/><path d="m313.375 664.653c-.886.5-1.79.986-2.7 1.445v-.823c.79-.4 1.574-.826 2.341-1.257z" transform="translate(-241.831 -479.747)"/><path d="m418.836 333.435.732-.013c.013.74.014 1.485 0 2.213l-.732-.011c.014-.724.013-1.457 0-2.189z" transform="translate(-315.542 -254.61)"/></g><path d="m226.216 301.632h74.922a21.038 21.038 0 0 1 21.023 21.054v2.787h-74.922a21.038 21.038 0 0 1 -21.023-21.054z" fill="#fff" transform="translate(-154.16 -205.413)"/><path d="m471.334 618.207c-.073-.12-1.8-3-2.394-8.987-.548-5.491-.2-14.746 4.6-27.656a55.844 55.844 0 0 0 -2.207-44.388l.551-.32a49.034 49.034 0 0 1 4.615 13.093 57.2 57.2 0 0 1 -2.362 31.838c-9.064 24.416-2.326 35.974-2.256 36.088z" fill="#f2f2f2" transform="translate(-349.555 -393.149)"/><ellipse cx="118.229" cy="138.444" fill="#8bc53f" rx="4.141" ry="4.147"/><ellipse cx="131.289" cy="153.756" fill="#f2f2f2" rx="4.141" ry="4.147"/><ellipse cx="122.37" cy="163.964" fill="#8bc53f" rx="4.141" ry="4.147"/><ellipse cx="133.2" cy="172.576" fill="#8bc53f" rx="4.141" ry="4.147"/><ellipse cx="119.185" cy="185.974" fill="#f2f2f2" rx="4.141" ry="4.147"/><path d="m483.306 754.221s-4.141-10.208 8.282-17.864z" fill="#f2f2f2" transform="translate(-359.025 -529.011)"/><path d="m433.5 768.8s-1.885-10.855-16.471-10.762z" fill="#f2f2f2" transform="translate(-314.31 -543.775)"/><ellipse cx="102.702" cy="108.14" fill="#8bc53f" opacity=".2" rx="25.482" ry="25.52"/><ellipse cx="102.702" cy="108.14" fill="#8bc53f" opacity=".2" rx="17.945" ry="17.972"/><ellipse cx="102.703" cy="108.139" fill="#8bc53f" rx="11.844" ry="11.861"/><path d="m414.527 412.732a2.154 2.154 0 1 0 -3.514 1.671l-.793 5.56h4.307l-.793-5.56a2.153 2.153 0 0 0 .793-1.671z" fill="#fff" transform="translate(-309.67 -307.151)"/><path d="m695.28 136.049s-7.1-6.378-16.657 5.642-24.496 17.909-27.923 22.569c0 0 14.208-5.888 19.107-8.341s4.654-1.963 4.654-1.963-6.614 4.661-7.839 9.322-.245 8.586-2.45 13.247 42.133 3.189 42.133 3.189 4.409-7.6 3.185-15.455-.49-27.229-14.21-28.21z" fill="#2f2e41" transform="translate(-473.549 -119.046)"/><path d="m727.72 202.56s1.545 10.829-5.076 13.26-4.193 5.746-4.193 5.746l9.93 4.862 10.592-3.315 3.531-5.3s-5.738-1.326-4.193-5.3 1.986-5.3 1.986-5.3z" fill="#ffb9b9" transform="translate(-519.425 -165.492)"/><path d="m727.72 202.56s1.545 10.829-5.076 13.26-4.193 5.746-4.193 5.746l9.93 4.862 10.592-3.315 3.531-5.3s-5.738-1.326-4.193-5.3 1.986-5.3 1.986-5.3z" fill="#bf9792" opacity=".79" transform="translate(-519.425 -165.492)"/><path d="m816.414 299.551s-1.545 20.332-1.1 21.216 0 31.6 0 31.6 3.089 16.575-.883 17.459-3.089-18.564-3.089-18.564l-3.972-25.636.441-25.415z" fill="#ffb9b9" transform="translate(-580.314 -231.543)"/><path d="m816.414 299.551s-1.545 20.332-1.1 21.216 0 31.6 0 31.6 3.089 16.575-.883 17.459-3.089-18.564-3.089-18.564l-3.972-25.636.441-25.415z" fill="#bf9792" opacity=".51" transform="translate(-580.314 -231.543)"/><path d="m685.558 491.454s-7.282 27.625-7.062 41.105 3.09 32.266 3.09 32.266.441 8.177-.221 9.061 3.31 4.641 3.31 4.641l4.193-2.431 1.545-1.768v-1.547s-2.427-7.514-.441-13.481 3.089-20.995 1.1-25.636l13.685-40.664z" fill="#bf9792" transform="translate(-492.489 -362.23)"/><path d="m668.372 748.118s-2.648-3.315-4.414-2.21-4.634 8.619-4.634 8.619-9.93 9.5-2.869 9.945 10.151-1.989 11.034-3.757 9.048-6.409 9.048-6.409-.883-8.4-2.207-8.619-3.31 3.313-3.31 3.313z" fill="#2f2e41" transform="translate(-475.745 -535.357)"/><path d="m769.581 482.842v27.4a84.838 84.838 0 0 0 .662 9.945c.662 4.862-3.752 41.105-3.752 41.105l.441 6.409 5.517-.442.662-5.525 7.944-24.31s2.648-14.807 1.324-20.332 6.841-40.884 6.841-40.884z" fill="#bf9792" transform="translate(-552.459 -351.851)"/><path d="m761.33 752.768 1.634-.356s1.234-2.738 2.779-2.075a16.65 16.65 0 0 1 3.072 1.843l.68 1.251a26.418 26.418 0 0 0 3.531 5.525c1.986 2.21 4.193 7.072.883 7.514s-7.724.663-9.048-.442-.441-2.873-1.766-3.315-2.427-1.768-2.207-2.21.442-7.735.442-7.735z" fill="#2f2e41" transform="translate(-548.621 -538.46)"/><ellipse cx="217.122" cy="34.858" fill="#bf9792" rx="9.808" ry="9.822"/><path d="m718 247.494 2.915-1.019s-1.149 1.9 5.029 3.008 12.578 1.5 15.447-2.125c0 0 1.1-.527 2.648 1.02s2.427 1.1 2.427 1.1l-1.1 5.746-2.207 10.608-2.869 7.956-8.165-1.768-8.827-6.409-3.316-8.611v-7.956z" fill="#3aabec" transform="translate(-519.411 -195.398)"/><path d="m721.312 252.345 2.207-1.547s7.5 1.326 7.944 4.862l-5.738 11.05a12.6 12.6 0 0 1 -.221 9.5c-2.207 5.083-1.986 6.188-1.986 6.188l-1.545 6.63-28.026 2.21a19.9 19.9 0 0 0 -1.545-3.094c-.441-.442-.441-1.989 0-1.989s0-.663-.441-1.326-.662-.884 0-1.768-1.1-8.84-1.1-8.84v-8.621l-7.5-9.945s2.648-3.978 3.972-4.42 7.622-2.185 7.622-2.185l1.425 2.1 1.986 16 2.869 9.724 12.079-2.055 4.692-7.89 3.09-9.282z" fill="#3aabec" transform="translate(-495.805 -197.155)"/><path d="m817.026 265.6 1.765 1.326s1.545 12.376 1.1 13.26-8.165 1.768-8.386 1.326 5.521-15.912 5.521-15.912z" fill="#3aabec" transform="translate(-583.133 -208.425)"/><path d="m701.779 244.319 2.207 14.586s-1.986 21.658-1.545 26.078l.441 1.326s-.883-.442-1.1.442a20.692 20.692 0 0 0 0 3.757s-1.324 1.326-1.765 8.619-5.738 24.752-3.752 25.415 13.9 3.978 20.3 3.315 29.35-8.4 29.129-10.387-11.255-30.056-11.255-30.056a29.042 29.042 0 0 1 -1.986-3.757c0-.442 2.648-2.21 1.986-3.978s-4.193-20.332-4.193-20.332l2.427-13.26-3.31-.884-2.427 12.818s-9.489 4.641-19.419.442l-2.207-15.028z" fill="#0066a1" transform="translate(-504.297 -193.328)"/><path d="m747.864 164.1s16.33 11.271 20.743 6.188-7.724-9.5-7.724-9.5l-10.151-1.1z" fill="#2f2e41" transform="translate(-539.765 -136.29)"/><path d="m586.232 516.229a8.628 8.628 0 1 0 -2.7-3.357l-22.522 18.78-3-3.564-1.347.9-1.5-1.782 1.232-1.04-1.5-1.782-1.915 1.616.923 1.1-2.053 1.733-.923-1.1-3.012 2.541 1.384 1.645 1.1-.924 1.5 1.782-1.369 1.155 2.768 3.29-3.29 2.778 3.345 3.976zm5.623-12.6a5.7 5.7 0 1 1 -6.16 5.2 5.7 5.7 0 0 1 6.161-5.198z" fill="#009345" transform="translate(-403.506 -368.521)"/><path d="m678.418 307.864s1.545 20.332 1.1 21.216 0 31.6 0 31.6-3.089 16.575.883 17.459 3.089-18.564 3.089-18.564l3.972-25.636-.441-25.415z" fill="#bf9792" transform="translate(-492.412 -237.205)"/><path d="m679.608 267.682-1.765.663s-3.31 13.923-2.427 13.923 11.475 1.326 11.475.884-1.986-11.271-1.986-11.271z" fill="#3aabec" transform="translate(-490.291 -209.841)"/></svg>