<svg height="21.594" viewBox="0 0 21.883 21.594" width="21.883" xmlns="http://www.w3.org/2000/svg"><path d="m20.039 8.957-8.4-8.4a1.9 1.9 0 0 0 -2.681 0l-8.4 8.4-.008.003a1.9 1.9 0 0 0 1.262 3.23h.058.335v6.182a2.221 2.221 0 0 0 2.219 2.219h3.287a.6.6 0 0 0 .6-.6v-4.848a1.013 1.013 0 0 1 1.012-1.012h1.939a1.013 1.013 0 0 1 1.012 1.012v4.847a.6.6 0 0 0 .6.6h3.287a2.221 2.221 0 0 0 2.219-2.219v-6.178h.31a1.9 1.9 0 0 0 1.342-3.236zm0 0" fill="#fff" stroke="#009345" transform="translate(.645 .501)"/></svg>