<svg height="18" viewBox="0 0 13 18" width="13" xmlns="http://www.w3.org/2000/svg"><g fill="#009345"><path d="m82.5 0a6.423 6.423 0 0 0 -6.5 6.328 6.191 6.191 0 0 0 .97 3.328l5.16 8.095a.545.545 0 0 0 .46.249.545.545 0 0 0 .46-.256l5.033-8.174a6.2 6.2 0 0 0 .917-3.242 6.423 6.423 0 0 0 -6.5-6.328zm4.653 9.029-4.571 7.431-4.691-7.36a5.164 5.164 0 0 1 -.815-2.772 5.424 5.424 0 0 1 10.844 0 5.164 5.164 0 0 1 -.767 2.701z" transform="translate(-76)"/><path d="m169.3 90a3.3 3.3 0 1 0 3.3 3.3 3.305 3.305 0 0 0 -3.3-3.3zm0 5.51a2.208 2.208 0 1 1 2.2-2.208 2.21 2.21 0 0 1 -2.2 2.208z" transform="translate(-162.802 -86.911)"/></g></svg>