<svg height="21.413" viewBox="0 0 18.03 21.413" width="18.03" xmlns="http://www.w3.org/2000/svg"><g fill="#fff" stroke="#009345"><path d="m59.625 17.218-1.46-2.434a7.231 7.231 0 0 1 -1.031-3.72v-2.133a5.961 5.961 0 0 0 -4.253-5.7v-1.531a1.7 1.7 0 0 0 -3.4 0v1.528a5.961 5.961 0 0 0 -4.253 5.7v2.132a7.235 7.235 0 0 1 -1.03 3.719l-1.46 2.434a.426.426 0 0 0 .364.645h16.158a.425.425 0 0 0 .365-.644z" transform="translate(-42.165 .5)"/><path d="m188.815 469.333a2.959 2.959 0 0 0 5.357 0z" transform="translate(-182.478 -450.121)"/></g></svg>