<svg height="328" viewBox="0 0 354 328" width="354" xmlns="http://www.w3.org/2000/svg" xmlns:xlink="http://www.w3.org/1999/xlink"><clipPath id="a"><path d="m9 110h354v328h-354z"/></clipPath><g transform="translate(-9 -110)"><g clip-path="url(#a)"><path d="m151.64-24.128c83.828 0 151.785 92.145 151.785 176.059s-50.285 151.941-151.785 151.941-254.216-151.941-254.216-151.941 170.387-176.059 254.216-176.059z" fill="#fbfbfb" transform="translate(59.576 134.128)"/></g><path d="m613.492 495.62h-83.525a5.036 5.036 0 0 1 -5.03-5.03v-60.053a5.035 5.035 0 0 1 5.03-5.03h83.525a5.036 5.036 0 0 1 5.03 5.03v60.053a5.036 5.036 0 0 1 -5.03 5.03z" fill="#e6e6e6" transform="translate(-360.295 -139.114)"/><path d="m540.941 500.753h80.437a2.439 2.439 0 0 0 2.439-2.439v-57.214a2.439 2.439 0 0 0 -2.439-2.439h-80.437a2.439 2.439 0 0 0 -2.441 2.439v57.216a2.439 2.439 0 0 0 2.441 2.437z" fill="#fbfbfb" transform="translate(-369.722 -148.251)"/><path d="m246.451 231.144h-83.525a5.035 5.035 0 0 1 -5.03-5.03v-60.052a5.035 5.035 0 0 1 5.03-5.03h83.525a5.035 5.035 0 0 1 5.03 5.03v60.053a5.035 5.035 0 0 1 -5.03 5.029z" fill="#e6e6e6" transform="translate(-104.896 45.265)"/><path d="m173.9 236.278h80.437a2.439 2.439 0 0 0 2.439-2.439v-57.215a2.439 2.439 0 0 0 -2.439-2.439h-80.437a2.439 2.439 0 0 0 -2.439 2.439v57.216a2.439 2.439 0 0 0 2.439 2.438z" fill="#fbfbfb" transform="translate(-114.326 36.122)"/><path d="m657.564 496.981h-51.38a1.835 1.835 0 1 0 0 3.67h51.38a1.835 1.835 0 1 0 0-3.67z" fill="#e6e6e6" transform="translate(-415.499 -188.717)"/><path d="m606.184 534.025a1.835 1.835 0 0 0 0 3.67h51.38a1.835 1.835 0 1 0 0-3.67z" fill="#e6e6e6" transform="translate(-415.499 -214.509)"/><path d="m606.184 571.069a1.835 1.835 0 0 0 0 3.67h51.38a1.835 1.835 0 1 0 0-3.67z" fill="#e6e6e6" transform="translate(-415.499 -240.3)"/><circle cx="181.007" cy="310.239" fill="#009345" r="2.258"/><circle cx="181.007" cy="321.491" fill="#e6e6e6" r="2.258"/><circle cx="181.007" cy="332.743" fill="#e6e6e6" r="2.258"/><path d="m637.1 498.815a1.835 1.835 0 0 1 -1.835 1.835h-29.015a1.88 1.88 0 0 1 -1.885-1.591 1.838 1.838 0 0 1 1.819-2.079h29.078a1.835 1.835 0 0 1 1.835 1.835z" fill="#009345" transform="translate(-415.475 -188.716)"/><circle cx="211.451" cy="271.564" fill="#e6e6e6" r="7.34"/><circle cx="3.67" cy="3.67" fill="#fff" r="3.67" transform="matrix(.16017407 -.98708878 .98708878 .16017407 207.241 274.596)"/><path d="m194.82 270.312a1.819 1.819 0 1 0 0 3.637h68.545a1.819 1.819 0 1 0 0-3.637z" fill="#e6e6e6" transform="translate(-129.3 -30.9)"/><path d="m194.82 307.024a1.819 1.819 0 1 0 0 3.637h68.545a1.819 1.819 0 1 0 0-3.637z" fill="#e6e6e6" transform="translate(-129.3 -56.46)"/><path d="m295.318 345.571a1.819 1.819 0 1 0 0 3.637h7.274a1.819 1.819 0 0 0 0-3.637z" fill="#009345" transform="translate(-199.163 -83.298)"/><path d="m278.144 194.562a.56.56 0 0 0 -.56.56v14.2a.56.56 0 0 0 .56.56h19.495a.56.56 0 0 0 .56-.56v-14.2a.56.56 0 0 0 -.56-.56z" fill="#009345" transform="translate(-188.099 21.956)"/><g fill="#fff"><circle cx="99.793" cy="222.609" r="3.078"/><path d="m304.946 233.222a3.054 3.054 0 0 1 -.336 1.4h-9.4a3.077 3.077 0 0 1 2.742-4.476h3.917a3.076 3.076 0 0 1 3.077 3.074z" transform="translate(-200.117 -2.934)"/><circle cx="99.793" cy="222.609" r="3.078"/><path d="m304.946 233.222a3.054 3.054 0 0 1 -.336 1.4h-9.4a3.077 3.077 0 0 1 2.742-4.476h3.917a3.076 3.076 0 0 1 3.077 3.074z" transform="translate(-200.117 -2.934)"/></g><circle cx="99.792" cy="191.274" fill="#e6e6e6" r="7.274"/><circle cx="99.792" cy="191.274" fill="#009345" r="3.637"/><path d="m736.392 680.585h-3.485l-1.657-13.442h5.144z" fill="#ffb8b8" transform="translate(-455.723 -280.544)"/><path d="m718.871 707.973h6.721v4.227h-10.953a4.232 4.232 0 0 1 4.232-4.232z" fill="#2d2d2d" transform="translate(-444.176 -308.927)"/><path d="m798.014 680.585h-3.485l-1.657-13.442h5.143z" fill="#ffb8b8" transform="translate(-498.561 -280.544)"/><path d="m780.492 707.973h6.721v4.227h-10.953a4.232 4.232 0 0 1 4.232-4.232z" fill="#2d2d2d" transform="translate(-487.013 -308.927)"/><circle cx="289.247" cy="297.368" fill="#ffb8b8" r="7.487"/><path d="m850.116 604.424a2.858 2.858 0 0 1 3.686-2.371l4.184-5.016 3.668 1.8-6.008 7a2.874 2.874 0 0 1 -5.53-1.413z" fill="#ffb8b8" transform="translate(-586.4 -258.398)"/><path d="m967.684 613.04a2.859 2.859 0 0 1 1.839-3.979l.84-6.478 4.061-.45-1.315 9.131a2.874 2.874 0 0 1 -5.425 1.775z" fill="#ffb8b8" transform="translate(-668.026 -261.953)"/><path d="m952.909 504.243a3.684 3.684 0 0 1 6.325.893l6.137 15.315a9.515 9.515 0 0 1 .579 4.936l-2 13.461a1.219 1.219 0 0 1 -1.564.986l-2.634-.809a1.219 1.219 0 0 1 -.853-1.308 44.3 44.3 0 0 0 -3.556-23.238l-2.893-6.471a3.683 3.683 0 0 1 .459-3.765z" fill="#0b8bd5" transform="translate(-657.405 -192.866)"/><path d="m913.281 446.141a7.988 7.988 0 1 0 -1.5-15.8 9.182 9.182 0 0 0 -5.479-1.5 5.371 5.371 0 0 0 -4.534 3.1 3.835 3.835 0 0 0 1.837 4.87 6.928 6.928 0 0 0 3.656.052 5.452 5.452 0 0 1 3.614.319c1.062.63 1.54 2.318.588 3.106a3.273 3.273 0 0 0 -.94 3.6 3.581 3.581 0 0 0 2.758 2.253z" fill="#3b3b3b" transform="translate(-622.211 -141.281)"/><path d="m912.078 619.211 1.328 50.4a1.219 1.219 0 0 1 -1.281 1.25l-4.375-.223a1.219 1.219 0 0 1 -1.142-1.026l-5.2-32.736a.61.61 0 0 0 -1.2-.037l-7.044 31.519a1.22 1.22 0 0 1 -1.6.883l-4.342-.265a1.219 1.219 0 0 1 -.808-1.236l3.79-49.007z" fill="#e6e6e6" transform="translate(-611.718 -273.683)"/><path d="m919.173 507.155a13.739 13.739 0 0 0 -12.537-15.09c-3.3-.234-8.417-.318-10.1 4-5.084 13.021 3.816 12.7.75 23.985s-5.774 11.928-1.567 12.742 23.127 5.623 22.35-2.317c-.483-4.875.373-15.701 1.104-23.32z" fill="#1394df" transform="translate(-616.682 -185.33)"/><path d="m878.188 500.492a3.684 3.684 0 0 1 4.967 4.017l-2.39 14.934a14.6 14.6 0 0 1 -3.129 6.952l-7.761 9.457a1.219 1.219 0 0 1 -1.849.042l-1.844-2.047a1.219 1.219 0 0 1 -.06-1.56l.543-.7a41.062 41.062 0 0 0 8.244-20.174l.95-7.921a3.683 3.683 0 0 1 2.328-3z" fill="#0b8bd5" transform="translate(-597.438 -191.067)"/><path d="m860.552 810.723h-78.652a.3.3 0 0 1 0-.61h78.648a.3.3 0 1 1 0 .61z" fill="#ccc" transform="translate(-538.857 -406.723)"/></g></svg>