<svg height="16" viewBox="0 0 23 16" width="23" xmlns="http://www.w3.org/2000/svg"><g fill="#009345"><path d="m21.083 72.118h-19.166a1.894 1.894 0 0 0 -1.917 1.882v12.228a1.894 1.894 0 0 0 1.917 1.881h19.166a1.763 1.763 0 0 0 .319 0 1.909 1.909 0 0 0 1.598-1.881v-12.228a1.894 1.894 0 0 0 -1.917-1.882zm-19.166 15.051a1.2 1.2 0 0 1 -1.278-.941l7.667-5.017 7.986 5.958zm20.444-.941c0 .559-.4.85-.958.941a3.017 3.017 0 0 1 -.319 0h-3.515l-5.111-3.763 4.472-3.763 5.431 3.449zm0-4.076-5.431-3.136c-.137-.082-.194-.1-.319 0l-4.792 3.763-3.194-2.195c-.129-.1-.182-.089-.319 0l-7.667 4.7v-11.284a1.362 1.362 0 0 1 1.278-1.254h19.166a1.362 1.362 0 0 1 1.278 1.254z" transform="translate(0 -72.118)"/><path d="m194.547 119.832a2.2 2.2 0 0 0 -2.261 2.261 2.281 2.281 0 1 0 4.522 0 2.2 2.2 0 0 0 -2.261-2.261zm0 3.876a1.649 1.649 0 0 1 -1.615-1.615c0-.866.749-1.292 1.615-1.292s1.615.426 1.615 1.292a1.649 1.649 0 0 1 -1.615 1.615z" transform="translate(-183.047 -117.571)"/></g></svg>