<svg height="15" viewBox="0 0 22 15" width="22" xmlns="http://www.w3.org/2000/svg"><path d="m21.313 81.364h-2.063a.69.69 0 0 0 -.488.2l-1.169 1.166h-1.093v-.682a2.054 2.054 0 0 0 -2.062-2.048h-12.375a2.054 2.054 0 0 0 -2.063 2.045v10.91a2.054 2.054 0 0 0 2.063 2.045h12.375a2.054 2.054 0 0 0 2.062-2.045v-.682h1.093l1.176 1.166a.691.691 0 0 0 .481.2h2.063a.685.685 0 0 0 .687-.684v-10.91a.685.685 0 0 0 -.687-.681zm-.688 10.909h-1.093l-1.176-1.166a.691.691 0 0 0 -.481-.2h-2.062a.685.685 0 0 0 -.688.682v1.364a.685.685 0 0 1 -.687.682h-12.375a.685.685 0 0 1 -.687-.682v-10.908a.685.685 0 0 1 .688-.682h12.374a.685.685 0 0 1 .687.682v6.818h1.375v-4.772h1.375a.69.69 0 0 0 .488-.2l1.169-1.166h1.093z" fill="#009345" transform="translate(0 -80)"/></svg>