<svg height="23" viewBox="0 0 24 23" width="24" xmlns="http://www.w3.org/2000/svg"><path d="m15.708 0 6 4.393 2.292 7.107-2.292 7.107-6 4.393h-7.416l-6-4.393-2.292-7.107 2.292-7.107 6-4.393z" fill="#ffab00"/><g fill="#fff" transform="translate(-174.227 5)"><path d="m185.727 10.926a.946.946 0 0 0 .891-.926l.6-8.161a1.839 1.839 0 0 0 -.391-1.291 1.386 1.386 0 0 0 -2.208 0 1.839 1.839 0 0 0 -.391 1.291l.6 8.161a.946.946 0 0 0 .899.926z"/><path d="m206.3 410.908c-.468 0-.847.541-.847 1.208s.379 1.208.847 1.208.847-.541.847-1.208-.379-1.208-.847-1.208z" transform="translate(-20.573 -399.323)"/></g></svg>