<svg height="79" viewBox="0 0 100 79" width="100" xmlns="http://www.w3.org/2000/svg"><g fill="#fff" opacity=".26" stroke="#747474"><rect height="79" rx="7" stroke="none" width="100"/><rect fill="none" height="78" rx="6.5" width="99" x=".5" y=".5"/></g><g fill="#009345"><path d="m22.5 61.956a9.29 9.29 0 0 0 -11.26-6.647 9.186 9.186 0 0 0 -7 8.21 4.986 4.986 0 0 0 .844 9.915h4.216v-1.663h-4.217a3.327 3.327 0 1 1 0-6.654.838.838 0 0 0 .844-.832 7.6 7.6 0 0 1 15.042-1.455.839.839 0 0 0 .717.665 4.155 4.155 0 0 1 -.574 8.276h-3.374v1.664h3.375a5.814 5.814 0 0 0 1.387-11.479z" transform="translate(36 -24.032)"/><path d="m184.5 249.263-3.463 3.463 1.221 1.221 1.991-1.982v8.3h1.731v-8.3l1.982 1.982 1.221-1.221-3.463-3.463a.866.866 0 0 0 -1.22 0z" transform="translate(-135.593 -208.266)"/></g></svg>