<svg height="91" viewBox="0 0 100 91" width="100" xmlns="http://www.w3.org/2000/svg"><rect fill="#009345" height="91" rx="15" width="100"/><g fill="#fff" transform="translate(20 15)"><path d="m54.141 5.156h-5.586v-1.64a3.516 3.516 0 0 0 -7.031 0v1.64h-19.688v-1.64a3.516 3.516 0 0 0 -7.031 0v1.684a1.169 1.169 0 0 0 -.312-.043h-4.67a5.866 5.866 0 0 0 -5.859 5.859v19.961a1.172 1.172 0 1 0 2.344 0v-13.75h42.247a1.172 1.172 0 1 0 0-2.344h-42.248v-3.867a3.52 3.52 0 0 1 3.516-3.516h4.669a1.174 1.174 0 0 0 .312-.043v1.508a3.516 3.516 0 0 0 7.031 0v-1.465h19.688v1.465a3.516 3.516 0 0 0 7.031 0v-1.465h5.586a3.52 3.52 0 0 1 3.516 3.516v44.53a2.11 2.11 0 0 1 -4.22 0v-3.031a1.172 1.172 0 0 0 -1.172-1.172h-13.631a1.172 1.172 0 1 0 0 2.344h12.459v1.86a4.427 4.427 0 0 0 .533 2.11h-47.172a2.112 2.112 0 0 1 -2.109-2.109v-1.86h26.229a1.172 1.172 0 0 0 0-2.344h-11.709a9.609 9.609 0 1 0 -12.523 0h-3.169a1.172 1.172 0 0 0 -1.172 1.171v3.032a4.458 4.458 0 0 0 4.453 4.453h51.093a4.459 4.459 0 0 0 4.454-4.454v-44.53a5.866 5.866 0 0 0 -5.859-5.86zm-34.649 3.809a1.172 1.172 0 0 1 -2.344 0v-5.449a1.172 1.172 0 0 1 2.344 0zm26.719 0a1.172 1.172 0 0 1 -2.344 0v-5.449a1.172 1.172 0 0 1 2.344 0zm-42.874 35.098a7.266 7.266 0 1 1 7.263 7.265 7.274 7.274 0 0 1 -7.263-7.265z"/><path d="m453.252 127.345a1.178 1.178 0 1 0 .346.834 1.187 1.187 0 0 0 -.346-.834z" transform="translate(-398.403 -112.121)"/><path d="m283.592 438.474a1.18 1.18 0 1 0 .346.834 1.186 1.186 0 0 0 -.346-.834z" transform="translate(-248.59 -386.839)"/><path d="m192.725 304a4.48 4.48 0 1 0 4.48 4.48 4.485 4.485 0 0 0 -4.48-4.48zm0 6.6a2.122 2.122 0 1 1 2.122-2.122 2.125 2.125 0 0 1 -2.122 2.122z" transform="translate(-166.208 -268.412)"/><path d="m286.058 304a4.48 4.48 0 1 0 4.48 4.48 4.485 4.485 0 0 0 -4.48-4.48zm0 6.6a2.122 2.122 0 1 1 2.122-2.122 2.125 2.125 0 0 1 -2.122 2.122z" transform="translate(-248.615 -268.412)"/><path d="m379.392 304a4.48 4.48 0 1 0 4.48 4.48 4.485 4.485 0 0 0 -4.48-4.48zm0 6.6a2.122 2.122 0 1 1 2.122-2.122 2.125 2.125 0 0 1 -2.122 2.122z" transform="translate(-331.074 -268.412)"/><path d="m99.392 200a4.48 4.48 0 1 0 4.48 4.48 4.485 4.485 0 0 0 -4.48-4.48zm0 6.6a2.122 2.122 0 1 1 2.122-2.122 2.125 2.125 0 0 1 -2.122 2.122z" transform="translate(-83.801 -176.587)"/><path d="m286.058 200a4.48 4.48 0 1 0 4.48 4.48 4.485 4.485 0 0 0 -4.48-4.48zm0 6.6a2.122 2.122 0 1 1 2.122-2.122 2.125 2.125 0 0 1 -2.122 2.122z" transform="translate(-248.615 -176.587)"/><path d="m379.392 200a4.48 4.48 0 1 0 4.48 4.48 4.485 4.485 0 0 0 -4.48-4.48zm0 6.6a2.122 2.122 0 1 1 2.122-2.122 2.125 2.125 0 0 1 -2.122 2.122z" transform="translate(-331.074 -176.587)"/><path d="m192.725 200a4.48 4.48 0 1 0 4.48 4.48 4.485 4.485 0 0 0 -4.48-4.48zm0 6.6a2.122 2.122 0 1 1 2.122-2.122 2.125 2.125 0 0 1 -2.122 2.122z" transform="translate(-166.208 -176.587)"/><path d="m60.026 349.046a1.179 1.179 0 0 0 -1.667 0l-3.839 3.839-1.312-1.312a1.179 1.179 0 0 0 -1.667 1.667l2.146 2.146a1.179 1.179 0 0 0 1.667 0l4.673-4.673a1.179 1.179 0 0 0 -.001-1.667z" transform="translate(-45.158 -307.869)"/></g></svg>