<svg height="91" viewBox="0 0 100 91" width="100" xmlns="http://www.w3.org/2000/svg"><rect fill="#009345" height="91" rx="15" width="100"/><g fill="#fff"><path d="m70.452 63.882a1.012 1.012 0 0 0 1.43-1.43l-6.069-6.069a1.012 1.012 0 0 0 -1.43 1.43zm0 0" transform="translate(-31.994 -33.005)"/><path d="m9.1 234.023a1.012 1.012 0 0 0 0-2.023h-8.088a1.012 1.012 0 0 0 0 2.023zm0 0" transform="translate(24 -187.012)"/><path d="m70.28 360.383-6.069 6.069a1.012 1.012 0 1 0 1.43 1.43l6.069-6.069a1.012 1.012 0 0 0 -1.43-1.43zm0 0" transform="translate(-31.822 -299.259)"/><path d="m127.183 138.465v-33.441a16.8 16.8 0 0 0 0 33.442zm0 0" transform="translate(-74.043 -75.745)"/><path d="m271.265 129.1a14.124 14.124 0 0 1 -4.73.738 13.924 13.924 0 0 1 -13.909-13.911 14.4 14.4 0 0 1 6.519-11.849c-.827-.064-1.66-.079-2.44-.079a16.677 16.677 0 0 0 -8.706 2.45v28.8a16.731 16.731 0 0 0 13 1.9 16.387 16.387 0 0 0 10.265-8.043zm0 0" transform="translate(-193.224 -74.851)"/><path d="m233.012 402.38a1.012 1.012 0 0 0 1.012-1.012v-10.115a19.5 19.5 0 0 1 -2.023-.108v10.223a1.012 1.012 0 0 0 1.011 1.012zm0 0" transform="translate(-178.972 -326.38)"/><path d="m234.023 1.012a1.012 1.012 0 0 0 -2.023 0v10.223a19.5 19.5 0 0 1 2.023-.108zm0 0" transform="translate(-178.972 16)"/></g></svg>