<svg height="66" viewBox="0 0 66 66" width="66" xmlns="http://www.w3.org/2000/svg"><g fill="#fff" opacity=".26" stroke="#747474"><rect height="66" rx="7" stroke="none" width="66"/><rect fill="none" height="65" rx="6.5" width="65" x=".5" y=".5"/></g><g fill="#009345"><path d="m20.829 61.658a8.583 8.583 0 0 0 -10.429-6.358 8.712 8.712 0 0 0 -6.478 7.856 4.766 4.766 0 0 0 -3.859 5.487 4.713 4.713 0 0 0 4.643 4h3.906v-1.594h-3.906a3.184 3.184 0 0 1 0-6.367.789.789 0 0 0 .781-.8 7.02 7.02 0 0 1 13.928-1.393.788.788 0 0 0 .664.637 3.985 3.985 0 0 1 -.531 7.919h-3.124v1.592h3.125a5.583 5.583 0 0 0 1.281-10.984z" transform="translate(21 -32.032)"/><path d="m184.223 249.243-3.188 3.188 1.124 1.124 1.833-1.825v7.642h1.594v-7.642l1.825 1.825 1.124-1.124-3.188-3.188a.8.8 0 0 0 -1.124 0z" transform="translate(-151.271 -216.371)"/></g></svg>